<svg width="196" height="28" viewBox="0 0 196 28" fill="none" xmlns="http://www.w3.org/2000/svg">
<rect opacity="0.1" width="196" height="28" rx="14" fill="#FFA500"/>
<path d="M32.5772 19.1392C32.1596 19.1326 31.742 19.053 31.3244 18.9006C30.9068 18.7481 30.5256 18.4912 30.1809 18.13C29.8362 17.7654 29.5595 17.2732 29.3507 16.6534C29.1419 16.0303 29.0375 15.2481 29.0375 14.3068C29.0375 13.4053 29.122 12.6065 29.291 11.9105C29.46 11.2112 29.7053 10.6229 30.0268 10.1456C30.3483 9.66501 30.7361 9.30043 31.1902 9.05185C31.6475 8.80327 32.1629 8.67898 32.7363 8.67898C33.3064 8.67898 33.8135 8.79332 34.2576 9.02202C34.7051 9.2474 35.0697 9.56226 35.3514 9.96662C35.6331 10.371 35.8154 10.8366 35.8983 11.3636H34.6852C34.5725 10.9062 34.3538 10.5268 34.0289 10.2251C33.7041 9.92353 33.2733 9.77273 32.7363 9.77273C31.9475 9.77273 31.3261 10.1158 30.872 10.8018C30.4212 11.4879 30.1942 12.4508 30.1909 13.6903H30.2704C30.456 13.4086 30.6764 13.1683 30.9316 12.9695C31.1902 12.7673 31.4752 12.6115 31.7868 12.5021C32.0983 12.3928 32.4281 12.3381 32.7761 12.3381C33.3594 12.3381 33.8931 12.4839 34.377 12.7756C34.8609 13.0639 35.2486 13.4633 35.5403 13.9737C35.832 14.4808 35.9778 15.0625 35.9778 15.7188C35.9778 16.3485 35.8369 16.9252 35.5552 17.4489C35.2735 17.9692 34.8774 18.3835 34.367 18.6918C33.8599 18.9967 33.2633 19.1458 32.5772 19.1392ZM32.5772 18.0455C32.9949 18.0455 33.3694 17.9411 33.7008 17.7322C34.0356 17.5234 34.2991 17.2434 34.4913 16.892C34.6868 16.5407 34.7846 16.1496 34.7846 15.7188C34.7846 15.2978 34.6902 14.915 34.5012 14.5703C34.3156 14.2223 34.0588 13.9455 33.7306 13.7401C33.4058 13.5346 33.0346 13.4318 32.617 13.4318C32.3021 13.4318 32.0088 13.4948 31.737 13.6207C31.4653 13.7434 31.2266 13.9124 31.0211 14.1278C30.819 14.3433 30.6599 14.5902 30.5439 14.8686C30.4279 15.1437 30.3699 15.4337 30.3699 15.7386C30.3699 16.143 30.4643 16.5208 30.6532 16.8722C30.8455 17.2235 31.1073 17.5069 31.4387 17.7223C31.7735 17.9377 32.153 18.0455 32.5772 18.0455ZM41.2539 19.1392C40.5049 19.1392 39.8668 18.9354 39.3398 18.5277C38.8129 18.1167 38.4102 17.5218 38.1317 16.7429C37.8533 15.9607 37.7141 15.0161 37.7141 13.9091C37.7141 12.8087 37.8533 11.8691 38.1317 11.0902C38.4135 10.308 38.8178 9.71141 39.3448 9.30043C39.8751 8.88613 40.5115 8.67898 41.2539 8.67898C41.9963 8.67898 42.631 8.88613 43.158 9.30043C43.6883 9.71141 44.0927 10.308 44.3711 11.0902C44.6528 11.8691 44.7937 12.8087 44.7937 13.9091C44.7937 15.0161 44.6545 15.9607 44.3761 16.7429C44.0977 17.5218 43.695 18.1167 43.168 18.5277C42.641 18.9354 42.003 19.1392 41.2539 19.1392ZM41.2539 18.0455C41.9963 18.0455 42.573 17.6875 42.984 16.9716C43.395 16.2557 43.6005 15.2348 43.6005 13.9091C43.6005 13.0275 43.506 12.2768 43.3171 11.657C43.1315 11.0372 42.863 10.5649 42.5117 10.2401C42.1637 9.91525 41.7444 9.75284 41.2539 9.75284C40.5181 9.75284 39.9431 10.1158 39.5288 10.8416C39.1145 11.5642 38.9073 12.5866 38.9073 13.9091C38.9073 14.7907 39.0001 15.5398 39.1857 16.1562C39.3713 16.7727 39.6381 17.2417 39.9862 17.5632C40.3375 17.8847 40.7601 18.0455 41.2539 18.0455ZM51.0778 13.3622V14.456H46.6232V13.3622H51.0778ZM58.8695 11.3636C58.8098 10.8598 58.5679 10.4688 58.1436 10.1903C57.7194 9.91193 57.199 9.77273 56.5826 9.77273C56.1318 9.77273 55.7374 9.84564 55.3993 9.99148C55.0646 10.1373 54.8027 10.3378 54.6138 10.593C54.4282 10.8482 54.3354 11.1383 54.3354 11.4631C54.3354 11.7348 54.4 11.9685 54.5293 12.1641C54.6619 12.3563 54.8309 12.517 55.0364 12.6463C55.2419 12.7723 55.4573 12.8767 55.6827 12.9595C55.9081 13.0391 56.1152 13.1037 56.3042 13.1534L57.3382 13.4318C57.6034 13.5014 57.8984 13.5975 58.2232 13.7202C58.5513 13.8428 58.8645 14.0102 59.1628 14.2223C59.4644 14.4311 59.713 14.6996 59.9086 15.0277C60.1041 15.3558 60.2019 15.7585 60.2019 16.2358C60.2019 16.786 60.0577 17.2831 59.7694 17.7273C59.4843 18.1714 59.0667 18.5244 58.5165 18.7862C57.9696 19.0481 57.3051 19.179 56.5229 19.179C55.7937 19.179 55.1623 19.0613 54.6287 18.826C54.0984 18.5907 53.6808 18.2625 53.3759 17.8416C53.0743 17.4207 52.9036 16.9318 52.8638 16.375H54.1365C54.1697 16.7595 54.2989 17.0777 54.5243 17.3295C54.753 17.5781 55.0414 17.7637 55.3894 17.8864C55.7407 18.0057 56.1185 18.0653 56.5229 18.0653C56.9935 18.0653 57.4161 17.9891 57.7907 17.8366C58.1652 17.6809 58.4618 17.4654 58.6806 17.1903C58.8993 16.9119 59.0087 16.5871 59.0087 16.2159C59.0087 15.8778 58.9142 15.6027 58.7253 15.3906C58.5364 15.1785 58.2878 15.0062 57.9796 14.8736C57.6713 14.741 57.3382 14.625 56.9803 14.5256L55.7275 14.1676C54.932 13.9389 54.3023 13.6125 53.8382 13.1882C53.3742 12.764 53.1422 12.2088 53.1422 11.5227C53.1422 10.9527 53.2963 10.4555 53.6046 10.0312C53.9161 9.60369 54.3337 9.27225 54.8574 9.03693C55.3844 8.7983 55.9727 8.67898 56.6223 8.67898C57.2786 8.67898 57.8619 8.79664 58.3723 9.03196C58.8828 9.26397 59.2871 9.58215 59.5854 9.98651C59.887 10.3909 60.0461 10.8499 60.0627 11.3636H58.8695ZM65.2717 19.1591C64.5359 19.1591 63.9012 18.9967 63.3675 18.6719C62.8372 18.3438 62.4279 17.8864 62.1396 17.2997C61.8545 16.7098 61.712 16.0237 61.712 15.2415C61.712 14.4593 61.8545 13.7699 62.1396 13.1733C62.4279 12.5734 62.829 12.1061 63.3427 11.7713C63.8597 11.4332 64.4629 11.2642 65.1523 11.2642C65.5501 11.2642 65.9428 11.3305 66.3306 11.4631C66.7184 11.5956 67.0714 11.8111 67.3896 12.1094C67.7077 12.4044 67.9613 12.7955 68.1502 13.2827C68.3391 13.7699 68.4336 14.3698 68.4336 15.0824V15.5795H62.5472V14.5653H67.2404C67.2404 14.1345 67.1542 13.75 66.9819 13.4119C66.8129 13.0739 66.5709 12.8071 66.256 12.6115C65.9445 12.416 65.5766 12.3182 65.1523 12.3182C64.685 12.3182 64.2807 12.4342 63.9393 12.6662C63.6012 12.8949 63.341 13.1932 63.1587 13.5611C62.9764 13.929 62.8853 14.3234 62.8853 14.7443V15.4205C62.8853 15.9972 62.9847 16.486 63.1836 16.8871C63.3858 17.2848 63.6658 17.5881 64.0238 17.7969C64.3817 18.0024 64.7977 18.1051 65.2717 18.1051C65.5799 18.1051 65.8583 18.062 66.1069 17.9759C66.3588 17.8864 66.5759 17.7538 66.7582 17.5781C66.9405 17.3991 67.0813 17.1771 67.1808 16.9119L68.3143 17.2301C68.195 17.6146 67.9944 17.9527 67.7127 18.2443C67.431 18.5327 67.083 18.758 66.6687 18.9205C66.2544 19.0795 65.7887 19.1591 65.2717 19.1591ZM73.3207 19.1591C72.6048 19.1591 71.9883 18.9901 71.4712 18.652C70.9542 18.3139 70.5565 17.8482 70.2781 17.255C69.9996 16.6617 69.8604 15.9839 69.8604 15.2216C69.8604 14.446 70.003 13.7616 70.288 13.1683C70.5763 12.5717 70.9774 12.1061 71.4911 11.7713C72.0082 11.4332 72.6114 11.2642 73.3008 11.2642C73.8377 11.2642 74.3216 11.3636 74.7525 11.5625C75.1834 11.7614 75.5363 12.0398 75.8114 12.3977C76.0865 12.7557 76.2572 13.1733 76.3235 13.6506H75.1502C75.0607 13.3026 74.8619 12.9943 74.5536 12.7259C74.2487 12.4541 73.8377 12.3182 73.3207 12.3182C72.8633 12.3182 72.4622 12.4375 72.1175 12.6761C71.7762 12.9115 71.5094 13.2446 71.3171 13.6754C71.1282 14.103 71.0337 14.6051 71.0337 15.1818C71.0337 15.7718 71.1265 16.2855 71.3121 16.723C71.5011 17.1605 71.7662 17.5002 72.1076 17.7422C72.4523 17.9841 72.8567 18.1051 73.3207 18.1051C73.6256 18.1051 73.9023 18.0521 74.1509 17.946C74.3995 17.84 74.61 17.6875 74.7823 17.4886C74.9547 17.2898 75.0773 17.0511 75.1502 16.7727H76.3235C76.2572 17.2235 76.0932 17.6295 75.8313 17.9908C75.5728 18.3487 75.2298 18.6338 74.8022 18.8459C74.378 19.0547 73.8841 19.1591 73.3207 19.1591ZM81.141 19.1591C80.4516 19.1591 79.8467 18.995 79.3263 18.6669C78.8093 18.3388 78.4049 17.8797 78.1133 17.2898C77.8249 16.6998 77.6808 16.0104 77.6808 15.2216C77.6808 14.4261 77.8249 13.7318 78.1133 13.1385C78.4049 12.5452 78.8093 12.0845 79.3263 11.7564C79.8467 11.4283 80.4516 11.2642 81.141 11.2642C81.8304 11.2642 82.4336 11.4283 82.9506 11.7564C83.471 12.0845 83.8754 12.5452 84.1637 13.1385C84.4554 13.7318 84.6012 14.4261 84.6012 15.2216C84.6012 16.0104 84.4554 16.6998 84.1637 17.2898C83.8754 17.8797 83.471 18.3388 82.9506 18.6669C82.4336 18.995 81.8304 19.1591 81.141 19.1591ZM81.141 18.1051C81.6647 18.1051 82.0955 17.9709 82.4336 17.7024C82.7717 17.4339 83.0219 17.081 83.1843 16.6435C83.3467 16.206 83.4279 15.732 83.4279 15.2216C83.4279 14.7112 83.3467 14.2356 83.1843 13.7947C83.0219 13.3539 82.7717 12.9976 82.4336 12.7259C82.0955 12.4541 81.6647 12.3182 81.141 12.3182C80.6173 12.3182 80.1864 12.4541 79.8484 12.7259C79.5103 12.9976 79.2601 13.3539 79.0977 13.7947C78.9353 14.2356 78.854 14.7112 78.854 15.2216C78.854 15.732 78.9353 16.206 79.0977 16.6435C79.2601 17.081 79.5103 17.4339 79.8484 17.7024C80.1864 17.9709 80.6173 18.1051 81.141 18.1051ZM87.5655 14.4062V19H86.3922V11.3636H87.5257V12.5568H87.6252C87.8042 12.169 88.0759 11.8575 88.4405 11.6222C88.8051 11.3835 89.2757 11.2642 89.8525 11.2642C90.3695 11.2642 90.8219 11.3703 91.2097 11.5824C91.5975 11.7912 91.8991 12.1094 92.1145 12.5369C92.33 12.9612 92.4377 13.4981 92.4377 14.1477V19H91.2644V14.2273C91.2644 13.6274 91.1086 13.16 90.7971 12.8253C90.4855 12.4872 90.0579 12.3182 89.5144 12.3182C89.1399 12.3182 88.8051 12.3994 88.5101 12.5618C88.2185 12.7242 87.9881 12.9612 87.8191 13.2727C87.65 13.5843 87.5655 13.9621 87.5655 14.4062ZM97.4652 19.1591C96.8288 19.1591 96.267 18.9983 95.7798 18.6768C95.2926 18.352 94.9115 17.8946 94.6364 17.3047C94.3613 16.7114 94.2237 16.0104 94.2237 15.2017C94.2237 14.3996 94.3613 13.7036 94.6364 13.1136C94.9115 12.5237 95.2943 12.0679 95.7848 11.7464C96.2753 11.425 96.8421 11.2642 97.4851 11.2642C97.9822 11.2642 98.375 11.3471 98.6634 11.5128C98.955 11.6752 99.1771 11.8608 99.3295 12.0696C99.4853 12.2751 99.6063 12.4441 99.6925 12.5767H99.7919V8.81818H100.965V19H99.8317V17.8267H99.6925C99.6063 17.9659 99.4837 18.1416 99.3246 18.3537C99.1655 18.5625 98.9384 18.7498 98.6435 18.9155C98.3485 19.0779 97.9557 19.1591 97.4652 19.1591ZM97.6243 18.1051C98.0949 18.1051 98.4927 17.9825 98.8175 17.7372C99.1423 17.4886 99.3892 17.1456 99.5582 16.7081C99.7273 16.2673 99.8118 15.7585 99.8118 15.1818C99.8118 14.6117 99.7289 14.1129 99.5632 13.6854C99.3975 13.2545 99.1522 12.9197 98.8274 12.6811C98.5026 12.4392 98.1016 12.3182 97.6243 12.3182C97.1271 12.3182 96.7128 12.4458 96.3814 12.701C96.0533 12.9529 95.8063 13.2959 95.6406 13.7301C95.4782 14.161 95.397 14.6449 95.397 15.1818C95.397 15.7254 95.4799 16.2192 95.6456 16.6634C95.8146 17.1042 96.0632 17.4555 96.3913 17.7173C96.7228 17.9759 97.1338 18.1051 97.6243 18.1051ZM115.567 12H114.334C114.261 11.6454 114.133 11.3338 113.951 11.0653C113.772 10.7969 113.553 10.5715 113.295 10.3892C113.04 10.2036 112.756 10.0644 112.445 9.97159C112.133 9.87879 111.808 9.83239 111.47 9.83239C110.854 9.83239 110.295 9.98816 109.795 10.2997C109.298 10.6113 108.902 11.0703 108.607 11.6768C108.315 12.2834 108.169 13.0275 108.169 13.9091C108.169 14.7907 108.315 15.5348 108.607 16.1413C108.902 16.7479 109.298 17.2069 109.795 17.5185C110.295 17.83 110.854 17.9858 111.47 17.9858C111.808 17.9858 112.133 17.9394 112.445 17.8466C112.756 17.7538 113.04 17.6162 113.295 17.4339C113.553 17.2483 113.772 17.0213 113.951 16.7528C114.133 16.4811 114.261 16.1695 114.334 15.8182H115.567C115.474 16.3385 115.305 16.8042 115.06 17.2152C114.814 17.6262 114.509 17.9759 114.145 18.2642C113.78 18.5492 113.371 18.7663 112.917 18.9155C112.466 19.0646 111.984 19.1392 111.47 19.1392C110.602 19.1392 109.83 18.9271 109.153 18.5028C108.477 18.0786 107.945 17.4754 107.558 16.6932C107.17 15.911 106.976 14.983 106.976 13.9091C106.976 12.8352 107.17 11.9072 107.558 11.125C107.945 10.3428 108.477 9.73958 109.153 9.31534C109.83 8.8911 110.602 8.67898 111.47 8.67898C111.984 8.67898 112.466 8.75355 112.917 8.9027C113.371 9.05185 113.78 9.2706 114.145 9.55895C114.509 9.84399 114.814 10.192 115.06 10.603C115.305 11.0107 115.474 11.4763 115.567 12ZM119.647 19.179C119.163 19.179 118.724 19.0878 118.33 18.9055C117.935 18.7199 117.622 18.4531 117.39 18.1051C117.158 17.7538 117.042 17.3295 117.042 16.8324C117.042 16.3949 117.128 16.0402 117.301 15.7685C117.473 15.4934 117.703 15.2779 117.992 15.1222C118.28 14.9664 118.598 14.8504 118.946 14.7741C119.298 14.6946 119.651 14.6316 120.005 14.5852C120.469 14.5256 120.845 14.4808 121.134 14.451C121.425 14.4179 121.637 14.3632 121.77 14.2869C121.906 14.2107 121.974 14.0781 121.974 13.8892V13.8494C121.974 13.3589 121.84 12.9777 121.571 12.706C121.306 12.4342 120.903 12.2983 120.363 12.2983C119.803 12.2983 119.364 12.4209 119.046 12.6662C118.727 12.9115 118.504 13.1733 118.374 13.4517L117.261 13.054C117.46 12.59 117.725 12.2287 118.056 11.9702C118.391 11.7083 118.756 11.526 119.15 11.4233C119.548 11.3172 119.939 11.2642 120.323 11.2642C120.569 11.2642 120.85 11.294 121.169 11.3537C121.49 11.41 121.8 11.5277 122.098 11.7067C122.4 11.8857 122.65 12.1558 122.849 12.517C123.048 12.8783 123.147 13.3622 123.147 13.9688V19H121.974V17.9659H121.914C121.835 18.1316 121.702 18.3089 121.517 18.4979C121.331 18.6868 121.084 18.8475 120.776 18.9801C120.468 19.1127 120.091 19.179 119.647 19.179ZM119.826 18.125C120.29 18.125 120.681 18.0339 120.999 17.8516C121.321 17.6693 121.563 17.4339 121.725 17.1456C121.891 16.8572 121.974 16.554 121.974 16.2358V15.1619C121.924 15.2216 121.815 15.2763 121.646 15.326C121.48 15.3724 121.288 15.4138 121.069 15.4503C120.854 15.4834 120.643 15.5133 120.438 15.5398C120.235 15.563 120.071 15.5829 119.945 15.5994C119.641 15.6392 119.356 15.7038 119.09 15.7933C118.829 15.8795 118.616 16.0104 118.454 16.1861C118.295 16.3584 118.215 16.5937 118.215 16.892C118.215 17.2997 118.366 17.608 118.668 17.8168C118.973 18.0223 119.359 18.125 119.826 18.125ZM126.462 14.4062V19H125.289V11.3636H126.422V12.5568H126.522C126.701 12.169 126.972 11.8575 127.337 11.6222C127.702 11.3835 128.172 11.2642 128.749 11.2642C129.266 11.2642 129.718 11.3703 130.106 11.5824C130.494 11.7912 130.796 12.1094 131.011 12.5369C131.226 12.9612 131.334 13.4981 131.334 14.1477V19H130.161V14.2273C130.161 13.6274 130.005 13.16 129.694 12.8253C129.382 12.4872 128.954 12.3182 128.411 12.3182C128.036 12.3182 127.702 12.3994 127.407 12.5618C127.115 12.7242 126.885 12.9612 126.716 13.2727C126.547 13.5843 126.462 13.9621 126.462 14.4062ZM136.58 19.1591C135.865 19.1591 135.248 18.9901 134.731 18.652C134.214 18.3139 133.816 17.8482 133.538 17.255C133.259 16.6617 133.12 15.9839 133.12 15.2216C133.12 14.446 133.263 13.7616 133.548 13.1683C133.836 12.5717 134.237 12.1061 134.751 11.7713C135.268 11.4332 135.871 11.2642 136.561 11.2642C137.097 11.2642 137.581 11.3636 138.012 11.5625C138.443 11.7614 138.796 12.0398 139.071 12.3977C139.346 12.7557 139.517 13.1733 139.583 13.6506H138.41C138.32 13.3026 138.122 12.9943 137.813 12.7259C137.508 12.4541 137.097 12.3182 136.58 12.3182C136.123 12.3182 135.722 12.4375 135.377 12.6761C135.036 12.9115 134.769 13.2446 134.577 13.6754C134.388 14.103 134.294 14.6051 134.294 15.1818C134.294 15.7718 134.386 16.2855 134.572 16.723C134.761 17.1605 135.026 17.5002 135.367 17.7422C135.712 17.9841 136.116 18.1051 136.58 18.1051C136.885 18.1051 137.162 18.0521 137.411 17.946C137.659 17.84 137.87 17.6875 138.042 17.4886C138.214 17.2898 138.337 17.0511 138.41 16.7727H139.583C139.517 17.2235 139.353 17.6295 139.091 17.9908C138.833 18.3487 138.49 18.6338 138.062 18.8459C137.638 19.0547 137.144 19.1591 136.58 19.1591ZM144.5 19.1591C143.764 19.1591 143.13 18.9967 142.596 18.6719C142.066 18.3438 141.656 17.8864 141.368 17.2997C141.083 16.7098 140.941 16.0237 140.941 15.2415C140.941 14.4593 141.083 13.7699 141.368 13.1733C141.656 12.5734 142.057 12.1061 142.571 11.7713C143.088 11.4332 143.691 11.2642 144.381 11.2642C144.779 11.2642 145.171 11.3305 145.559 11.4631C145.947 11.5956 146.3 11.8111 146.618 12.1094C146.936 12.4044 147.19 12.7955 147.379 13.2827C147.568 13.7699 147.662 14.3698 147.662 15.0824V15.5795H141.776V14.5653H146.469C146.469 14.1345 146.383 13.75 146.21 13.4119C146.041 13.0739 145.799 12.8071 145.485 12.6115C145.173 12.416 144.805 12.3182 144.381 12.3182C143.914 12.3182 143.509 12.4342 143.168 12.6662C142.83 12.8949 142.57 13.1932 142.387 13.5611C142.205 13.929 142.114 14.3234 142.114 14.7443V15.4205C142.114 15.9972 142.213 16.486 142.412 16.8871C142.614 17.2848 142.894 17.5881 143.252 17.7969C143.61 18.0024 144.026 18.1051 144.5 18.1051C144.808 18.1051 145.087 18.062 145.335 17.9759C145.587 17.8864 145.804 17.7538 145.987 17.5781C146.169 17.3991 146.31 17.1771 146.409 16.9119L147.543 17.2301C147.423 17.6146 147.223 17.9527 146.941 18.2443C146.66 18.5327 146.311 18.758 145.897 18.9205C145.483 19.0795 145.017 19.1591 144.5 19.1591ZM150.62 8.81818V19H149.447V8.81818H150.62ZM153.942 8.81818V19H152.769V8.81818H153.942ZM158.339 19.179C157.855 19.179 157.416 19.0878 157.021 18.9055C156.627 18.7199 156.314 18.4531 156.081 18.1051C155.849 17.7538 155.733 17.3295 155.733 16.8324C155.733 16.3949 155.82 16.0402 155.992 15.7685C156.164 15.4934 156.395 15.2779 156.683 15.1222C156.971 14.9664 157.29 14.8504 157.638 14.7741C157.989 14.6946 158.342 14.6316 158.697 14.5852C159.161 14.5256 159.537 14.4808 159.825 14.451C160.117 14.4179 160.329 14.3632 160.461 14.2869C160.597 14.2107 160.665 14.0781 160.665 13.8892V13.8494C160.665 13.3589 160.531 12.9777 160.263 12.706C159.997 12.4342 159.595 12.2983 159.055 12.2983C158.494 12.2983 158.055 12.4209 157.737 12.6662C157.419 12.9115 157.195 13.1733 157.066 13.4517L155.952 13.054C156.151 12.59 156.416 12.2287 156.748 11.9702C157.082 11.7083 157.447 11.526 157.841 11.4233C158.239 11.3172 158.63 11.2642 159.015 11.2642C159.26 11.2642 159.542 11.294 159.86 11.3537C160.181 11.41 160.491 11.5277 160.79 11.7067C161.091 11.8857 161.341 12.1558 161.54 12.517C161.739 12.8783 161.839 13.3622 161.839 13.9688V19H160.665V17.9659H160.606C160.526 18.1316 160.394 18.3089 160.208 18.4979C160.022 18.6868 159.775 18.8475 159.467 18.9801C159.159 19.1127 158.783 19.179 158.339 19.179ZM158.518 18.125C158.982 18.125 159.373 18.0339 159.691 17.8516C160.012 17.6693 160.254 17.4339 160.417 17.1456C160.582 16.8572 160.665 16.554 160.665 16.2358V15.1619C160.616 15.2216 160.506 15.2763 160.337 15.326C160.171 15.3724 159.979 15.4138 159.76 15.4503C159.545 15.4834 159.335 15.5133 159.129 15.5398C158.927 15.563 158.763 15.5829 158.637 15.5994C158.332 15.6392 158.047 15.7038 157.782 15.7933C157.52 15.8795 157.308 16.0104 157.145 16.1861C156.986 16.3584 156.907 16.5937 156.907 16.892C156.907 17.2997 157.058 17.608 157.359 17.8168C157.664 18.0223 158.05 18.125 158.518 18.125ZM167.301 11.3636V12.358H163.344V11.3636H167.301ZM164.497 9.53409H165.67V16.8125C165.67 17.1439 165.719 17.3925 165.815 17.5582C165.914 17.7206 166.04 17.83 166.192 17.8864C166.348 17.9394 166.512 17.9659 166.685 17.9659C166.814 17.9659 166.92 17.9593 167.003 17.946C167.086 17.9295 167.152 17.9162 167.202 17.9062L167.44 18.9602C167.361 18.9901 167.25 19.0199 167.107 19.0497C166.965 19.0829 166.784 19.0994 166.565 19.0994C166.234 19.0994 165.909 19.0282 165.591 18.8857C165.276 18.7431 165.014 18.526 164.805 18.2344C164.6 17.9427 164.497 17.5748 164.497 17.1307V9.53409ZM169.066 19V11.3636H170.239V19H169.066ZM169.663 10.0909C169.434 10.0909 169.237 10.013 169.071 9.85724C168.909 9.70147 168.827 9.5142 168.827 9.29545C168.827 9.0767 168.909 8.88944 169.071 8.73366C169.237 8.57789 169.434 8.5 169.663 8.5C169.891 8.5 170.087 8.57789 170.249 8.73366C170.415 8.88944 170.498 9.0767 170.498 9.29545C170.498 9.5142 170.415 9.70147 170.249 9.85724C170.087 10.013 169.891 10.0909 169.663 10.0909ZM175.491 19.1591C174.801 19.1591 174.196 18.995 173.676 18.6669C173.159 18.3388 172.755 17.8797 172.463 17.2898C172.175 16.6998 172.03 16.0104 172.03 15.2216C172.03 14.4261 172.175 13.7318 172.463 13.1385C172.755 12.5452 173.159 12.0845 173.676 11.7564C174.196 11.4283 174.801 11.2642 175.491 11.2642C176.18 11.2642 176.783 11.4283 177.3 11.7564C177.821 12.0845 178.225 12.5452 178.513 13.1385C178.805 13.7318 178.951 14.4261 178.951 15.2216C178.951 16.0104 178.805 16.6998 178.513 17.2898C178.225 17.8797 177.821 18.3388 177.3 18.6669C176.783 18.995 176.18 19.1591 175.491 19.1591ZM175.491 18.1051C176.014 18.1051 176.445 17.9709 176.783 17.7024C177.121 17.4339 177.372 17.081 177.534 16.6435C177.696 16.206 177.778 15.732 177.778 15.2216C177.778 14.7112 177.696 14.2356 177.534 13.7947C177.372 13.3539 177.121 12.9976 176.783 12.7259C176.445 12.4541 176.014 12.3182 175.491 12.3182C174.967 12.3182 174.536 12.4541 174.198 12.7259C173.86 12.9976 173.61 13.3539 173.447 13.7947C173.285 14.2356 173.204 14.7112 173.204 15.2216C173.204 15.732 173.285 16.206 173.447 16.6435C173.61 17.081 173.86 17.4339 174.198 17.7024C174.536 17.9709 174.967 18.1051 175.491 18.1051ZM181.915 14.4062V19H180.742V11.3636H181.875V12.5568H181.975C182.154 12.169 182.426 11.8575 182.79 11.6222C183.155 11.3835 183.625 11.2642 184.202 11.2642C184.719 11.2642 185.172 11.3703 185.559 11.5824C185.947 11.7912 186.249 12.1094 186.464 12.5369C186.68 12.9612 186.787 13.4981 186.787 14.1477V19H185.614V14.2273C185.614 13.6274 185.458 13.16 185.147 12.8253C184.835 12.4872 184.408 12.3182 183.864 12.3182C183.489 12.3182 183.155 12.3994 182.86 12.5618C182.568 12.7242 182.338 12.9612 182.169 13.2727C182 13.5843 181.915 13.9621 181.915 14.4062Z" fill="#191919"/>
<circle cx="15" cy="14" r="10" fill="#FFA500"/>
<path d="M21.6613 11.4592C21.4441 10.9779 21.1309 10.5418 20.7392 10.1753C20.3472 9.80769 19.8851 9.51555 19.3779 9.31477C18.852 9.10575 18.288 8.99876 17.7185 9.00001C16.9195 9.00001 16.1401 9.20933 15.4627 9.60472C15.3006 9.6993 15.1467 9.80319 15.0008 9.91638C14.855 9.80319 14.701 9.6993 14.5389 9.60472C13.8616 9.20933 13.0821 9.00001 12.2831 9.00001C11.7078 9.00001 11.1504 9.10545 10.6237 9.31477C10.1148 9.51634 9.65621 9.80629 9.26241 10.1753C8.87023 10.5414 8.55695 10.9776 8.34032 11.4592C8.11506 11.96 8 12.4918 8 13.0392C8 13.5555 8.1102 14.0935 8.32897 14.6409C8.5121 15.0983 8.77463 15.5727 9.11008 16.0519C9.64162 16.8101 10.3725 17.6008 11.28 18.4025C12.7839 19.7313 14.2732 20.6492 14.3364 20.6864L14.7204 20.9221C14.8906 21.026 15.1094 21.026 15.2795 20.9221L15.6636 20.6864C15.7268 20.6476 17.2145 19.7313 18.72 18.4025C19.6275 17.6008 20.3584 16.8101 20.8899 16.0519C21.2254 15.5727 21.4895 15.0983 21.671 14.6409C21.8898 14.0935 22 13.5555 22 13.0392C22.0016 12.4918 21.8865 11.96 21.6613 11.4592Z" fill="#FDC55E"/>
</svg>
