<svg width="56" height="57" viewBox="0 0 56 57" fill="none" xmlns="http://www.w3.org/2000/svg">
<g clip-path="url(#clip0_51532_1033)">
<path d="M37.5667 37.5416H18.6084V50.4916H37.5667V37.5416Z" fill="#A6C44A"/>
<path d="M42.5833 12.1666C42.35 12.1666 42.0583 12.1666 41.825 12.225C40.0166 6.39163 34.1833 2.1333 27.2416 2.1333C21.1166 2.1333 15.8083 5.4583 13.4166 10.3C6.76662 11 1.57495 16.1916 1.57495 22.55C1.57495 29.375 7.64162 34.975 15.0499 34.975C19.4833 34.975 23.45 32.9916 25.9 29.9583C26.3083 30.0166 26.775 30.0166 27.2416 30.0166C29.1666 30.0166 31.0333 29.6666 32.7833 29.025C34.8833 31.9416 38.5 33.8666 42.6416 33.8666C49.1749 33.8666 54.4833 29.025 54.4833 23.0166C54.4833 17.0083 49.1166 12.1666 42.5833 12.1666Z" fill="#F8B602"/>
<path d="M15.1082 36.0833C6.99989 36.0833 0.466553 30.0167 0.466553 22.55C0.466553 15.9 5.71655 10.2417 12.7166 9.19167C15.4582 4.17501 21.1166 0.966675 27.2416 0.966675C34.1832 0.966675 40.3666 5.05001 42.6415 11.0583C49.7582 11.0583 55.5916 16.425 55.5916 23.075C55.5916 29.6667 49.7582 35.0917 42.6415 35.0917C38.6166 35.0917 34.8249 33.3417 32.3749 30.425C30.6832 30.95 28.9916 31.1833 27.2416 31.1833C26.9499 31.1833 26.6582 31.1833 26.4249 31.1833C23.6249 34.275 19.5416 36.0833 15.1082 36.0833ZM27.2416 3.24167C21.7582 3.24167 16.7416 6.21668 14.4666 10.7667L14.1749 11.35L13.5332 11.4083C7.40822 12.1083 2.74155 16.8917 2.74155 22.55C2.74155 28.7333 8.28322 33.8083 15.1082 33.8083C19.0749 33.8083 22.6916 32.1167 25.0249 29.2L25.4332 28.7333L26.0166 28.7917C26.3666 28.7917 26.7749 28.85 27.2416 28.85C28.9916 28.85 30.7416 28.5583 32.3749 27.975L33.1916 27.6833L33.7166 28.3833C35.6999 31.125 39.0249 32.7583 42.6415 32.7583C48.5332 32.7583 53.3166 28.3833 53.3166 23.075C53.3166 17.7667 48.4749 13.3333 42.5832 13.3333C42.4082 13.3333 42.2332 13.3333 42.0582 13.3333L41.0082 13.3917L40.7166 12.5167C39.0249 7.09168 33.4832 3.24167 27.2416 3.24167Z" fill="#2E2E2E"/>
<path d="M42.35 56.0333H13.65L7.9917 31.9417L10.0334 32.8167C11.6667 33.4584 13.3584 33.8083 15.1084 33.8083C19.075 33.8083 22.6917 32.1167 25.025 29.2L25.4334 28.7334L26.0167 28.7917C26.3667 28.7917 26.775 28.85 27.2417 28.85C28.9917 28.85 30.7417 28.5583 32.375 27.975L33.1917 27.6833L33.7167 28.3834C35.7 31.125 39.025 32.7583 42.6417 32.7583C43.8667 32.7583 45.0917 32.5833 46.2584 32.175L48.1834 31.5334L42.35 56.0333ZM15.4584 53.7584H40.6L45.0917 34.8C44.275 34.9167 43.4584 35.0334 42.6417 35.0334C38.6167 35.0334 34.825 33.2834 32.375 30.3667C30.6834 30.8917 28.9917 31.125 27.2417 31.125C26.95 31.125 26.6584 31.125 26.425 31.125C23.625 34.275 19.5417 36.0834 15.1084 36.0834C13.7667 36.0834 12.425 35.9084 11.2 35.6167L15.4584 53.7584Z" fill="#2E2E2E"/>
<path d="M23.5667 39.9333H21.2917V47.575H23.5667V39.9333Z" fill="#2E2E2E"/>
<path d="M29.2249 39.9333H26.95V47.575H29.2249V39.9333Z" fill="#2E2E2E"/>
<path d="M34.8251 39.9333H32.55V47.575H34.8251V39.9333Z" fill="#2E2E2E"/>
<path d="M13.5617 28.34L11.7327 26.6235L10.1759 28.2825L12.0049 29.9989L13.5617 28.34Z" fill="#2E2E2E"/>
<path d="M15.3772 18.1127L13.5481 16.3962L11.9913 18.0552L13.8204 19.7716L15.3772 18.1127Z" fill="#2E2E2E"/>
<path d="M44.6504 18.9808L42.8215 17.264L41.2645 18.9227L43.0933 20.6395L44.6504 18.9808Z" fill="#2E2E2E"/>
<path d="M35.3825 21.2482L33.5535 19.5317L31.9967 21.1907L33.8257 22.9071L35.3825 21.2482Z" fill="#2E2E2E"/>
<path d="M47.3567 27.4414L45.5276 25.725L43.9708 27.3839L45.7999 29.1004L47.3567 27.4414Z" fill="#2E2E2E"/>
<path d="M24.1421 22.9562L22.313 21.2397L20.7562 22.8987L22.5853 24.6151L24.1421 22.9562Z" fill="#2E2E2E"/>
<path d="M25.8274 12.9652L23.9983 11.2488L22.4415 12.9077L24.2706 14.6242L25.8274 12.9652Z" fill="#2E2E2E"/>
<path d="M34.4965 10.1941L32.6675 8.47766L31.1107 10.1366L32.9398 11.853L34.4965 10.1941Z" fill="#2E2E2E"/>
</g>
<defs>
<clipPath id="clip0_51532_1033">
<rect width="56" height="56" fill="white" transform="translate(0 0.5)"/>
</clipPath>
</defs>
</svg>
