<svg width="56" height="57" viewBox="0 0 56 57" fill="none" xmlns="http://www.w3.org/2000/svg">
<path d="M55.7084 25.4084H0.291748V24.2417C0.291748 13.7417 12.1334 1.95837 28.0001 1.95837C43.8668 1.95837 55.7084 13.7417 55.7084 24.2417V25.4084ZM2.68341 23.075H53.3751C52.5001 13.975 41.9417 4.23337 28.0001 4.23337C14.0584 4.23337 3.50008 13.975 2.68341 23.075Z" fill="#2E2E2E"/>
<path d="M9.09992 18.4667C12.3666 13.3334 19.5999 8.90002 27.9999 8.90002C36.3999 8.90002 43.5749 13.3334 46.8999 18.4667H9.09992ZM52.3249 53.875H3.67492C2.44992 53.875 1.45825 52.8834 1.45825 51.6584V44.1917H54.5416V51.6584C54.5416 52.8834 53.5499 53.875 52.3249 53.875Z" fill="#A6C44A"/>
<path d="M52.3251 55.0417H3.67508C1.80841 55.0417 0.291748 53.525 0.291748 51.6584V43.0834H55.7084V51.7167C55.7084 53.525 54.1917 55.0417 52.3251 55.0417ZM2.62508 45.3584V51.6584C2.62508 52.2417 3.09175 52.7084 3.67508 52.7084H52.3834C52.9668 52.7084 53.4334 52.2417 53.4334 51.6584V45.3584H2.62508Z" fill="#2E2E2E"/>
<path d="M49.5249 39.1749H6.47492C3.67492 39.1749 1.45825 36.8999 1.45825 34.1583C1.45825 31.3583 3.73325 29.1416 6.47492 29.1416H49.5249C52.3249 29.1416 54.5416 31.4166 54.5416 34.1583C54.5416 36.9583 52.3249 39.1749 49.5249 39.1749Z" fill="#F8B602"/>
<path d="M49.5251 40.3416H6.47508C3.03342 40.3416 0.291748 37.5416 0.291748 34.1583C0.291748 30.775 3.09175 27.975 6.47508 27.975H49.5251C52.9668 27.975 55.7084 30.775 55.7084 34.1583C55.7084 37.5416 52.9084 40.3416 49.5251 40.3416ZM6.47508 30.25C4.31675 30.25 2.56675 32 2.56675 34.1583C2.56675 36.3166 4.31675 38.0666 6.47508 38.0666H49.5251C51.6834 38.0666 53.4334 36.3166 53.4334 34.1583C53.4334 32 51.6834 30.25 49.5251 30.25H6.47508Z" fill="#F8B602"/>
<path d="M30.7999 36.3167C29.6916 36.3167 28.6999 35.9083 27.7666 35.5583C27.0082 35.2667 26.3082 34.975 25.6666 34.975C24.9082 34.9167 24.0332 35.2083 23.1582 35.4417C21.8166 35.85 20.2999 36.3167 18.7832 35.7917C18.3166 35.6167 17.9082 35.3833 17.5582 35.2083C17.3249 35.0917 17.0916 34.9167 16.8582 34.8583C15.7499 34.3917 14.4082 34.6833 12.9499 35.0333L12.5416 35.15C10.8499 35.5 8.3999 35.85 6.6499 34.3333L8.16657 32.5833C8.9249 33.225 10.1499 33.3417 12.0749 32.9333L12.4832 32.8167C14.1166 32.4667 15.9832 32.0583 17.7916 32.7583C18.1416 32.9333 18.4332 33.1083 18.7832 33.225C19.0749 33.4 19.3666 33.575 19.5999 33.6333C20.4166 33.925 21.4082 33.6333 22.5749 33.2833C23.6249 32.9917 24.6749 32.6417 25.8999 32.7C26.9499 32.7583 27.8249 33.1083 28.6999 33.4583C29.6332 33.8083 30.5082 34.1583 31.2666 34.0417C31.5582 33.9833 31.9082 33.8667 32.3166 33.6917C32.4916 33.6333 32.6082 33.575 32.7832 33.5167C34.5332 32.8167 36.5749 32.6417 38.4416 33.05C38.7332 33.1083 39.0832 33.1667 39.3749 33.2833C39.9582 33.4583 40.5416 33.575 41.0666 33.575C41.8249 33.575 42.6416 33.225 43.4582 32.9333C43.8082 32.8167 44.1582 32.6417 44.5082 32.525C46.4916 31.825 48.2416 32 49.4082 32.9917L47.8916 34.7417C47.1332 34.1 45.7916 34.5083 45.2082 34.6833C44.9166 34.8 44.5666 34.9167 44.2749 35.0333C43.2832 35.4417 42.2332 35.85 41.0082 35.85C41.0082 35.85 41.0082 35.85 40.9499 35.85C40.1332 35.85 39.3749 35.675 38.6749 35.5C38.3832 35.4417 38.1499 35.3833 37.8582 35.325C36.3999 35.0333 34.8832 35.15 33.5416 35.675C33.4249 35.7333 33.2499 35.7917 33.1332 35.85C32.6666 36.025 32.1999 36.2583 31.6166 36.3167C31.3249 36.2583 31.0916 36.3167 30.7999 36.3167Z" fill="#2E2E2E"/>
<path d="M9.11775 19.0613L7.7644 17.1605L6.0062 18.4124L7.35955 20.3131L9.11775 19.0613Z" fill="#2E2E2E"/>
<path d="M40.0946 11.8803L38.741 9.97974L36.9829 11.2318L38.3366 13.1324L40.0946 11.8803Z" fill="#2E2E2E"/>
<path d="M34.5035 9.53797L33.1501 7.63721L31.3919 8.88905L32.7453 10.7898L34.5035 9.53797Z" fill="#2E2E2E"/>
<path d="M13.4828 14.6626L11.9265 12.9241L10.8834 13.8578L12.4397 15.5964L13.4828 14.6626Z" fill="#2E2E2E"/>
<path d="M21.0214 10.9073L20.1235 8.75366L18.4544 9.4495L19.3523 11.6032L21.0214 10.9073Z" fill="#2E2E2E"/>
<path d="M15.4573 20.0792L14.4673 17.9663L13.2524 18.5356L14.2424 20.6485L15.4573 20.0792Z" fill="#2E2E2E"/>
<path d="M26.6583 9.7167L25.1999 7.90837C25.8999 7.32503 26.7749 6.9167 27.6499 6.7417L28.1749 8.95837C27.5916 9.13337 27.0666 9.3667 26.6583 9.7167ZM17.7916 16.5417L17.2083 14.325C17.7333 14.2084 18.2583 13.975 18.7249 13.7417L19.7749 15.7834C19.1333 16.075 18.4916 16.3084 17.7916 16.5417Z" fill="#2E2E2E"/>
<path d="M30.8663 19.6824L30.1248 17.4701L28.1889 18.119L28.9305 20.3313L30.8663 19.6824Z" fill="#2E2E2E"/>
<path d="M42.6122 20.4088L41.8706 18.1964L39.9348 18.8453L40.6764 21.0576L42.6122 20.4088Z" fill="#2E2E2E"/>
<path d="M35.6417 20.8583L34.7084 18.7583C35.2917 18.525 35.8751 18.2917 36.4584 18.175L36.9251 20.45C36.4584 20.5667 35.9917 20.6833 35.6417 20.8583ZM32.6667 16.3667L31.7334 14.2667C32.3167 14.0333 32.9001 13.8583 33.4834 13.6833L33.9501 15.9583C33.4834 16.0167 33.0751 16.1917 32.6667 16.3667Z" fill="#2E2E2E"/>
<path d="M26.9311 14.8917L26.187 12.6802L24.8601 13.1266L25.6042 15.3381L26.9311 14.8917Z" fill="#2E2E2E"/>
<path d="M16.0246 12.0402L15.2795 9.82898L13.9528 10.276L14.6979 12.4872L16.0246 12.0402Z" fill="#2E2E2E"/>
<path d="M24.0144 20.508L23.2693 18.2969L21.9426 18.7439L22.6877 20.9551L24.0144 20.508Z" fill="#2E2E2E"/>
<path d="M48.1247 18.7559L47.3806 16.5444L46.0537 16.9909L46.7978 19.2024L48.1247 18.7559Z" fill="#2E2E2E"/>
<path d="M43.9296 16.2154L43.1855 14.0039L41.8586 14.4504L42.6027 16.6619L43.9296 16.2154Z" fill="#2E2E2E"/>
</svg>
