<svg width="56" height="57" viewBox="0 0 56 57" fill="none" xmlns="http://www.w3.org/2000/svg">
<path d="M14.4082 55.625C9.97491 55.625 5.54157 54.05 2.79991 50.4917C0.408241 47.4 -0.291759 43.2583 0.699907 38.7667C1.63324 34.6833 3.96657 30.8333 6.99991 28.5583C11.9582 24.7667 35.0582 13.2167 41.1832 21.2083C43.8082 24.7083 42.5249 30.6 37.4499 38.2417C33.4832 44.1917 28.1166 49.9083 25.0832 52.1833C22.2249 54.4 18.3166 55.625 14.4082 55.625ZM34.0082 20.6833C26.0749 20.6833 12.8916 26.9833 8.39991 30.3667C5.83324 32.35 3.79157 35.675 2.97491 39.2333C2.09991 43.025 2.74157 46.525 4.66657 49.0917C8.92491 54.6334 18.4916 54.3417 23.6832 50.4333C26.5999 48.2167 31.8499 42.5583 35.5249 37.0167C39.9582 30.3083 41.2999 25.2333 39.3166 22.6083C38.2666 21.2667 36.3416 20.6833 34.0082 20.6833Z" fill="#2E2E2E"/>
<path d="M14.4667 49.85C11.375 49.85 8.80837 48.8 7.40837 46.9917C6.12504 45.3 5.71671 42.7334 6.35837 40.05C6.94171 37.25 8.51671 34.625 10.5 33.1667C14.6417 30.0167 27.0667 24.1833 34.0084 24.1833C35.8167 24.1833 36.5167 24.5917 36.6334 24.7084C36.9834 25.1167 37.275 28.15 32.6667 35.0917C28.8167 40.8084 23.7417 46 21.525 47.6917C19.775 49.0334 17.0917 49.85 14.4667 49.85Z" fill="#F8B602"/>
<path d="M53.7251 16.8333C53.2584 16.1916 52.6751 15.725 52.0334 15.375C50.8084 14.7333 49.8751 13.5666 49.6417 12.225C49.4667 11.525 49.1751 10.825 48.7084 10.2416C47.2501 8.43329 44.2751 8.02495 42.3501 9.36662C40.1917 10.8833 39.7251 13.9166 41.3001 16.0166C41.7084 16.5416 41.6501 17.3 41.1251 17.65L37.8584 20.1583C38.7917 20.5666 39.6084 21.0916 40.1917 21.9083C40.7751 22.6666 41.1251 23.6 41.2417 24.5916L44.5084 22.0833C45.0334 21.675 45.7334 21.7916 46.1417 22.3166C47.7751 24.4166 50.8084 24.7666 52.8501 23.075C54.7167 21.675 55.0667 18.7 53.7251 16.8333Z" fill="#A6C44A"/>
<path d="M40.3666 26.75L40.1333 24.7667C40.0166 23.8917 39.7833 23.1917 39.3166 22.6084C38.8499 22.025 38.2666 21.5584 37.4499 21.2667L35.5833 20.5084L40.4833 16.775L40.4249 16.7167C39.4333 15.4334 39.0249 13.8584 39.3166 12.2834C39.5499 10.7084 40.4249 9.30835 41.7083 8.37502C44.0999 6.68335 47.7166 7.15002 49.5833 9.48335C50.1666 10.2417 50.5749 11.0584 50.7499 11.9334C50.9833 12.9834 51.6249 13.8584 52.5583 14.325C53.3749 14.7334 54.0749 15.375 54.6583 16.1334C56.4083 18.525 55.8833 22.1417 53.6083 24.0084C52.3833 25.0584 50.8083 25.4667 49.2333 25.2917C47.6583 25.1167 46.2583 24.3 45.2666 23.0167L45.2083 22.9584L40.3666 26.75ZM45.2083 20.7417C45.3249 20.7417 45.4416 20.7417 45.4999 20.7417C46.1416 20.8 46.6666 21.15 47.0749 21.675C47.6583 22.4334 48.5333 22.9584 49.4666 23.075C50.4583 23.1917 51.3916 22.9 52.1499 22.2584C53.4916 21.15 53.7833 18.875 52.7916 17.475C52.4416 17.0084 52.0333 16.6584 51.5666 16.3667C49.9916 15.55 48.8833 14.15 48.5333 12.4C48.4166 11.875 48.1833 11.35 47.8333 10.8834C46.7249 9.54169 44.4499 9.25002 43.0499 10.2417C42.2333 10.825 41.7083 11.6417 41.5916 12.575C41.4166 13.5084 41.7083 14.5 42.2916 15.2584C42.6999 15.7834 42.8749 16.3667 42.7583 17.0084C42.6999 17.5917 42.3499 18.175 41.8833 18.525L40.0166 19.9834C40.4833 20.3334 40.8333 20.6834 41.1833 21.15C41.5333 21.6167 41.7666 22.0834 41.9999 22.6084L43.8666 21.15C44.2749 20.9167 44.7416 20.7417 45.2083 20.7417Z" fill="#2E2E2E"/>
<path d="M7.90391 37.1416L6.22729 36.9164L5.91668 39.229L7.59329 39.4541L7.90391 37.1416Z" fill="#2E2E2E"/>
<path d="M20.3849 37.4901L18.7083 37.2649L18.3976 39.5775L20.0742 39.8027L20.3849 37.4901Z" fill="#2E2E2E"/>
<path d="M31.765 34.8619L30.0884 34.6367L29.7778 36.9493L31.4544 37.1745L31.765 34.8619Z" fill="#2E2E2E"/>
<path d="M14.902 48.0451L13.2253 47.8199L12.9147 50.1325L14.5913 50.3577L14.902 48.0451Z" fill="#2E2E2E"/>
<path d="M18.9259 30.838L17.2493 30.6128L16.9387 32.9254L18.6153 33.1506L18.9259 30.838Z" fill="#2E2E2E"/>
<path d="M30.7142 25.2949L29.0376 25.0697L28.727 27.3823L30.4036 27.6075L30.7142 25.2949Z" fill="#2E2E2E"/>
<path d="M15.6334 1.375H13.3V8.60833H15.6334V1.375Z" fill="#2E2E2E"/>
<path d="M8.75008 11.4667H6.41675V18.7H8.75008V11.4667Z" fill="#2E2E2E"/>
<path d="M22.575 9.19165H20.2417V16.425H22.575V9.19165Z" fill="#2E2E2E"/>
</svg>
