<svg width="56" height="57" viewBox="0 0 56 57" fill="none" xmlns="http://www.w3.org/2000/svg">
<g clip-path="url(#clip0_51532_1078)">
<path d="M11.4918 49.9667C10.9084 49.4417 10.3251 48.8 9.80011 48.2167L11.5501 46.7C12.0168 47.225 12.5418 47.8083 13.0668 48.275L11.4918 49.9667ZM7.64178 45.3C7.23345 44.6 6.82511 43.9 6.41678 43.2L8.45845 42.15C8.80845 42.7917 9.15845 43.4333 9.56678 44.075L7.64178 45.3ZM5.07511 39.8167C4.84178 39.0584 4.60845 38.2417 4.43345 37.4833L6.70845 37.0167C6.88345 37.7167 7.05845 38.4167 7.29178 39.1167L5.07511 39.8167ZM3.96678 33.8667C3.90845 33.3417 3.90845 32.875 3.90845 32.35C3.90845 32.0583 3.90845 31.7667 3.90845 31.4167L6.24178 31.5333C6.24178 31.825 6.24178 32.0583 6.24178 32.35C6.24178 32.8167 6.24178 33.2833 6.30011 33.6917L3.96678 33.8667ZM6.59178 28.2667L4.31678 27.8583C4.49178 27.0417 4.66678 26.2833 4.90011 25.525L7.11678 26.1667C6.88345 26.8667 6.70845 27.5667 6.59178 28.2667ZM8.28345 23.075L6.18345 22.0833C6.53345 21.3833 6.88345 20.625 7.35011 19.925L9.33345 21.0917C8.92511 21.7917 8.57511 22.4333 8.28345 23.075ZM45.3835 49.0917L43.7501 47.4583C44.2751 46.9333 44.7418 46.35 45.2085 45.825L47.0168 47.225C46.4918 47.8667 45.9668 48.5084 45.3835 49.0917ZM49.0001 44.1917L47.0168 43.0833C47.3668 42.4417 47.7168 41.8 48.0085 41.1L50.1085 42.0333C49.7585 42.7917 49.4085 43.4917 49.0001 44.1917ZM51.2751 38.65L49.0585 38.0667C49.2335 37.3667 49.4085 36.6667 49.5251 35.9083L51.8001 36.2583C51.6835 37.0167 51.5085 37.8334 51.2751 38.65ZM52.0918 32.6417H49.7585V32.4083C49.7585 31.7667 49.7001 31.0667 49.6418 30.425L51.9168 30.1917C51.9751 30.8917 52.0335 31.65 52.0335 32.35L52.0918 32.6417ZM49.1751 27.1583C49.0001 26.4583 48.7668 25.7583 48.5335 25.0583L50.6918 24.3C50.9835 25.0583 51.2168 25.8167 51.3918 26.6333L49.1751 27.1583ZM47.1918 22.0833C46.8418 21.4417 46.4918 20.8 46.0835 20.2167L48.0085 18.9333C48.4751 19.575 48.8835 20.275 49.2918 21.0333L47.1918 22.0833Z" fill="#2E2E2E"/>
<path d="M12.8917 1.95837H43.1084L47.0167 9.71671H8.9834L12.8917 1.95837Z" fill="#A6C44A"/>
<path d="M48.9417 10.8833H7.1167L12.1917 0.791626H43.8667L48.9417 10.8833ZM10.85 8.54996H45.2084L42.4667 3.06663H13.65L10.85 8.54996Z" fill="#2E2E2E"/>
<path d="M16.7999 55.0417H39.1999L40.5999 44.0167H15.3999L16.7999 55.0417Z" fill="white"/>
<path d="M40.25 56.2083H15.75L14.1167 42.85H41.9417L40.25 56.2083ZM17.7917 53.875H38.2084L39.3167 45.125H16.6834L17.7917 53.875Z" fill="#2E2E2E"/>
<path d="M44.8583 9.71667H11.1416L12.4833 20.7417H43.5166L44.8583 9.71667Z" fill="white"/>
<path d="M44.5084 21.9084H11.4917L9.8584 8.55005H46.2001L44.5084 21.9084ZM13.5334 19.5751H42.4667L43.5751 10.825H12.4251L13.5334 19.5751Z" fill="#2E2E2E"/>
<path d="M12.4834 20.7417L15.4001 44.0167H40.6001L43.5167 20.7417H12.4834Z" fill="#F8B602"/>
<path d="M41.5916 45.1833H14.4083L11.2 19.6333H44.7999L41.5916 45.1833ZM16.3916 42.85H39.55L42.175 21.9083H13.825L16.3916 42.85Z" fill="#F8B602"/>
<path d="M28.0002 40.3416C31.5118 40.3416 34.3585 36.7898 34.3585 32.4083C34.3585 28.0269 31.5118 24.475 28.0002 24.475C24.4886 24.475 21.6418 28.0269 21.6418 32.4083C21.6418 36.7898 24.4886 40.3416 28.0002 40.3416Z" fill="white"/>
<path d="M28.0001 41.45C23.8584 41.45 20.4751 37.3667 20.4751 32.35C20.4751 27.3333 23.8584 23.3083 28.0001 23.3083C32.1418 23.3083 35.5251 27.3917 35.5251 32.4084C35.5251 37.425 32.1418 41.45 28.0001 41.45ZM28.0001 25.5834C25.1418 25.5834 22.8084 28.6167 22.8084 32.35C22.8084 36.0834 25.1418 39.1167 28.0001 39.1167C30.8584 39.1167 33.1918 36.0834 33.1918 32.35C33.1918 28.6167 30.8584 25.5834 28.0001 25.5834Z" fill="#2E2E2E"/>
<path d="M27.4751 40.5749C26.8334 38.9416 26.7751 37.1916 27.2418 35.4999C27.3584 35.0916 27.5334 34.6833 27.6501 34.3333C27.8251 33.8083 28.0001 33.3416 28.1168 32.9333C28.2334 32.1749 28.1168 31.2999 27.7668 30.4249C27.4168 29.5499 26.8334 28.675 26.2501 27.8583C25.9001 27.3916 25.6084 26.8666 25.3751 26.2833C25.0834 25.4666 25.0251 24.65 25.3168 23.95L27.4751 24.825C27.4168 25 27.4168 25.2333 27.5334 25.4666C27.6501 25.8166 27.8834 26.1666 28.1751 26.5166C28.8168 27.4499 29.4584 28.4416 29.9251 29.5499C30.4501 30.8333 30.6251 32.1749 30.4501 33.3416C30.3334 34.0416 30.1001 34.6249 29.8668 35.2083C29.7501 35.5583 29.6334 35.8499 29.5168 36.1999C29.1668 37.3666 29.2251 38.6499 29.6918 39.7583L27.4751 40.5749Z" fill="#2E2E2E"/>
</g>
<defs>
<clipPath id="clip0_51532_1078">
<rect width="56" height="56" fill="white" transform="translate(0 0.5)"/>
</clipPath>
</defs>
</svg>
