<svg width="56" height="57" viewBox="0 0 56 57" fill="none" xmlns="http://www.w3.org/2000/svg">
<g clip-path="url(#clip0_51532_1113)">
<path d="M31.7334 49.325C22.4001 53.4083 11.4917 49.15 7.40839 39.8166C3.32505 30.4833 7.58339 19.575 16.9167 15.4916C21.5834 13.45 26.6584 13.5083 31.0334 15.2L32.9584 10.2416C27.3001 8.02497 20.7667 7.96664 14.7584 10.5916C2.74172 15.8416 -2.74161 29.9 2.50839 41.9166C7.75839 53.9333 21.8167 59.4166 33.8334 54.1666C45.8501 48.9166 51.3334 34.8583 46.0834 22.8416L41.2417 25C45.3251 34.3333 41.0667 45.2416 31.7334 49.325Z" fill="#F8B602"/>
<path d="M38.8501 7.26668C43.2834 8.95835 47.0168 12.4 49.0584 17.0667L53.9001 14.9084C51.2751 8.90002 46.4918 4.52502 40.7751 2.30835L38.8501 7.26668Z" fill="#A6C44A"/>
<path d="M48.4749 18.5833L48.0083 17.5333C46.1416 13.275 42.7583 10.0666 38.4416 8.37496L37.3333 7.90829L40.1333 0.791626L41.2416 1.19996C47.4249 3.64996 52.3249 8.31663 55.0083 14.4416L55.4749 15.4916L48.4749 18.5833ZM40.3666 6.62496C44.3916 8.49163 47.5999 11.5833 49.6416 15.55L52.3833 14.3833C50.0499 9.71663 46.2582 6.04163 41.4749 3.88329L40.3666 6.62496Z" fill="#2E2E2E"/>
<path d="M49.0583 17.0667C47.0166 12.4001 43.2833 9.01672 38.8499 7.26672L32.1416 24.4751L49.0583 17.0667Z" fill="#F8B602"/>
<path d="M30.0417 26.6917L38.2084 5.75L39.3167 6.15833C44.2168 8.08333 48.0667 11.7583 50.1667 16.6L50.6334 17.65L30.0417 26.6917ZM39.4917 8.78333L34.2417 22.2583L47.4834 16.4833C45.7334 13.1 42.9334 10.4167 39.4917 8.78333Z" fill="#2E2E2E"/>
<path d="M24.3249 52.0667C16.7415 52.0667 9.50821 47.6917 6.29988 40.2833C1.92488 30.3667 6.47488 18.7583 16.3915 14.3833C21.1749 12.2833 26.5415 12.1667 31.4415 14.0917L32.5499 14.5L26.4249 30.1917L41.8249 23.425L42.2915 24.475C44.3915 29.2583 44.5082 34.625 42.5832 39.525C40.6582 44.425 36.9832 48.275 32.1415 50.375C29.6332 51.5417 27.0082 52.0667 24.3249 52.0667ZM8.45821 39.35C12.3082 48.1 22.5165 52.0667 31.2665 48.275C35.5249 46.4083 38.7332 43.025 40.4249 38.7083C41.9415 34.7417 41.9999 30.4833 40.5999 26.575L22.2249 34.625L29.5165 15.9C25.5499 14.6167 21.2332 14.85 17.3832 16.5417C8.63321 20.3917 4.66654 30.6 8.45821 39.35Z" fill="#2E2E2E"/>
<path d="M17.9084 45.0084C19.5192 45.0084 20.825 43.7025 20.825 42.0917C20.825 40.4809 19.5192 39.175 17.9084 39.175C16.2975 39.175 14.9917 40.4809 14.9917 42.0917C14.9917 43.7025 16.2975 45.0084 17.9084 45.0084Z" fill="#A6C44A"/>
<path d="M17.9084 46.175C16.3334 46.175 14.8167 45.2417 14.1167 43.725C13.65 42.7334 13.65 41.625 14.0584 40.575C14.4667 39.525 15.225 38.7667 16.2167 38.3C17.2084 37.8334 18.3167 37.8334 19.3667 38.2417C20.4167 38.65 21.175 39.4084 21.6417 40.4C22.1084 41.3917 22.1084 42.5 21.7 43.55C21.2917 44.6 20.5334 45.3584 19.5417 45.825C19.0167 46.0584 18.4334 46.175 17.9084 46.175ZM17.9084 40.2834C17.675 40.2834 17.4417 40.3417 17.2084 40.4584C16.8 40.6334 16.45 40.9834 16.275 41.45C16.1 41.9167 16.1 42.3834 16.275 42.7917C16.6834 43.6667 17.7334 44.075 18.6084 43.725C19.0167 43.55 19.3667 43.2 19.5417 42.7334C19.7167 42.2667 19.7167 41.8 19.5417 41.3917C19.3667 40.9834 19.0167 40.6334 18.55 40.4584C18.3167 40.3417 18.0834 40.2834 17.9084 40.2834Z" fill="#A6C44A"/>
<path d="M15.9834 26.6333C17.4009 26.6333 18.5501 25.4842 18.5501 24.0667C18.5501 22.6491 17.4009 21.5 15.9834 21.5C14.5659 21.5 13.4167 22.6491 13.4167 24.0667C13.4167 25.4842 14.5659 26.6333 15.9834 26.6333Z" fill="#A6C44A"/>
<path d="M15.9834 27.8C15.5168 27.8 15.0501 27.7416 14.6418 27.5666C13.7084 27.2166 13.0084 26.5166 12.6001 25.5833C12.1918 24.65 12.1918 23.6583 12.5418 22.725C12.8918 21.7916 13.5918 21.0916 14.5251 20.6833C16.3918 19.8666 18.6084 20.7416 19.4251 22.6083C20.2418 24.475 19.3668 26.6916 17.5001 27.5083C17.0334 27.6833 16.5084 27.8 15.9834 27.8ZM15.9834 22.725C15.8084 22.725 15.6334 22.7833 15.4584 22.8416C15.1084 23.0166 14.8751 23.25 14.7001 23.6C14.5834 23.95 14.5834 24.3 14.7001 24.65C14.8168 25 15.1084 25.2333 15.4584 25.4083C15.8084 25.525 16.1584 25.525 16.5084 25.4083C17.2084 25.1166 17.5001 24.3 17.2084 23.6C17.0334 23.0166 16.5084 22.725 15.9834 22.725Z" fill="#A6C44A"/>
<path d="M32.9583 44.3666C32.4916 44.3666 32.0833 44.3083 31.6166 44.1333C30.6833 43.7833 29.9833 43.0833 29.575 42.2083L31.7333 41.2749C31.85 41.6249 32.1416 41.8583 32.4333 41.9749C32.7833 42.0916 33.1333 42.0916 33.425 41.9749C34.0666 41.6833 34.4166 40.9249 34.125 40.2249L36.2833 39.2916C37.1 41.1583 36.225 43.3166 34.4166 44.1333C33.95 44.3083 33.4833 44.3666 32.9583 44.3666ZM40.5416 18.1166C39.1416 18.1166 37.8 17.2999 37.1583 15.8999L39.3166 14.9666C39.6083 15.6083 40.3666 15.9583 41.0666 15.6666C41.7083 15.3749 42.0583 14.6166 41.7666 13.9166L43.925 12.9833C44.7416 14.8499 43.8666 17.0083 42.0583 17.8249C41.5333 18.0583 41.0666 18.1166 40.5416 18.1166Z" fill="#2E2E2E"/>
<path d="M10.8683 33.9205L8.54565 33.6975L8.37842 35.4395L10.701 35.6624L10.8683 33.9205Z" fill="#2E2E2E"/>
<path d="M13.5333 38.7083L11.2583 38.2416C11.375 37.6 11.6666 36.9583 12.075 36.4333L13.9416 37.8333C13.7083 38.125 13.5916 38.4166 13.5333 38.7083ZM16.45 33.575L14.525 32.2333C14.8166 31.7667 15.225 31.4167 15.6916 31.0667L17.0333 32.9916C16.8 33.1083 16.625 33.3416 16.45 33.575Z" fill="#2E2E2E"/>
<path d="M23.1208 27.3707L21.0125 26.3711L20.4877 27.478L22.5961 28.4776L23.1208 27.3707Z" fill="#2E2E2E"/>
<path d="M42.0445 11.4372L39.9348 10.4404L39.4115 11.548L41.5212 12.5448L42.0445 11.4372Z" fill="#2E2E2E"/>
<path d="M26.0166 21.2666L23.6833 20.8583C23.8 20.275 24.0333 19.6916 24.3833 19.225L26.3083 20.5666C26.1333 20.7416 26.075 21.0333 26.0166 21.2666ZM21.7583 19.6916L19.4833 19.05C19.6583 18.4666 19.95 17.8833 20.4166 17.4166L22.1083 19.05C21.9916 19.225 21.8166 19.4583 21.7583 19.6916ZM9.44997 28.325C9.21664 27.6833 9.21664 26.9833 9.56664 26.3416L11.6666 27.45L9.44997 28.325Z" fill="#2E2E2E"/>
<path d="M23.6112 38.381L22.6758 36.2434L21.7673 36.641L22.7027 38.7786L23.6112 38.381Z" fill="#2E2E2E"/>
<path d="M26.1502 42.9435L25.2126 40.8068L24.3046 41.2052L25.2421 43.3419L26.1502 42.9435Z" fill="#2E2E2E"/>
<path d="M24.9237 47.3403L24.4578 45.054L23.0288 45.3452L23.4948 47.6315L24.9237 47.3403Z" fill="#2E2E2E"/>
<path d="M31.3694 46.5832L30.115 44.6157L28.4918 45.6506L29.7462 47.6181L31.3694 46.5832Z" fill="#2E2E2E"/>
<path d="M26.7749 38.3583C26.7749 37.5416 27.1249 36.7833 27.7666 36.3167L29.2249 38.1833C29.1666 38.1833 29.1666 38.2416 29.1666 38.3L26.7749 38.3583Z" fill="#2E2E2E"/>
<path d="M33.0204 32.8021L31.7056 30.8745L30.5008 31.6963L31.8156 33.6239L33.0204 32.8021Z" fill="#2E2E2E"/>
<path d="M34.0084 38.0667L33.3667 35.7917C33.5417 35.7333 33.775 35.6167 33.8917 35.5L35.4084 37.3083C35 37.6583 34.5334 37.8917 34.0084 38.0667Z" fill="#2E2E2E"/>
<path d="M39.4255 32.0583L37.7327 30.4524L36.4078 31.849L38.1006 33.4548L39.4255 32.0583Z" fill="#2E2E2E"/>
<path d="M20.693 33.9501L18.646 32.8302L18.254 33.5467L20.3011 34.6665L20.693 33.9501Z" fill="#2E2E2E"/>
<path d="M38.612 19.0256L36.5654 17.9049L36.1732 18.6212L38.2197 19.7419L38.612 19.0256Z" fill="#2E2E2E"/>
</g>
<defs>
<clipPath id="clip0_51532_1113">
<rect width="56" height="56" fill="white" transform="translate(0 0.5)"/>
</clipPath>
</defs>
</svg>
