<svg width="56" height="57" viewBox="0 0 56 57" fill="none" xmlns="http://www.w3.org/2000/svg">
<g clip-path="url(#clip0_51532_1146)">
<path d="M34.7083 37.075C30.2167 37.075 21.2333 32.8167 14.0583 25.6417C9.50833 21.0917 7.93333 16.075 7.875 12.5167L9.39167 10.0667L11.4917 8.4917C11.55 8.4917 11.6667 8.4917 11.725 8.4917C14.4667 8.4917 19.8333 9.30837 25.1417 14.5584C29.3417 18.7584 33.0167 24.1834 35.0583 29.0834C36.9833 33.8084 36.6917 36.375 36.225 36.7834C36.1667 36.8417 35.7 37.075 34.7083 37.075Z" fill="#F8B602"/>
<path d="M19.1916 28.3834C18.7833 28.3834 18.4916 28.2084 18.375 28.15C17.2666 27.5667 16.45 26.4584 15.9833 25.0584C15.6333 23.8917 15.6333 22.725 15.6333 21.675L17.9083 21.6167C17.9083 22.55 17.9666 23.5417 18.2 24.4167C18.3166 24.7667 18.4333 25.0584 18.6083 25.35C18.6666 25.1167 18.6666 24.65 19.0166 24.2417C19.5416 23.6 20.475 23.425 21.35 23.8917C21.4666 23.95 21.5833 24.0084 21.7 24.0667C21.7583 24.125 21.8166 24.125 21.875 24.1834C21.875 24.1834 21.875 24.1834 21.875 24.125C21.9333 23.95 21.9333 23.7167 21.875 23.3667C21.875 23.25 21.8166 23.1917 21.8166 23.075C21.7583 22.725 21.6416 22.375 21.6416 21.9667C21.6416 21.0917 22.1083 20.275 22.8666 19.9834C23.45 19.75 24.0333 19.8084 24.4416 19.925L23.975 18.2334C23.8583 17.825 23.975 17.4167 24.2666 17.125C24.2666 17.125 24.2666 17.125 24.325 17.0667C23.275 16.8917 22.1083 17.0084 21 17.125L20.7666 14.85C22.05 14.7334 23.5083 14.5584 24.9083 14.85C26.6583 15.2 28.0583 16.1334 28.8166 17.4167C28.9916 17.7084 28.9916 18.1167 28.875 18.4667C28.7 18.8167 28.4083 19.05 28.0583 19.1084C27.5916 19.1667 27.125 19.225 26.6583 19.225L26.7166 19.4C27.0083 20.45 26.8333 21.2667 26.25 21.7917C25.4916 22.4334 24.6166 22.2 24.15 22.0834C24.0916 22.0834 24.0333 22.0834 24.0333 22.025C24.0333 22.1417 24.0916 22.3167 24.15 22.4917C24.15 22.6084 24.2083 22.725 24.2083 22.8417C24.3833 23.6584 24.325 24.3584 24.0916 24.9417C23.6833 25.875 22.75 26.4584 21.8166 26.3417C21.4083 26.2834 21.1166 26.1667 20.8833 25.9917L20.7666 26.75C20.5916 28.0334 19.775 28.2667 19.4833 28.2667C19.3083 28.3834 19.25 28.3834 19.1916 28.3834Z" fill="#2E2E2E"/>
<path d="M15.225 11.7C14.2916 12.6334 12.8333 12.6334 11.9 11.7C10.9666 10.7667 10.9666 9.30838 11.9 8.37505C12.8333 7.44172 14.2916 7.44172 15.225 8.37505C16.1583 9.30838 16.1583 10.7667 15.225 11.7Z" fill="#A6C44A"/>
<path d="M13.5334 13.5083C12.6001 13.5083 11.7251 13.1583 11.0834 12.4583C9.74173 11.1166 9.74173 8.89995 11.0834 7.49995C11.7251 6.85828 12.6001 6.44995 13.5334 6.44995C14.4667 6.44995 15.3417 6.79995 15.9834 7.49995C17.3251 8.84162 17.3251 11.0583 15.9834 12.4583C15.3417 13.1583 14.4667 13.5083 13.5334 13.5083ZM13.5334 8.78328C13.1834 8.78328 12.8917 8.89995 12.6584 9.13329C12.1917 9.59995 12.1917 10.4166 12.6584 10.8833C13.1251 11.35 13.9417 11.35 14.4084 10.8833C14.8751 10.4166 14.8751 9.59995 14.4084 9.13329C14.1751 8.89995 13.8834 8.78328 13.5334 8.78328Z" fill="#2E2E2E"/>
<path d="M34.7083 42.5583C28.0583 42.5583 17.7917 37.075 10.2083 29.4916C1.45833 20.7416 1.80833 11.175 3.20833 7.32497L3.49999 6.44997L5.83333 6.6833L5.54166 4.2333L6.29999 3.8833C10.675 2.07497 20.7083 2.3083 28.9917 10.65C38.675 20.3333 45.5 35.2083 40.075 40.6333C38.85 41.8583 37.0417 42.5583 34.7083 42.5583ZM5.07499 8.89997C4.02499 13.1 4.95833 20.975 11.7833 27.8583C18.8417 34.9166 28.7 40.225 34.7083 40.225C36.4 40.225 37.6833 39.8166 38.5583 38.9416C42.525 34.975 36.9833 21.7333 27.475 12.1666C20.3583 5.16663 12.1333 4.46663 7.99166 5.69163L8.39999 9.3083L5.07499 8.89997Z" fill="#2E2E2E"/>
<path d="M40.95 35.6167C40.8917 37.3667 40.3667 38.825 39.3751 39.8167C38.3834 40.8084 36.925 41.3334 35.175 41.3917L38.6167 53.9917L53.4917 39L40.95 35.6167Z" fill="#A6C44A"/>
<path d="M37.9751 56.15L33.6584 40.2833L35.0584 40.225C36.5751 40.1666 37.7418 39.7583 38.5001 38.9416C39.2584 38.1833 39.6668 37.0166 39.7834 35.5L39.8418 34.1L55.7084 38.4166L37.9751 56.15ZM36.5751 42.3833L39.1418 51.8333L51.3334 39.5833L41.8834 37.0166C41.5918 38.475 41.0084 39.6416 40.1334 40.575C39.2584 41.5083 38.0334 42.0916 36.5751 42.3833Z" fill="#2E2E2E"/>
<path d="M26.4251 52.9416C25.7251 52.9416 25.0251 52.9416 24.3834 52.8833L24.5584 50.6083C25.2001 50.6666 25.8417 50.6666 26.4251 50.6666C26.5417 50.6666 26.6001 50.6666 26.7167 50.6666L26.7751 52.9416C26.6584 52.9416 26.5417 52.9416 26.4251 52.9416ZM30.2751 52.65L29.9251 50.4333C30.6251 50.3166 31.3251 50.2 32.0251 50.025L32.5501 52.2416C31.8501 52.3583 31.0334 52.5333 30.2751 52.65ZM20.8834 52.3583C20.1251 52.1833 19.3667 52.0083 18.6084 51.775L19.3084 49.6166C20.0084 49.85 20.7084 50.025 21.4084 50.1416L20.8834 52.3583ZM15.2834 50.4916C14.5834 50.1416 13.8834 49.7916 13.1834 49.3833L14.3501 47.4583C14.9917 47.8083 15.6334 48.1583 16.2751 48.45L15.2834 50.4916ZM10.2667 47.3416C9.62508 46.875 9.04175 46.35 8.45841 45.7666L10.0334 44.1333C10.5584 44.6 11.0834 45.125 11.6667 45.5333L10.2667 47.3416ZM6.06675 43.2C5.60008 42.5583 5.07508 41.9166 4.66675 41.275L6.53341 40.05C6.94175 40.6333 7.35008 41.2166 7.81675 41.8L6.06675 43.2ZM2.91675 38.2416C2.56675 37.5416 2.27508 36.7833 1.98341 36.0833L4.08341 35.2666C4.31675 35.9666 4.60841 36.6083 4.95841 37.25L2.91675 38.2416ZM0.933415 32.6416C0.758415 31.8833 0.641748 31.0666 0.525081 30.3083L2.74175 30.0166C2.85841 30.7166 2.97508 31.4166 3.15008 32.1166L0.933415 32.6416ZM2.56675 26.8083H0.291748C0.291748 26.05 0.350081 25.2333 0.408415 24.475L2.68341 24.7083C2.62508 25.35 2.56675 26.05 2.56675 26.8083Z" fill="#2E2E2E"/>
<path d="M52.0334 31.2416L49.8167 30.8916C49.9334 30.1916 50.0501 29.4916 50.1084 28.7333L52.3834 28.9083C52.2667 29.6666 52.2084 30.4833 52.0334 31.2416ZM50.1084 25.4666C50.0501 24.7666 49.9917 24.0083 49.8751 23.3083L52.0917 22.9583C52.2084 23.7166 52.2667 24.5333 52.3251 25.2916L50.1084 25.4666ZM49.1751 20.1583C49.0001 19.4583 48.7667 18.7583 48.4751 18.1166L50.5751 17.3C50.8667 18.0583 51.1001 18.7583 51.3334 19.5166L49.1751 20.1583ZM47.1334 15.2C46.7834 14.5583 46.3751 13.975 45.9667 13.3916L47.8334 12.1083C48.3001 12.75 48.7084 13.45 49.0584 14.0916L47.1334 15.2ZM43.9834 10.825C43.5167 10.3 42.9917 9.77496 42.4667 9.30829L43.9834 7.61663C44.5667 8.14163 45.1501 8.72496 45.6751 9.30829L43.9834 10.825ZM39.9001 7.26663C39.3167 6.85829 38.6751 6.44996 38.0917 6.09996L39.2001 4.11663C39.9001 4.52496 40.5417 4.93329 41.1834 5.39996L39.9001 7.26663ZM35.1751 4.75829C34.4751 4.46663 33.8334 4.23329 33.1334 3.99996L33.7751 1.84163C34.5334 2.07496 35.2917 2.30829 35.9917 2.59996L35.1751 4.75829ZM22.4584 3.35829L22.1084 1.14163C22.8667 1.02496 23.6834 0.908293 24.4417 0.849959L24.6167 3.12496C23.8584 3.18329 23.1584 3.24163 22.4584 3.35829ZM29.9834 3.29996C29.2834 3.18329 28.5251 3.12496 27.8251 3.06663L27.9417 0.791626C28.7001 0.849959 29.5167 0.908293 30.2751 1.02496L29.9834 3.29996Z" fill="#2E2E2E"/>
</g>
<defs>
<clipPath id="clip0_51532_1146">
<rect width="56" height="56" fill="white" transform="translate(0 0.5)"/>
</clipPath>
</defs>
</svg>
