<?xml version="1.0" standalone="no"?>
<!DOCTYPE svg PUBLIC "-//W3C//DTD SVG 20010904//EN"
 "http://www.w3.org/TR/2001/REC-SVG-20010904/DTD/svg10.dtd">
<svg version="1.0" xmlns="http://www.w3.org/2000/svg"
 width="540.000000pt" height="360.000000pt" viewBox="0 0 540.000000 360.000000"
 preserveAspectRatio="xMidYMid meet">

<g transform="translate(0.000000,360.000000) scale(0.100000,-0.100000)"
fill="#000000" stroke="none">
<path d="M0 1800 l0 -1800 1621 0 c1077 0 1618 3 1614 10 -3 6 -1 10 4 10 6 0
11 -5 11 -12 0 -9 3 -9 12 0 14 14 48 16 48 3 0 -5 9 -7 20 -4 11 3 17 9 14
14 -3 5 -10 7 -15 4 -5 -4 -9 -1 -9 5 0 7 -8 9 -20 5 -18 -6 -22 -1 -19 21 0
4 -5 11 -13 15 -10 7 -10 9 0 9 6 0 13 -1 15 -2 2 -2 15 5 29 14 15 10 30 14
33 9 3 -6 18 -6 37 -1 17 5 34 8 38 5 3 -2 14 5 23 16 10 11 22 17 27 14 5 -3
20 0 32 7 13 7 26 12 30 13 4 0 13 7 20 16 7 8 33 22 58 29 25 7 73 27 108 43
58 27 92 30 92 9 0 -10 -60 -38 -72 -35 -4 2 -5 -6 -3 -17 2 -13 -2 -20 -11
-20 -8 0 -14 -5 -14 -10 0 -16 -44 -29 -53 -16 -6 7 -7 4 -3 -6 3 -10 1 -18
-3 -18 -5 0 -11 5 -13 11 -2 7 -13 9 -26 5 -12 -4 -20 -12 -17 -17 8 -11 -15
-43 -34 -47 -11 -2 -12 0 -4 10 18 23 11 43 -15 45 -14 0 -20 -2 -13 -6 6 -4
9 -15 5 -24 -3 -9 -10 -14 -15 -12 -4 3 -18 -4 -29 -15 -11 -11 -26 -18 -32
-14 -7 4 -8 3 -4 -4 4 -7 2 -20 -3 -29 -6 -10 -11 -13 -11 -7 0 17 -40 25 -40
8 0 -8 -5 -14 -11 -14 -5 0 -8 -4 -5 -9 3 -5 22 -9 41 -9 19 0 38 4 41 9 3 5
11 9 17 9 7 0 6 -4 -3 -10 -10 -7 213 -10 656 -9 649 0 673 1 689 19 10 11 22
17 28 13 6 -3 7 -1 3 5 -4 6 0 26 9 44 l16 33 -20 -25 c-11 -14 -21 -29 -21
-33 0 -5 -4 -6 -9 -3 -11 7 -43 -28 -34 -38 4 -4 0 -4 -9 -1 -26 10 -16 30 42
80 30 26 54 50 53 53 -1 4 9 8 22 8 18 1 22 -2 18 -14 -5 -11 -2 -14 9 -9 11
4 24 -5 40 -25 85 -112 79 -108 184 -108 l92 0 5 27 c4 21 1 33 -15 46 -16 14
-18 20 -8 32 10 12 9 16 -4 21 -12 4 -14 13 -10 33 4 14 6 36 6 47 0 27 -57
84 -86 85 -12 1 -34 2 -51 3 -16 2 -44 -3 -62 -11 -26 -11 -32 -10 -37 2 -3
10 -19 15 -45 15 -31 0 -49 -7 -75 -30 -19 -17 -40 -28 -49 -25 -8 4 -17 -1
-20 -9 -4 -10 -1 -16 8 -16 8 0 15 -9 15 -20 0 -15 -7 -20 -24 -20 -14 0 -28
5 -31 10 -10 16 -45 12 -52 -6 -3 -8 -1 -20 5 -26 18 -18 -14 -68 -43 -68 -5
0 -3 5 5 11 11 8 4 9 -28 6 -41 -5 -46 -3 -85 39 -23 25 -42 50 -42 56 0 6
-16 16 -34 23 -22 7 -30 14 -23 19 7 4 17 4 22 1 21 -13 0 71 -52 209 -24 65
-23 70 17 97 40 27 46 45 13 35 -13 -4 -38 -9 -56 -13 -22 -4 -31 -10 -28 -19
3 -8 2 -14 -3 -14 -4 0 -13 -11 -19 -24 -8 -19 -8 -27 3 -36 8 -7 12 -16 9
-21 -3 -5 -1 -9 5 -9 12 0 54 -110 46 -119 -4 -3 -11 3 -17 13 -18 33 -72 80
-76 68 -5 -17 -37 -15 -52 3 -7 8 -20 15 -29 15 -20 0 -45 -36 -31 -45 6 -3
10 -11 10 -16 0 -6 -4 -7 -10 -4 -14 9 -12 -8 3 -25 10 -12 9 -12 -4 -2 -20
15 -56 5 -62 -18 -3 -11 -2 -22 1 -25 4 -4 7 -14 7 -23 0 -9 13 -20 31 -25
l31 -9 -35 -36 c-19 -21 -39 -36 -44 -34 -5 1 -18 -3 -30 -9 -18 -10 -20 -9
-14 6 8 22 -4 42 -15 24 -4 -7 -11 -10 -16 -6 -4 4 -2 16 4 26 11 18 9 19 -28
14 -27 -4 -39 -2 -39 7 0 6 -6 10 -12 7 -7 -2 -28 2 -46 10 -25 10 -37 11 -47
3 -9 -8 -15 -8 -20 0 -4 7 -12 7 -25 0 -14 -7 -23 -6 -35 7 -16 15 -15 18 16
34 19 9 37 16 40 14 3 -2 12 5 19 16 8 10 20 19 27 19 7 0 13 4 13 8 0 14 90
36 102 24 6 -6 6 -12 -1 -16 -16 -11 -13 -26 5 -26 13 0 15 7 10 32 -7 38 17
83 41 74 10 -4 13 -2 10 8 -6 14 15 40 25 31 3 -3 13 4 23 15 10 11 25 20 33
20 9 0 12 3 9 6 -4 4 2 14 12 23 10 9 21 25 25 36 3 11 29 33 56 50 28 16 50
33 50 38 0 4 27 36 60 69 34 35 56 66 51 71 -8 8 49 103 99 167 11 14 20 28
20 33 0 14 20 7 20 -8 0 -8 10 -20 23 -26 21 -12 21 -11 7 6 -12 14 -12 19 -2
23 8 2 10 8 4 15 -28 37 -19 117 13 117 21 0 19 20 -2 21 -11 0 -13 3 -6 6 17
6 17 45 1 62 -11 11 -10 12 1 6 11 -6 13 -4 6 11 -4 10 -7 28 -6 39 1 11 3 38
4 60 2 22 6 45 10 51 4 7 -5 19 -21 30 -20 13 -24 13 -15 2 11 -13 9 -15 -15
-16 -15 -1 -41 -3 -59 -6 -24 -3 -42 3 -74 26 -22 16 -43 27 -47 24 -3 -3 -11
-1 -18 5 -10 8 -12 3 -7 -28 5 -36 5 -37 -10 -18 -16 20 -16 19 -27 -12 -8
-23 -16 -30 -27 -26 -10 4 -14 2 -10 -4 12 -19 -19 -22 -33 -4 -7 11 -21 16
-35 13 -18 -3 -23 0 -21 13 1 9 9 20 16 25 27 17 0 23 -42 11 -30 -10 -38 -15
-27 -22 11 -7 11 -9 -3 -9 -26 0 -48 11 -42 21 3 5 -2 9 -11 9 -12 0 -15 6 -9
23 3 12 10 23 15 25 4 2 6 9 3 15 -2 7 14 20 37 29 31 13 46 15 64 6 20 -9 33
-6 82 19 31 17 59 35 60 40 2 6 -19 13 -47 15 -56 6 -65 11 -57 31 4 11 16 12
53 7 47 -7 79 -32 110 -86 10 -16 14 -17 38 -6 15 7 25 8 22 3 -3 -4 32 -11
77 -14 97 -7 104 -2 105 76 1 68 -5 87 -28 87 -10 0 -21 4 -24 8 -3 5 5 8 17
8 18 -1 21 4 19 24 -2 14 -8 29 -13 34 -5 6 -9 25 -9 42 0 18 -5 36 -10 39 -6
4 -8 15 -5 24 3 10 -1 24 -9 30 -10 8 -13 23 -10 39 3 15 -1 40 -10 57 -9 17
-16 35 -16 42 0 18 -31 31 -62 27 -16 -1 -28 2 -28 8 0 6 11 8 25 6 23 -5 25
-2 25 30 0 24 -9 45 -30 69 -16 18 -30 38 -30 44 0 17 -52 89 -65 89 -7 0 -20
10 -29 23 -14 18 -16 18 -11 3 5 -16 3 -17 -10 -6 -12 10 -13 15 -4 20 8 6 7
15 -4 36 -9 16 -22 40 -28 54 -7 14 -22 35 -33 47 -11 13 -18 24 -15 26 2 1
34 10 72 20 59 14 126 49 135 69 2 4 10 4 18 1 17 -6 18 11 2 37 -11 18 -14
18 -30 3 -16 -14 -18 -15 -18 0 0 8 5 17 12 19 6 2 -28 10 -76 18 -51 8 -90
19 -93 26 -3 7 11 27 31 45 20 17 36 35 36 40 0 13 -69 11 -129 -3 -43 -10
-58 -8 -113 9 -35 12 -85 27 -113 34 -165 42 -265 136 -265 250 0 34 26 69 39
50 6 -9 16 -11 32 -6 23 8 23 8 4 16 -22 8 -16 10 50 14 22 2 53 6 68 10 15 4
27 4 26 -1 -4 -16 13 -44 26 -44 8 0 10 9 7 25 -2 14 -9 25 -14 25 -5 0 -2 7
6 16 18 17 21 44 6 44 -5 0 -10 14 -10 30 0 17 5 30 10 30 6 0 10 7 10 16 0
15 -9 16 -68 11 -38 -4 -83 -12 -100 -18 -26 -9 -35 -8 -48 5 -25 26 -84 53
-144 66 -67 15 -270 0 -340 -25 -62 -22 -141 -77 -135 -93 3 -8 -3 -33 -13
-55 -10 -23 -22 -54 -25 -69 -4 -16 -12 -28 -17 -28 -6 0 -10 -10 -10 -22 0
-17 -3 -19 -9 -9 -7 11 -10 11 -15 0 -3 -8 -4 7 -2 34 2 30 14 63 31 90 16 23
21 36 12 28 -10 -7 -33 -39 -52 -71 -27 -44 -35 -69 -35 -104 0 -31 -4 -45
-11 -41 -13 9 -6 116 12 165 17 46 81 133 121 163 91 68 213 107 337 107 45 0
81 4 81 8 0 10 -65 42 -84 42 -8 0 -17 7 -20 16 -3 8 -11 12 -16 9 -14 -9 -62
23 -54 36 4 6 11 5 21 -3 12 -10 17 -9 28 5 14 20 41 23 47 5 3 -9 16 -3 37
15 l33 27 -1781 0 -1781 0 0 -1800z m3262 1758 c-9 -3 -38 -7 -64 -7 -27 -1
-48 -5 -48 -10 0 -17 -57 -34 -77 -22 -17 10 -16 10 5 11 12 0 31 9 43 21 17
17 29 20 61 15 24 -4 37 -3 34 3 -9 14 26 19 46 7 17 -10 17 -11 0 -18z m93
-8 c8 -13 -5 -13 -25 0 -13 8 -13 10 2 10 9 0 20 -4 23 -10z m-950 -26 c-125
-37 -205 -94 -261 -190 -28 -47 -29 -48 -32 -21 -4 32 33 100 78 146 19 18 53
37 88 47 31 9 66 20 77 24 11 5 38 8 60 8 l40 0 -50 -14z m654 -30 c11 -4 10
-8 -5 -19 -13 -9 -45 -14 -95 -15 -91 0 -215 -30 -278 -67 -25 -15 -68 -50
-96 -77 -56 -57 -80 -113 -90 -212 l-6 -62 37 -21 c20 -12 40 -18 43 -13 3 4
14 12 24 15 14 5 20 2 24 -13 3 -11 12 -20 19 -20 8 0 14 -4 14 -9 0 -20 -30
-30 -88 -27 -34 1 -63 -2 -65 -8 -5 -16 -26 3 -48 46 -49 96 -5 269 93 367 72
72 205 131 318 141 73 6 170 3 199 -6z m181 13 c0 -2 -33 -20 -72 -40 -40 -20
-112 -68 -160 -106 -48 -39 -90 -71 -92 -71 -13 0 11 39 48 78 40 42 145 105
216 129 36 12 60 16 60 10z m-666 -22 c-10 -8 -23 -15 -28 -15 -5 0 -40 -21
-79 -47 -83 -57 -148 -128 -185 -203 -23 -49 -27 -67 -27 -156 0 -90 -2 -100
-16 -91 -26 16 -40 45 -46 96 -23 192 181 425 376 430 24 1 24 1 5 -14z m-438
-17 c-39 -54 -57 -85 -62 -108 -10 -46 -17 -57 -21 -37 -8 30 18 90 56 129 41
43 51 49 27 16z m231 -9 c-107 -70 -193 -197 -205 -299 -6 -48 -10 -58 -21
-51 -19 12 -18 115 2 163 39 93 125 176 211 203 62 20 64 18 13 -16z m258 -6
c-78 -40 -176 -146 -204 -220 -44 -119 -25 -222 60 -324 32 -38 38 -50 26 -55
-17 -6 -69 24 -62 36 6 10 -20 32 -28 24 -3 -3 -8 4 -12 15 -3 12 -11 21 -16
21 -5 0 -9 6 -9 13 0 6 -7 26 -16 42 -23 43 -23 156 1 225 27 78 118 172 210
216 81 40 124 45 50 7z m770 17 c23 -9 23 -9 -84 -30 -155 -30 -341 -222 -341
-351 0 -36 -11 -37 -37 -1 -20 27 -20 29 -3 83 25 82 48 115 119 170 125 96
282 155 346 129z m-1400 -90 c-29 -46 -35 -99 -22 -185 7 -41 6 -47 -4 -30 -7
11 -17 23 -23 27 -16 11 -15 132 2 168 15 30 61 74 69 66 3 -2 -7 -23 -22 -46z
m950 24 c-11 -8 -46 -29 -78 -46 -84 -45 -152 -123 -177 -205 -11 -36 -20 -71
-20 -79 0 -8 -10 -14 -21 -14 -21 0 -21 4 -17 68 12 162 141 287 298 291 33 0
34 0 15 -15z m782 -89 c28 -14 54 -29 57 -34 9 -14 -19 -20 -57 -11 -20 4 -38
6 -40 3 -3 -2 -7 5 -10 17 -4 15 0 20 16 21 20 0 20 1 -3 11 -14 5 -61 8 -105
6 -102 -5 -202 -46 -212 -87 -3 -14 -28 -61 -56 -103 -45 -69 -51 -76 -63 -60
-7 9 -9 21 -5 27 4 5 13 29 21 53 49 156 286 237 457 157z m-871 -40 c-25 -41
-37 -75 -42 -118 -8 -73 -24 -55 -27 31 -2 66 15 102 66 132 17 11 32 18 34
16 2 -2 -12 -29 -31 -61z m721 29 c-3 -3 -12 -4 -19 -1 -8 3 -5 6 6 6 11 1 17
-2 13 -5z m-50 -10 c-3 -3 -12 -4 -19 -1 -8 3 -5 6 6 6 11 1 17 -2 13 -5z
m426 -35 c-25 -43 -61 -66 -113 -73 -25 -3 -62 -8 -82 -12 -42 -6 -46 0 -22
34 28 41 120 80 192 81 l43 1 -18 -31z m-1886 -26 c-3 -10 -5 -4 -5 12 0 17 2
24 5 18 2 -7 2 -21 0 -30z m1433 4 c0 -7 -27 -36 -60 -66 -33 -29 -74 -76 -91
-104 -39 -66 -32 -24 12 69 23 49 40 69 72 89 47 28 67 31 67 12z m-279 -52
c-22 -37 -27 -94 -12 -123 13 -26 21 -93 10 -87 -5 4 -9 15 -9 26 0 10 -6 19
-14 19 -34 0 -35 73 -1 144 26 56 36 69 43 61 2 -2 -5 -20 -17 -40z m262 -27
c-11 -13 -33 -45 -48 -71 -15 -26 -29 -46 -32 -43 -8 8 28 70 60 104 35 36 52
45 20 10z m-1883 -68 c43 -12 162 -82 168 -99 3 -9 -5 -8 -26 3 -37 19 -51 21
-34 4 7 -7 12 -26 12 -43 0 -17 4 -35 9 -41 12 -13 23 -104 12 -104 -5 0 -14
7 -21 15 -7 9 -19 14 -26 11 -6 -2 -34 7 -60 21 -27 15 -67 28 -89 29 -22 2
-51 6 -64 10 -17 5 -22 4 -17 -4 4 -7 16 -12 26 -12 10 0 20 -4 22 -8 2 -5 30
-15 63 -23 38 -9 59 -19 57 -27 -1 -7 4 -12 12 -10 20 4 121 -102 134 -142 14
-43 8 -97 -14 -121 -9 -10 -14 -24 -11 -31 7 -20 92 73 123 134 15 29 30 80
34 113 l7 60 2 -66 c1 -83 -30 -150 -106 -225 -98 -96 -240 -156 -442 -185
-104 -15 -303 -6 -385 16 -120 33 -245 113 -252 162 -2 10 -8 41 -14 68 -6 28
-11 69 -12 92 -1 66 -18 39 -19 -30 0 -52 -2 -58 -11 -37 -14 35 -4 129 20
183 39 88 159 193 277 244 92 40 112 35 31 -7 -92 -48 -148 -88 -140 -101 5
-9 44 9 56 26 4 5 10 6 14 2 4 -4 13 1 21 11 13 15 13 15 4 -5 -6 -12 -11 -30
-10 -40 0 -10 3 -13 6 -5 7 17 23 15 23 -3 0 -19 46 -19 148 -1 39 7 72 9 72
5 0 -5 10 -5 23 0 12 4 61 7 108 6 81 -2 85 -1 85 19 -1 12 -5 24 -11 28 -6 5
-5 8 4 8 10 0 11 3 3 13 -8 10 -6 16 9 25 10 7 19 19 19 27 0 9 9 15 23 15 20
1 21 2 5 14 -10 7 -18 17 -18 21 0 9 97 -1 150 -15z m1170 -32 c0 -15 -28 -8
-34 8 -10 26 5 39 21 19 7 -11 13 -22 13 -27z m-90 -85 c0 -20 -3 -24 -11 -16
-7 7 -9 19 -6 27 10 24 17 19 17 -11z m325 7 c3 -6 -1 -7 -9 -4 -18 7 -21 14
-7 14 6 0 13 -4 16 -10z m20 -68 c-11 -2 -25 -8 -31 -13 -6 -5 -19 -7 -28 -3
-26 10 -19 -21 9 -42 14 -10 25 -24 25 -31 0 -7 14 -26 31 -44 17 -17 28 -34
24 -37 -3 -3 -10 -1 -16 5 -14 14 -37 6 -68 -25 -29 -29 -15 -52 15 -24 22 21
64 35 64 22 0 -23 -21 -60 -34 -60 -20 0 -41 -39 -37 -67 1 -13 0 -27 -4 -33
-11 -17 -45 8 -45 34 0 13 -9 33 -20 46 -22 26 -26 20 -9 -13 11 -21 11 -21
-7 -6 -33 28 -51 35 -32 13 16 -18 15 -19 -7 -20 -17 -1 -24 5 -28 22 -2 13 0
21 4 18 20 -12 7 7 -23 35 -27 25 -29 31 -16 36 15 6 14 9 -4 27 -14 14 -18
27 -13 45 3 14 1 31 -6 39 -15 19 2 39 47 56 22 8 33 17 29 26 -3 7 0 10 6 7
6 -4 8 -13 5 -21 -3 -9 2 -14 14 -14 12 0 17 5 14 14 -7 19 14 30 30 17 9 -8
24 -7 52 3 29 10 44 11 59 3 l20 -11 -20 -4z m-259 -34 c4 -6 3 -8 -4 -4 -5 3
-12 2 -14 -4 -1 -5 -8 2 -14 15 -11 22 -10 24 6 15 11 -6 22 -15 26 -22z m711
-30 c-35 -60 -64 -94 -72 -86 -4 4 14 37 40 73 52 73 72 81 32 13z m-443 -5
c3 -7 1 -13 -4 -13 -11 0 -40 29 -40 41 0 12 38 -12 44 -28z m-444 -43 c-24
-15 -31 -11 -18 10 9 13 16 16 23 9 7 -7 5 -13 -5 -19z m105 -19 c-4 -13 0
-17 16 -17 23 1 33 -22 18 -45 -6 -11 -14 -8 -38 15 -25 24 -28 32 -19 52 12
26 32 22 23 -5z m794 -32 c-10 -6 -10 -9 -1 -9 6 0 12 -6 12 -14 0 -14 50 -39
80 -40 8 -1 17 -12 20 -26 4 -16 12 -24 23 -22 11 2 17 -4 17 -18 0 -11 -4
-20 -10 -20 -5 0 -10 -5 -10 -11 0 -6 7 -9 15 -5 20 7 19 -11 -2 -22 -14 -8
-15 -14 -4 -40 7 -17 11 -37 8 -44 -4 -8 -6 -7 -6 5 -1 9 -5 17 -11 17 -5 0
-10 9 -10 21 0 14 -10 24 -31 32 -21 8 -29 17 -25 29 2 11 -2 19 -10 19 -45 4
-74 20 -74 40 0 14 -4 18 -12 13 -8 -5 -7 0 2 11 11 14 12 19 3 22 -7 3 -13
11 -13 19 0 9 -4 12 -10 9 -5 -3 -19 -1 -31 6 l-21 11 23 12 c28 15 100 19 78
5z m41 -3 c0 -3 -4 -8 -10 -11 -5 -3 -10 -1 -10 4 0 6 5 11 10 11 6 0 10 -2
10 -4z m-916 -22 c3 -8 2 -12 -4 -9 -6 3 -10 10 -10 16 0 14 7 11 14 -7z
m-374 -4 c0 -7 6 -7 19 0 22 11 58 14 48 3 -4 -3 1 -11 10 -18 20 -15 11 -45
-14 -45 -10 0 -33 9 -51 20 -18 11 -39 20 -47 20 -16 0 -20 12 -8 23 10 11 43
8 43 -3z m1805 -19 c86 -22 115 -38 45 -26 -25 5 -57 9 -72 9 -14 1 -24 4 -21
9 2 4 -3 7 -11 7 -8 0 -18 5 -21 10 -8 13 -10 13 80 -9z m-1305 -16 c7 -9 8
-15 2 -15 -5 0 -12 7 -16 15 -3 8 -4 15 -2 15 2 0 9 -7 16 -15z m-642 -29 c11
-10 12 -16 4 -16 -7 0 -12 -8 -12 -18 0 -18 -35 -46 -58 -47 -7 0 -16 -6 -20
-12 -14 -23 -84 -21 -76 2 4 10 0 15 -14 15 -30 0 -33 25 -6 51 13 12 22 25
19 27 -3 3 2 10 11 17 22 15 131 2 152 -19z m2242 0 c0 -8 -51 -13 -56 -5 -3
5 9 9 25 9 17 0 31 -2 31 -4z m-1797 -67 c-9 -9 -12 -7 -10 9 1 14 5 18 11 12
7 -7 6 -14 -1 -21z m837 27 c0 -2 -9 -6 -20 -9 -11 -3 -20 -1 -20 4 0 5 9 9
20 9 11 0 20 -2 20 -4z m40 -16 c0 -5 -2 -10 -4 -10 -2 0 -12 -3 -20 -6 -12
-5 -15 -2 -10 10 7 17 34 22 34 6z m-209 -53 c11 -3 19 -1 19 4 0 5 -8 9 -17
9 -12 0 -14 3 -7 10 7 7 19 8 37 1 19 -8 27 -7 27 1 0 6 23 -13 50 -42 28 -29
50 -60 50 -70 0 -9 7 -25 15 -36 20 -26 19 -29 -10 -29 -14 0 -25 5 -25 11 0
14 -23 24 -57 24 -21 0 -24 4 -20 20 4 17 2 20 -15 14 -14 -4 -18 -3 -13 6 4
7 -1 13 -14 17 -12 3 -21 12 -21 19 0 8 -8 14 -17 14 -10 0 -25 6 -33 13 -19
16 -22 47 -4 40 8 -3 14 1 15 8 0 8 5 4 11 -8 6 -12 19 -23 29 -26z m-1093 21
c31 -31 -11 -85 -44 -57 -13 10 -17 10 -25 -2 -6 -10 -9 -5 -9 18 0 25 5 33
28 41 36 14 36 14 50 0z m2108 -83 c43 -37 52 -50 50 -73 -2 -15 -5 -27 -6
-27 -1 0 -3 -8 -5 -17 -5 -26 -32 -51 -40 -37 -5 7 -11 7 -17 1 -11 -11 -98
14 -98 27 0 4 -10 19 -22 34 -23 29 -30 84 -13 103 11 12 62 32 84 33 8 1 38
-19 67 -44z m-1118 -7 c15 -15 16 -41 0 -36 -13 5 -31 48 -20 48 5 0 13 -5 20
-12z m-850 -89 c-4 -13 -4 -13 -48 40 -34 41 -22 48 16 9 20 -19 34 -42 32
-49z m1282 71 c0 -5 -9 -10 -20 -10 -11 0 -20 5 -20 10 0 6 9 10 20 10 11 0
20 -4 20 -10z m-1385 -9 c3 -5 1 -12 -5 -16 -5 -3 -10 1 -10 9 0 18 6 21 15 7z
m515 1 c0 -12 -80 -85 -86 -79 -3 3 11 24 31 46 36 39 55 51 55 33z m-150 -71
c27 2 45 -4 73 -27 36 -28 48 -54 26 -54 -6 0 -9 6 -6 14 8 21 -34 25 -51 6
-12 -13 -13 -13 -8 3 3 10 2 15 -4 12 -5 -3 -19 2 -30 13 -14 13 -37 19 -72
21 -63 2 -71 8 -38 30 13 9 31 23 40 32 13 14 16 12 24 -19 9 -31 13 -33 46
-31z m664 46 c7 -9 33 -18 61 -21 55 -7 71 -17 61 -41 -5 -15 -9 -14 -26 6
-26 33 -25 20 6 -41 32 -63 27 -107 -12 -107 -13 0 -24 3 -24 8 0 5 -6 6 -13
3 -7 -2 -35 19 -63 48 -27 29 -40 48 -29 44 34 -15 72 -18 79 -8 3 6 1 14 -5
18 -8 5 -10 2 -5 -7 4 -8 0 -5 -8 6 -9 11 -14 25 -12 32 4 9 -8 15 -34 19 -40
7 -60 28 -34 38 9 3 12 10 9 16 -10 17 37 5 49 -13z m-94 -9 c0 -6 8 -21 17
-32 13 -15 10 -14 -10 3 -28 25 -35 41 -17 41 6 0 10 -5 10 -12z m460 2 c0 -5
-6 -10 -14 -10 -8 0 -18 5 -21 10 -3 6 3 10 14 10 12 0 21 -4 21 -10z m473
-27 c-5 -12 -2 -15 10 -10 9 3 17 3 17 -1 0 -4 -25 -57 -55 -117 -31 -60 -53
-115 -51 -121 2 -6 -11 -18 -30 -27 -19 -9 -34 -13 -34 -8 0 5 -13 14 -30 21
-30 13 -40 30 -17 30 9 0 9 2 -1 9 -8 4 -12 12 -10 16 1 5 -6 9 -18 10 -17 1
-20 -4 -17 -24 2 -19 0 -17 -7 7 -6 18 -14 31 -18 28 -4 -2 -8 7 -8 20 -1 13
2 21 8 18 13 -8 59 16 52 28 -3 4 0 8 5 8 6 0 11 -4 11 -10 0 -18 22 -10 59
22 20 18 28 29 18 25 -17 -6 -37 17 -24 29 10 11 59 15 52 4 -3 -5 1 -13 10
-16 13 -6 14 -8 3 -15 -11 -7 -11 -9 0 -9 10 0 12 -9 7 -32 -5 -29 -2 -26 24
21 36 64 38 71 11 71 -24 0 -25 8 -4 38 12 18 19 20 29 12 8 -6 11 -19 8 -27z
m-1457 20 c-10 -11 -37 -12 -30 -2 3 5 12 9 21 9 9 0 13 -3 9 -7z m-1574 -64
c64 -17 67 -19 23 -13 -55 7 -141 36 -171 59 -12 9 -1 7 28 -5 26 -12 80 -30
120 -41z m1214 39 c5 -7 2 -8 -7 -3 -8 5 -11 4 -6 -1 5 -5 14 -9 20 -10 7 0
20 -2 30 -2 10 -1 17 -8 16 -14 -4 -25 13 -68 28 -68 8 0 11 -5 8 -10 -4 -7
-13 -7 -26 0 -11 6 -17 15 -14 21 4 5 3 8 -2 7 -14 -4 -75 70 -68 82 8 13 12
13 21 -2z m1172 -37 c20 -10 22 -9 22 11 l0 23 20 -25 c20 -26 27 -80 10 -80
-5 0 -24 16 -43 35 -23 23 -40 33 -51 29 -9 -3 -16 -2 -16 3 0 14 23 34 29 24
3 -4 16 -13 29 -20z m-1025 -22 c-8 -8 -14 -6 -22 9 -6 10 -7 22 -4 26 4 4 14
0 22 -9 11 -11 12 -18 4 -26z m1230 34 c-7 -2 -19 -2 -25 0 -7 3 -2 5 12 5 14
0 19 -2 13 -5z m-1183 -23 c0 -5 -5 -10 -11 -10 -5 0 -7 5 -4 10 3 6 8 10 11
10 2 0 4 -4 4 -10z m-396 -35 c3 -8 1 -15 -4 -15 -6 0 -10 7 -10 15 0 8 2 15
4 15 2 0 6 -7 10 -15z m-30 -21 c23 -9 20 -23 -4 -17 -11 3 -20 9 -20 14 0 11
3 11 24 3z m991 -12 c-3 -3 -11 0 -18 7 -9 10 -8 11 6 5 10 -3 15 -9 12 -12z
m110 -3 c4 -10 20 -26 36 -34 16 -9 29 -20 29 -26 0 -6 5 -7 11 -3 22 13 128
-28 174 -69 24 -22 42 -43 39 -48 -3 -5 0 -9 5 -9 17 0 13 -17 -5 -24 -22 -9
-64 22 -57 42 4 10 8 12 11 4 4 -13 22 -17 22 -4 0 5 -16 16 -36 25 -19 10
-33 13 -29 7 3 -5 1 -10 -5 -10 -6 0 -13 7 -16 15 -4 8 -12 15 -19 15 -7 0
-16 6 -19 13 -3 8 -9 6 -20 -7 -15 -19 -17 -19 -48 -3 l-33 17 39 -7 c30 -4
38 -3 34 8 -3 8 -19 15 -36 16 -36 1 -114 42 -106 55 3 4 -6 13 -20 19 -32 15
-26 26 13 27 21 0 32 -5 36 -19z m40 11 c-3 -6 2 -13 12 -17 21 -8 69 -43 58
-43 -4 0 -25 10 -46 22 -36 20 -53 48 -28 48 5 0 7 -5 4 -10z m-1094 -37 c-9
-16 -10 -14 -11 12 0 21 3 26 11 18 8 -8 8 -16 0 -30z m1719 27 c0 -5 -5 -10
-11 -10 -5 0 -7 5 -4 10 3 6 8 10 11 10 2 0 4 -4 4 -10z m50 6 c0 -3 -4 -8
-10 -11 -5 -3 -10 -1 -10 4 0 6 5 11 10 11 6 0 10 -2 10 -4z m434 -11 c16 -12
17 -15 4 -15 -8 0 -21 7 -28 15 -16 19 -1 19 24 0z m-1779 -11 c27 -17 69 -83
60 -92 -3 -4 -9 -1 -13 5 -5 8 -13 9 -22 3 -9 -5 -19 -5 -27 2 -9 7 -13 7 -13
-1 0 -13 -27 -15 -32 -2 -1 4 -14 11 -28 15 -14 3 -19 3 -12 0 19 -9 14 -24
-5 -17 -15 5 -14 3 2 -10 18 -14 18 -16 3 -17 -12 0 -15 -5 -11 -17 4 -9 -8
-2 -25 16 -33 35 -34 68 -2 51 13 -7 20 -6 24 6 3 8 2 12 -3 9 -5 -3 -12 -1
-15 4 -9 14 20 21 33 8 6 -6 11 -8 11 -4 0 4 10 2 23 -4 19 -11 20 -10 10 3
-10 12 -10 14 5 13 24 -1 43 -15 37 -25 -3 -5 -1 -11 5 -15 20 -12 9 24 -16
54 -29 34 -25 39 11 15z m-470 -43 c-3 -6 -1 -11 4 -11 6 0 11 -5 11 -10 0
-17 -35 6 -55 36 -9 14 -12 23 -6 20 6 -4 11 -2 11 4 0 6 9 2 21 -9 12 -11 18
-24 14 -30z m890 39 c3 -5 1 -10 -4 -10 -6 0 -11 5 -11 10 0 6 2 10 4 10 3 0
8 -4 11 -10z m115 -35 c7 -8 18 -15 25 -15 7 0 18 -7 25 -15 7 -9 18 -14 24
-12 6 2 33 -18 60 -45 42 -41 47 -50 35 -64 -12 -14 -14 -14 -25 0 -10 14 -13
14 -32 -3 -12 -10 -21 -20 -19 -22 1 -2 -8 7 -20 21 -12 14 -22 19 -23 13 0
-7 -8 -13 -17 -12 -10 0 -13 3 -7 5 16 7 5 44 -12 44 -7 0 -11 6 -8 14 3 8 1
17 -5 21 -15 9 -14 28 2 19 6 -4 0 5 -15 21 -16 15 -28 32 -28 36 0 14 27 10
40 -6z m1484 -1 c5 -14 4 -15 -8 -5 -8 7 -20 10 -26 6 -5 -3 -10 -1 -10 4 0
17 37 13 44 -5z m-1130 -3 c8 -13 -37 -22 -49 -10 -7 7 -4 8 8 4 10 -4 17 -2
17 4 0 13 17 15 24 2z m1016 -37 c0 -10 -18 -3 -38 15 -33 27 -26 36 8 11 17
-12 30 -23 30 -26z m-190 4 c0 -5 -11 -1 -25 8 -14 9 -25 18 -25 20 0 2 11 -2
25 -8 14 -6 25 -15 25 -20z m-390 -30 c0 -17 -23 -3 -26 16 -2 14 0 15 12 5 8
-6 14 -16 14 -21z m-1902 11 c-2 -3 3 -13 10 -22 11 -13 10 -15 -5 -11 -10 3
-19 14 -19 25 0 10 4 18 9 16 5 -1 7 -5 5 -8z m2378 -47 c27 -27 58 -53 69
-60 17 -10 18 -11 3 -12 -17 0 -115 80 -131 107 -17 28 12 11 59 -35z m-2286
13 c0 -8 5 -15 10 -15 6 0 10 5 10 11 0 5 5 7 10 4 6 -4 8 -11 5 -16 -4 -5 -2
-9 4 -9 5 0 11 8 14 18 3 14 6 12 15 -10 17 -40 34 -46 29 -9 -3 17 -1 29 4
25 5 -3 9 1 9 8 1 9 4 9 13 -3 7 -8 21 -19 32 -23 16 -6 17 -9 5 -16 -9 -5
-17 -5 -21 1 -3 6 -11 4 -19 -6 -10 -12 -10 -18 0 -30 18 -22 5 -18 -42 11
-32 20 -40 22 -34 9 3 -9 6 -21 6 -26 0 -5 7 -9 15 -9 8 0 14 -3 14 -7 -4 -22
3 -33 20 -33 20 0 37 -17 28 -27 -7 -7 -67 29 -67 40 0 4 -5 5 -12 1 -6 -4 -8
-3 -5 3 4 6 -4 18 -18 27 -15 10 -25 26 -25 41 0 13 -4 27 -10 30 -5 3 -10 10
-10 16 0 5 5 9 10 9 6 0 10 -7 10 -15z m-240 -21 c0 -8 4 -13 9 -10 9 6 25
-54 16 -62 -3 -3 -10 9 -16 26 -6 18 -14 32 -18 32 -4 0 -7 9 -8 20 -1 11 2
18 8 15 5 -4 9 -13 9 -21z m660 5 c0 -6 -4 -7 -10 -4 -5 3 -10 11 -10 16 0 6
5 7 10 4 6 -3 10 -11 10 -16z m1423 -28 c16 -6 40 -11 53 -11 14 0 23 -4 20
-9 -3 -5 13 -25 37 -45 71 -62 96 -89 90 -99 -3 -6 -1 -7 6 -3 6 4 9 11 6 16
-12 19 24 16 50 -4 26 -21 27 -25 20 -77 -7 -47 -9 -51 -17 -30 -5 13 -15 29
-24 35 -8 6 -16 21 -16 33 -1 12 -8 19 -15 17 -44 -13 -44 -13 -33 -34 6 -11
15 -18 20 -15 6 4 7 -2 3 -11 -4 -11 -8 -13 -11 -6 -2 7 -9 12 -15 12 -7 0
-18 4 -26 9 -12 8 -12 13 2 35 l17 26 -32 -7 c-18 -3 -37 -10 -42 -14 -22 -20
-116 0 -116 23 0 5 6 6 13 2 8 -5 8 -3 -1 7 -11 12 -16 11 -29 -6 -14 -18 -15
-19 -9 -1 5 15 4 17 -7 7 -18 -14 -50 18 -38 38 7 11 10 10 18 -3 6 -11 16
-14 26 -10 9 3 14 11 10 17 -9 14 -12 67 -4 67 3 0 12 -9 19 -20 10 -17 16
-19 33 -10 15 9 18 15 10 24 -6 7 -7 17 -3 21 4 5 -1 5 -10 2 -9 -3 -19 -1
-22 6 -5 9 -7 9 -12 0 -3 -7 -10 -13 -15 -13 -6 0 -6 7 -1 18 5 9 7 24 5 32
-3 10 -2 11 4 3 5 -6 21 -17 36 -22z m-2018 10 c-6 -11 25 -31 49 -31 16 0 66
-42 66 -56 0 -4 -5 -3 -11 3 -6 6 -19 9 -28 6 -12 -4 -13 -3 -3 5 11 7 10 11
-5 17 -10 5 -24 7 -31 6 -18 -3 -64 46 -49 53 18 7 19 7 12 -3z m165 -33 c0
-6 7 -20 17 -30 13 -14 13 -18 2 -18 -23 0 -34 13 -37 44 -3 18 0 26 7 22 6
-4 11 -12 11 -18z m183 -15 c-6 -16 -25 -12 -31 7 -3 7 0 10 7 6 6 -4 11 0 11
11 0 14 2 15 9 4 5 -8 7 -20 4 -28z m-349 2 c3 -8 1 -15 -3 -15 -5 0 -11 7
-15 15 -3 8 -1 15 3 15 5 0 11 -7 15 -15z m1040 -46 c5 -27 8 -29 27 -18 17 9
19 13 8 20 -21 13 -4 21 23 10 15 -6 28 -21 32 -37 5 -18 10 -24 17 -17 15 15
59 3 59 -16 0 -11 3 -12 8 -4 5 8 11 3 19 -13 10 -22 9 -23 -13 -18 -20 5 -24
2 -24 -15 0 -12 -6 -21 -16 -21 -8 0 -13 -4 -9 -10 3 -5 12 -7 20 -4 11 5 14
-2 12 -25 -2 -27 -5 -29 -27 -24 -33 8 -40 12 -40 24 0 6 6 7 13 3 10 -6 10
-4 0 7 -7 7 -13 23 -13 35 0 20 -5 21 -51 19 -56 -2 -68 9 -48 46 10 20 9 25
-11 41 -13 10 -20 21 -17 24 3 3 1 18 -4 32 -10 25 -9 26 9 9 11 -10 22 -31
26 -48z m1711 41 c3 -6 -1 -7 -9 -4 -18 7 -21 14 -7 14 6 0 13 -4 16 -10z
m-2880 -35 c11 -4 23 -7 28 -7 4 1 7 -2 7 -7 0 -4 12 -7 27 -5 37 4 59 -10 72
-47 10 -29 9 -30 -6 -18 -15 12 -16 12 -10 -3 5 -15 2 -16 -19 -8 -14 6 -23 6
-20 1 11 -18 -7 -42 -41 -56 -31 -13 -38 -13 -88 10 -60 28 -74 43 -54 56 11
7 11 9 1 9 -22 0 -41 26 -35 49 3 11 11 21 18 21 7 0 15 6 18 13 3 9 16 12 37
9 26 -4 31 -2 26 9 -5 8 -2 8 6 -2 7 -8 22 -19 33 -24z m1095 31 c0 -11 -19
-15 -25 -6 -3 5 1 10 9 10 9 0 16 -2 16 -4z m990 -12 c0 -8 -5 -12 -10 -9 -6
4 -8 11 -5 16 9 14 15 11 15 -7z m70 6 c0 -5 -7 -7 -15 -4 -8 4 -15 8 -15 10
0 2 7 4 15 4 8 0 15 -4 15 -10z m-1980 -10 c8 -5 11 -12 7 -16 -4 -4 -15 0
-24 9 -18 18 -8 23 17 7z m-39 -29 c11 -27 -6 -19 -22 11 -8 16 -8 19 2 16 6
-2 16 -14 20 -27z m2737 1 c6 -18 -15 -14 -22 4 -4 10 -1 14 6 12 6 -2 14 -10
16 -16z m-2600 -33 c12 -19 11 -20 -7 -14 -17 5 -20 3 -14 -12 6 -17 5 -17
-15 1 -12 11 -22 25 -22 33 0 21 44 15 58 -8z m2330 -77 c-3 -35 -6 -38 -49
-48 -25 -6 -59 -19 -76 -27 -32 -17 -53 -12 -28 7 12 9 13 18 4 49 -11 42 -6
59 18 50 10 -4 14 -2 10 4 -8 12 17 36 26 26 4 -3 7 1 7 10 0 10 5 17 10 17 6
0 10 -4 10 -10 0 -16 50 -7 51 10 0 8 5 0 10 -18 6 -19 9 -50 7 -70z m-2422
64 c1 -9 -2 -16 -8 -14 -6 2 -12 12 -14 22 -1 9 2 16 8 14 6 -2 12 -12 14 -22z
m154 14 c0 -5 -9 -10 -20 -10 -11 0 -20 5 -20 10 0 6 9 10 20 10 11 0 20 -4
20 -10z m18 -40 c-7 -11 -16 -20 -21 -20 -4 0 -5 -4 -2 -10 8 -13 -21 -13 -46
0 -31 17 -25 43 9 36 15 -3 34 -2 42 4 24 16 31 12 18 -10z m1382 10 c13 -9
13 -11 0 -19 -9 -7 -17 -6 -21 1 -4 6 -12 7 -18 4 -6 -4 -11 0 -11 8 0 18 27
21 50 6z m-830 -10 c-19 -13 -30 -13 -30 0 0 6 10 10 23 10 18 0 19 -2 7 -10z
m-750 -30 c0 -5 -2 -10 -4 -10 -3 0 -8 5 -11 10 -3 6 -1 10 4 10 6 0 11 -4 11
-10z m400 0 c0 -5 -4 -10 -10 -10 -5 0 -10 5 -10 10 0 6 5 10 10 10 6 0 10 -4
10 -10z m342 -1 c17 -9 18 -13 7 -20 -8 -4 -15 -13 -15 -19 -3 -23 -5 -24 -14
-10 -9 13 -12 13 -20 -2 -8 -13 -15 -14 -39 -5 l-30 11 21 18 c12 10 29 18 40
18 10 0 18 5 18 10 0 13 6 13 32 -1z m-384 -23 c22 -7 31 -26 12 -26 -5 0 -10
4 -10 8 0 5 -6 9 -14 9 -8 0 -15 -3 -14 -6 0 -3 0 -17 -1 -30 -1 -34 -15 -16
-17 22 -1 36 5 54 15 39 3 -5 16 -12 29 -16z m469 9 c0 -8 -4 -15 -9 -15 -10
0 -11 14 -1 23 9 10 10 9 10 -8z m683 -20 c0 -18 -21 -19 -39 -2 -11 10 -11 8
0 -10 7 -12 16 -20 20 -17 4 2 10 0 13 -5 3 -5 -14 -14 -38 -20 -39 -10 -43
-14 -38 -33 5 -21 4 -22 -12 -9 -9 8 -14 21 -11 29 3 8 -2 27 -11 41 -17 25
-17 26 2 9 25 -21 74 -34 74 -19 0 6 -7 14 -15 17 -20 8 -19 31 2 43 21 11 53
-3 53 -24z m-251 -19 c0 -6 -3 -5 -6 3 -4 9 -7 10 -13 2 -3 -7 -14 -9 -23 -5
-13 5 -14 9 -4 24 10 18 13 18 29 3 10 -9 18 -21 17 -27z m713 26 c4 -15 1
-18 -19 -14 -19 3 -21 7 -12 18 16 19 26 18 31 -4z m739 -53 c-36 -35 -59 -49
-74 -47 -26 4 -26 21 0 28 34 9 74 43 69 57 -4 10 -1 13 13 8 11 -3 22 -1 26
5 4 6 10 9 13 6 3 -4 -18 -29 -47 -57z m-2402 44 c0 -5 -5 -17 -10 -28 -9 -19
-9 -19 -5 2 2 12 -1 24 -8 27 -6 2 -3 5 7 5 9 1 17 -2 16 -6z m521 -28 c0 21
30 -22 31 -44 0 -14 3 -20 6 -13 2 6 9 10 13 7 5 -3 19 4 31 16 18 18 20 25
10 40 -9 16 -8 19 8 19 11 0 26 -6 33 -13 7 -7 17 -13 21 -13 12 1 97 -86 97
-99 0 -6 -35 -10 -91 -10 -76 0 -92 3 -100 18 -6 9 -17 17 -25 17 -20 0 -47
27 -40 39 3 5 -1 12 -10 15 -9 4 -14 9 -11 13 4 3 2 15 -4 27 -9 19 -8 19 10
-3 12 -13 21 -20 21 -16z m70 13 c0 -6 -6 -5 -15 2 -8 7 -15 14 -15 16 0 2 7
1 15 -2 8 -4 15 -11 15 -16z m974 -9 c15 -12 25 -24 22 -27 -3 -3 -15 3 -26
13 -14 13 -20 14 -20 5 0 -17 -13 -4 -16 15 -3 21 9 19 40 -6z m-1724 7 c0
-11 -19 -15 -25 -6 -3 5 1 10 9 10 9 0 16 -2 16 -4z m40 -8 c0 -4 -4 -8 -9 -8
-6 0 -12 4 -15 8 -3 5 1 9 9 9 8 0 15 -4 15 -9z m-205 -8 c3 -5 -1 -10 -9 -10
-8 0 -18 5 -21 10 -3 6 1 10 9 10 8 0 18 -4 21 -10z m2163 -113 c7 -16 12 -41
12 -57 0 -16 6 -30 13 -33 6 -2 8 -8 4 -13 -4 -5 -11 -4 -15 1 -15 21 -54 37
-61 26 -11 -18 -53 38 -58 76 -6 41 19 83 49 83 12 0 18 3 15 7 -4 3 -1 13 6
21 10 13 13 7 18 -34 3 -27 11 -62 17 -77z m22 115 c0 -5 11 -14 25 -20 14 -6
25 -19 25 -27 0 -11 -4 -13 -12 -8 -22 13 -38 12 -38 -3 0 -8 -4 -14 -9 -14
-5 0 -8 18 -8 40 1 22 5 40 10 40 4 0 7 -4 7 -8z m75 -2 c3 -5 1 -10 -4 -10
-6 0 -11 5 -11 10 0 6 2 10 4 10 3 0 8 -4 11 -10z m-1661 -15 c11 -8 28 -15
38 -15 10 0 18 -6 19 -12 0 -9 2 -10 5 -1 7 17 55 1 72 -25 13 -20 13 -22 -3
-22 -17 0 -17 -1 -2 -17 8 -10 19 -30 22 -45 4 -16 11 -28 16 -28 13 0 11 14
-3 28 -7 7 -8 12 -4 12 5 0 3 6 -3 14 -9 11 -8 17 3 29 8 8 13 17 11 21 -3 3
-2 3 3 0 7 -6 8 -11 11 -39 0 -8 5 -15 11 -15 5 0 7 7 4 15 -4 8 -3 23 1 33 6
15 8 15 26 -7 23 -28 81 -61 108 -61 10 0 24 -7 31 -15 10 -12 16 -13 27 -3 8
6 13 7 12 2 -1 -5 -1 -15 0 -23 1 -11 4 -11 16 -1 13 10 13 15 3 21 -7 4 -9
11 -6 15 13 13 39 -6 49 -35 6 -16 17 -32 24 -35 11 -4 14 6 12 49 -3 46 -1
51 11 37 7 -9 11 -12 8 -5 -4 6 -3 14 2 17 5 3 14 -11 21 -30 8 -23 18 -34 26
-30 9 3 12 0 8 -9 -3 -8 -9 -12 -14 -9 -5 3 -9 4 -9 2 0 -2 -7 -21 -14 -43
-13 -36 -13 -42 2 -60 16 -19 16 -19 0 -6 -16 12 -18 11 -19 -5 -1 -18 -2 -18
-6 -1 -3 11 -11 16 -18 13 -9 -3 -15 3 -17 17 -2 18 -9 22 -43 22 -23 0 -45 6
-51 14 -6 8 -18 11 -28 8 -9 -4 -15 -3 -12 2 8 13 -61 23 -81 12 -14 -7 -20
-4 -30 17 l-13 27 6 -29 c5 -27 4 -28 -12 -15 -15 12 -17 12 -12 -1 5 -15 34
-33 73 -45 14 -4 16 -8 7 -14 -15 -9 7 -30 50 -49 23 -9 26 -9 21 3 -3 9 1 15
11 15 9 0 16 -6 17 -12 0 -10 2 -10 5 -1 7 15 34 5 34 -12 0 -8 -10 -12 -25
-10 -14 1 -28 -2 -31 -6 -3 -5 0 -9 5 -9 6 0 11 -5 11 -10 0 -6 -15 -3 -32 7
-18 9 -36 16 -40 15 -5 -1 -8 4 -8 12 0 7 -16 21 -36 31 -24 11 -34 21 -30 31
3 9 1 12 -4 9 -6 -3 -27 10 -48 31 -20 20 -32 34 -26 30 7 -3 15 1 18 10 3 8
2 13 -2 10 -13 -8 -33 9 -36 30 -3 17 -13 20 -56 15 -5 0 -10 -6 -10 -12 0 -5
4 -8 9 -5 5 3 11 -1 15 -9 3 -9 0 -15 -9 -15 -8 0 -15 -6 -15 -12 0 -9 -4 -8
-10 2 -8 13 -10 13 -10 -1 0 -9 10 -23 21 -31 19 -12 20 -16 8 -36 -15 -23
-30 -24 -37 -2 -3 7 0 10 7 6 12 -8 14 4 5 27 -6 17 -43 11 -45 -7 -1 -6 -5 5
-9 24 -10 43 -7 47 19 21 12 -12 21 -16 21 -10 0 6 -6 17 -14 25 -8 8 -19 14
-25 14 -6 0 -11 7 -11 15 0 8 5 15 10 15 6 0 4 13 -5 30 -9 17 -20 28 -25 25
-14 -9 -12 -28 5 -61 9 -18 11 -30 4 -34 -6 -5 -6 -16 1 -34 8 -21 7 -28 -5
-32 -26 -10 -16 -25 12 -18 23 6 25 4 21 -13 -3 -11 -1 -28 4 -37 15 -27 -1
-38 -24 -16 -26 24 -42 26 -35 5 4 -8 2 -17 -2 -20 -5 -2 -11 4 -14 15 -3 11
-13 20 -22 20 -10 0 -13 -5 -9 -12 5 -7 3 -8 -5 -4 -7 5 -18 1 -25 -10 -16
-21 -46 -12 -45 13 0 11 3 13 6 6 2 -7 9 -13 14 -13 4 0 6 7 3 15 -5 11 -1 14
12 9 18 -5 18 -5 0 10 -18 15 -18 16 -2 16 10 0 14 5 11 11 -4 6 -14 8 -22 5
-11 -5 -13 -2 -9 10 5 14 4 15 -8 4 -14 -10 -15 -2 -12 65 2 42 6 79 9 82 3 2
22 -1 42 -8 34 -12 38 -12 51 6 8 10 14 24 13 29 0 6 -3 5 -6 -2 -2 -6 -9 -10
-14 -7 -5 4 -6 -2 -3 -12 5 -14 4 -15 -4 -4 -13 19 -7 34 20 46 27 13 37 38
11 29 -16 -6 -16 -5 2 9 24 20 25 20 49 2z m161 5 c3 -5 -1 -10 -9 -10 -8 0
-18 5 -21 10 -3 6 1 10 9 10 8 0 18 -4 21 -10z m525 -12 c0 -19 -2 -20 -10 -8
-13 19 -13 30 0 30 6 0 10 -10 10 -22z m72 0 c-7 -7 -12 -8 -12 -2 0 14 12 26
19 19 2 -3 -1 -11 -7 -17z m696 15 c12 10 14 9 10 -3 -2 -8 -16 -16 -30 -18
-21 -3 -25 -7 -21 -25 5 -21 5 -21 -13 -5 -17 17 -17 18 1 38 12 14 22 17 29
10 6 -6 14 -5 24 3z m-1908 -13 c0 -5 -4 -10 -10 -10 -5 0 -10 5 -10 10 0 6 5
10 10 10 6 0 10 -4 10 -10z m1740 0 c0 -5 -4 -10 -10 -10 -5 0 -10 5 -10 10 0
6 5 10 10 10 6 0 10 -4 10 -10z m688 -13 c20 -10 51 -31 67 -47 17 -15 39 -30
49 -34 10 -3 16 -9 13 -13 -4 -3 -20 0 -36 7 -17 7 -43 9 -60 5 -24 -5 -31 -3
-31 9 0 9 -4 16 -9 16 -5 0 -7 -8 -4 -19 3 -14 -2 -20 -21 -23 -15 -3 -29 -2
-32 3 -2 4 -18 6 -35 4 -20 -2 -32 1 -36 11 -5 13 -8 13 -22 1 -29 -25 -56
-18 -76 19 -10 19 -16 36 -14 39 3 2 25 13 49 25 57 26 146 25 198 -3z m-2114
-1 c-21 -15 -30 -14 -19 3 3 6 14 11 23 11 13 0 13 -2 -4 -14z m1094 -4 c2 -7
-2 -10 -12 -6 -9 3 -16 11 -16 16 0 13 23 5 28 -10z m-1138 -14 c0 -11 -5 -18
-12 -16 -19 7 -21 35 -3 35 8 0 15 -9 15 -19z m789 -38 c-1 -10 -3 -9 -6 3 -3
10 -17 23 -31 28 -21 8 -23 12 -12 19 17 11 50 -24 49 -50z m-1069 25 c6 -18
7 -18 17 -1 8 15 20 17 71 14 34 -1 62 0 62 4 0 4 11 2 25 -4 14 -6 25 -15 25
-21 0 -5 -11 -6 -25 -3 -17 4 -25 2 -25 -6 0 -9 -3 -8 -10 2 -8 13 -14 8 -12
-11 1 -3 -12 -3 -29 -1 -16 2 -29 10 -29 17 0 10 -8 11 -27 6 -16 -5 -27 -14
-25 -22 3 -10 -1 -9 -15 3 -10 9 -30 15 -45 13 -21 -2 -25 0 -21 13 5 11 3 13
-7 7 -7 -5 -11 -4 -7 1 10 17 70 8 77 -11z m965 15 c-3 -5 -1 -10 6 -10 7 0
10 -2 7 -5 -8 -9 -38 6 -32 16 3 5 10 9 15 9 6 0 7 -4 4 -10z m1695 -25 c17
-20 -15 -27 -34 -6 -14 15 -14 17 4 18 10 1 24 -4 30 -12z m-3796 -30 c65 -33
118 -99 109 -135 -3 -11 -1 -20 5 -20 18 0 33 -65 26 -111 -3 -24 -14 -63 -25
-86 -10 -24 -19 -47 -19 -53 0 -14 -109 -119 -153 -147 -51 -32 -144 -66 -158
-57 -7 4 -9 3 -6 -2 3 -6 -20 -11 -56 -12 -38 -1 -57 1 -49 7 11 6 10 9 -3 15
-23 8 -27 8 -20 -4 11 -18 -9 -10 -75 28 -57 33 -69 45 -98 102 -42 81 -39
108 20 246 53 121 105 179 210 230 68 33 79 35 153 32 65 -2 91 -9 139 -33z
m3011 13 c16 -7 25 -19 25 -35 0 -27 -15 -30 -28 -7 -6 12 -18 15 -36 12 -14
-3 -26 -1 -26 4 0 5 -4 7 -9 3 -5 -3 -12 -1 -16 4 -3 6 9 15 27 20 18 5 34 10
35 10 1 1 14 -4 28 -11z m-2075 -3 c0 -2 -10 -9 -22 -15 -22 -11 -22 -10 -4 4
21 17 26 19 26 11z m2271 -4 c4 7 11 10 14 7 10 -10 -4 -28 -21 -28 -8 0 -14
8 -13 18 0 12 2 13 6 3 4 -11 7 -11 14 0z m64 -1 c3 -5 1 -10 -4 -10 -6 0 -11
5 -11 10 0 6 2 10 4 10 3 0 8 -4 11 -10z m-1977 -49 c-2 -9 3 -15 10 -13 6 1
12 -2 12 -6 0 -21 -17 -20 -57 4 -24 14 -47 23 -52 20 -5 -3 -11 1 -14 8 -4
11 3 16 26 18 41 4 78 -11 75 -31z m1553 10 c7 -16 6 -20 -4 -15 -27 15 -37
27 -31 36 9 14 26 4 35 -21z m-1682 -17 c14 -31 12 -30 -21 5 -22 23 -24 28
-9 24 10 -2 24 -16 30 -29z m1241 17 c0 -6 -4 -12 -8 -15 -5 -3 -9 1 -9 9 0 8
4 15 9 15 4 0 8 -4 8 -9z m35 -1 c4 -6 11 -8 16 -5 14 9 10 -8 -8 -30 -15 -20
-15 -20 -10 3 3 14 -1 25 -11 32 -10 5 -12 10 -5 10 6 0 15 -5 18 -10z m810 0
c9 15 25 2 18 -15 -7 -19 -37 -19 -52 -2 -14 17 -2 30 15 16 8 -7 14 -7 19 1z
m-1981 -49 c4 -5 -3 -7 -14 -4 -11 3 -20 10 -20 15 0 5 -4 7 -10 3 -5 -3 -1
-14 10 -25 22 -22 26 -40 9 -40 -6 0 -13 9 -16 20 -3 11 -9 20 -14 20 -14 0
-11 28 4 33 13 5 43 -8 51 -22z m63 -3 c-3 -8 -6 -5 -6 6 -1 11 2 17 5 13 3
-3 4 -12 1 -19z m1762 -37 c30 -59 35 -81 17 -81 -9 0 -13 -6 -10 -14 4 -11 0
-13 -15 -9 -12 3 -21 11 -21 19 0 7 -6 11 -14 8 -8 -3 -17 -1 -20 4 -3 5 0 10
7 9 47 -1 54 3 49 31 -3 15 -14 43 -25 62 -16 28 -16 32 -2 20 9 -7 25 -30 34
-49z m721 44 c-7 -9 -15 -13 -19 -10 -3 3 1 10 9 15 21 14 24 12 10 -5z
m-2856 -21 c3 -8 2 -12 -4 -9 -6 3 -10 10 -10 16 0 14 7 11 14 -7z m259 -39
c30 -29 35 -45 12 -45 -13 0 -13 -3 -3 -20 10 -15 10 -22 0 -32 -9 -9 -12 -9
-12 4 0 8 -10 23 -22 31 -20 14 -21 18 -8 26 10 7 11 11 3 11 -7 0 -13 11 -13
25 0 32 8 31 43 0z m1738 -15 c7 0 9 -3 6 -7 -8 -8 -77 28 -77 40 0 5 13 -1
29 -12 16 -12 35 -21 42 -21z m259 -20 c0 -21 -5 -30 -16 -30 -10 0 -14 -6
-10 -15 4 -11 -2 -15 -25 -15 -18 0 -28 -4 -24 -10 3 -5 1 -10 -4 -10 -16 0
-13 22 4 47 12 16 12 23 3 29 -8 5 1 12 23 20 48 18 49 17 49 -16z m-2705 10
c3 -5 -1 -10 -9 -10 -8 0 -18 5 -21 10 -3 6 1 10 9 10 8 0 18 -4 21 -10z m457
1 c3 8 12 4 27 -12 18 -19 21 -31 16 -59 -9 -45 -10 -46 -36 -22 l-21 21 21
-6 c12 -3 21 -1 21 6 0 6 -7 11 -15 11 -8 0 -15 5 -15 11 0 5 -4 8 -8 5 -4 -2
-14 5 -21 17 -11 18 -11 20 0 10 22 -22 33 -14 13 9 -13 16 -14 19 -2 10 12
-10 17 -10 20 -1z m191 -20 c-2 -6 1 -11 6 -11 5 0 11 -10 15 -22 5 -20 8 -21
17 -8 8 12 10 12 7 1 -2 -8 -12 -15 -21 -17 -9 -1 -15 2 -11 7 3 5 0 9 -5 9
-6 0 -11 -7 -11 -16 0 -10 -6 -14 -14 -11 -9 4 -16 -1 -18 -11 -3 -12 -11 -5
-31 25 -14 23 -31 44 -37 48 -20 12 -10 22 20 19 17 -2 30 0 30 5 0 5 12 6 28
2 15 -5 26 -13 25 -20z m1248 5 c15 -13 25 -26 22 -29 -3 -4 -13 4 -23 16 -16
19 -20 20 -46 8 -29 -13 -29 -13 -10 8 24 26 22 26 57 -3z m29 14 c0 -5 -2
-10 -4 -10 -3 0 -8 5 -11 10 -3 6 -1 10 4 10 6 0 11 -4 11 -10z m477 4 c-3 -3
-12 -4 -19 -1 -8 3 -5 6 6 6 11 1 17 -2 13 -5z m26 -31 c-7 -2 -21 -2 -30 0
-10 3 -4 5 12 5 17 0 24 -2 18 -5z m63 -2 c-3 -5 8 -11 24 -15 17 -3 30 -10
30 -16 0 -12 -37 -4 -57 12 -12 9 -9 28 3 28 3 0 3 -4 0 -9z m-113 -35 c-6
-14 -16 -10 -32 14 l-16 25 25 -16 c14 -9 24 -19 23 -23z m-1814 -16 c10 0 27
-42 20 -50 -2 -3 -8 -4 -13 -2 -5 2 -6 -4 -3 -11 4 -11 0 -13 -14 -10 -12 3
-18 11 -15 19 3 7 1 16 -4 19 -5 3 -8 13 -8 23 0 9 -3 26 -7 36 -8 17 -6 17
13 -2 12 -12 26 -22 31 -22z m617 4 c-5 -13 -10 -14 -18 -6 -6 6 -8 18 -4 28
5 13 10 14 18 6 6 -6 8 -18 4 -28z m664 10 c8 -7 39 -20 67 -29 29 -10 51 -21
48 -25 -3 -5 8 -14 24 -21 20 -9 25 -16 18 -24 -8 -8 -16 -6 -30 8 -10 10 -22
16 -25 12 -4 -3 0 -10 8 -15 8 -5 15 -19 15 -32 0 -14 5 -22 13 -20 8 1 11 -2
6 -9 -5 -8 -2 -10 8 -6 21 8 30 -3 17 -20 -9 -10 -17 -7 -40 20 -16 17 -29 40
-29 49 0 9 -5 20 -10 23 -6 4 -8 16 -4 28 6 19 5 20 -10 8 -14 -12 -16 -11
-16 5 0 14 -3 15 -8 6 -6 -9 -20 -1 -53 29 -39 36 -38 46 1 13z m600 -6 l24
-33 -28 19 c-24 15 -30 16 -38 5 -8 -11 -9 -10 -4 4 3 9 1 17 -4 17 -6 0 -10
5 -10 10 0 22 38 8 60 -22z m-797 -8 c3 -12 0 -20 -7 -20 -18 0 -25 10 -19 26
7 20 20 17 26 -6z m-83 -51 c0 -4 -20 -15 -44 -25 -24 -10 -42 -22 -40 -26 10
-16 -9 -7 -36 16 l-29 24 40 6 c22 3 47 15 56 26 16 18 18 18 35 3 10 -9 18
-19 18 -24z m470 20 c0 -4 -7 -6 -15 -3 -8 4 -15 10 -15 15 0 4 7 6 15 3 8 -4
15 -10 15 -15z m-764 -9 c-4 21 -3 22 7 10 7 -8 21 -16 32 -18 11 -2 25 -10
32 -19 6 -8 17 -12 23 -8 8 5 11 1 8 -11 -2 -11 -10 -18 -16 -16 -7 1 -12 -5
-12 -13 0 -9 -6 -12 -15 -9 -8 4 -15 12 -15 20 0 8 -6 11 -15 8 -9 -4 -15 0
-15 9 0 8 -8 14 -17 13 -13 -1 -19 7 -21 29 l-2 30 15 -25 16 -25 -5 25z m545
1 c6 10 8 7 6 -8 -1 -17 -4 -19 -14 -11 -7 6 -13 16 -12 22 0 6 3 5 6 -3 5
-11 7 -11 14 0z m76 -31 c10 -15 9 -17 -7 -13 -11 3 -17 9 -14 14 3 5 -4 9
-15 9 -12 0 -21 7 -21 15 0 19 41 2 57 -25z m1226 5 c-7 -21 -13 -19 -13 6 0
11 4 18 10 14 5 -3 7 -12 3 -20z m-2648 -15 c10 -11 14 -20 8 -20 -5 0 -18 9
-28 20 -10 11 -14 20 -8 20 5 0 18 -9 28 -20z m2125 10 c0 -5 -2 -10 -4 -10
-3 0 -8 5 -11 10 -3 6 -1 10 4 10 6 0 11 -4 11 -10z m592 -30 c7 0 30 -11 52
-24 28 -17 34 -24 23 -29 -9 -3 -18 1 -21 9 -10 25 -23 15 -20 -16 2 -16 0
-30 -6 -30 -15 0 -52 59 -44 72 4 7 4 10 -1 6 -4 -4 -14 0 -22 10 -13 15 -14
14 -10 -12 6 -35 -1 -58 -15 -50 -6 4 -5 10 3 15 11 7 11 11 1 17 -10 7 -10
16 -1 42 l12 33 18 -21 c9 -12 23 -22 31 -22z m-2132 0 c0 -5 -4 -10 -10 -10
-5 0 -10 5 -10 10 0 6 5 10 10 10 6 0 10 -4 10 -10z m978 -11 c12 -19 11 -19
-8 -9 -11 6 -20 15 -20 20 0 17 15 11 28 -11z m69 -1 c26 -30 36 -48 26 -48
-4 0 -16 14 -25 30 -18 32 -42 42 -31 13 6 -16 5 -16 -11 -4 -13 11 -14 16 -4
22 19 12 22 11 45 -13z m-271 -16 c7 -9 16 -12 25 -7 10 6 11 5 4 -3 -13 -15
-57 -4 -48 12 3 6 -3 2 -15 -8 -26 -22 -33 -19 -26 11 4 15 11 19 27 15 12 -3
27 -12 33 -20z m87 11 c-4 -10 -2 -14 4 -10 10 6 31 -13 48 -43 8 -13 7 -13
-10 0 -17 13 -18 13 -13 -1 5 -12 1 -16 -13 -15 -24 1 -39 23 -31 44 3 10 1
13 -6 8 -6 -3 -14 -1 -18 5 -4 8 -3 9 5 5 6 -4 14 0 17 8 3 9 10 16 15 16 4 0
5 -7 2 -17z m-523 -3 c0 -5 -4 -10 -10 -10 -5 0 -10 5 -10 10 0 6 5 10 10 10
6 0 10 -4 10 -10z m1430 -10 c0 -5 -2 -10 -4 -10 -3 0 -8 5 -11 10 -3 6 -1 10
4 10 6 0 11 -4 11 -10z m-930 -54 c0 -4 -9 -1 -19 6 -11 7 -17 16 -15 20 5 8
34 -15 34 -26z m163 20 c3 -8 0 -16 -6 -19 -7 -3 -13 3 -13 14 0 22 12 25 19
5z m-343 -10 c0 -15 40 -54 40 -40 1 10 30 -26 30 -37 0 -11 -43 2 -62 18 -14
13 -18 12 -28 -6 -10 -20 -7 -23 37 -42 26 -11 55 -24 63 -29 8 -5 30 -17 48
-26 18 -9 38 -24 45 -34 7 -9 19 -20 27 -24 8 -3 4 -4 -10 -1 -14 2 -35 5 -48
5 -12 0 -30 9 -39 20 -10 11 -26 20 -37 20 -18 0 -19 -1 -1 -20 30 -33 10 -33
-25 0 -18 16 -39 30 -47 30 -8 0 -11 5 -7 11 3 6 18 9 33 6 l26 -5 -24 19
c-13 10 -29 19 -36 19 -17 0 -26 37 -16 64 5 11 5 30 1 41 -6 16 -4 21 11 22
10 1 19 -4 19 -11z m110 4 c8 -5 12 -11 9 -14 -3 -3 -14 1 -25 9 -21 16 -8 20
16 5z m1450 -10 c-8 -5 -17 -7 -19 -4 -3 3 1 9 9 14 8 5 17 7 19 4 3 -3 -1 -9
-9 -14z m-1510 -5 c0 -8 -7 -15 -15 -15 -9 0 -12 6 -9 15 4 8 10 15 15 15 5 0
9 -7 9 -15z m-642 -22 c-6 -16 -49 -86 -96 -157 -56 -86 -86 -125 -92 -117 -5
9 -10 10 -14 3 -7 -12 -36 -5 -36 9 0 5 6 9 13 9 23 0 72 53 124 135 66 103
96 144 105 145 4 0 2 -12 -4 -27z m1662 4 c30 -4 56 -11 58 -17 2 -5 8 -10 13
-10 5 0 18 -8 29 -17 14 -13 17 -20 8 -30 -8 -10 -7 -13 2 -13 10 0 10 -3 0
-15 -7 -8 -9 -15 -4 -15 5 0 10 -12 11 -27 1 -21 -1 -23 -8 -11 -7 13 -29 15
-130 15 -126 0 -142 5 -132 44 3 10 9 19 14 19 5 0 6 6 3 14 -4 9 8 23 30 38
20 13 36 30 36 38 0 10 3 11 8 4 4 -6 32 -14 62 -17z m408 -25 c7 -5 10 -16 6
-25 -3 -9 -10 -14 -15 -11 -5 3 -6 10 -3 16 4 7 2 8 -4 4 -22 -13 -13 -36 14
-36 14 0 23 -4 20 -9 -9 -13 -45 -1 -55 18 -14 25 -14 33 1 42 16 11 20 11 36
1z m-167 -22 c17 0 43 -38 33 -49 -5 -6 -93 29 -99 39 -3 4 4 6 15 3 12 -3 20
-2 19 3 -3 17 3 29 8 17 2 -7 13 -13 24 -13z m266 8 c0 -7 -12 -14 -26 -15
l-26 -1 25 14 c14 7 25 13 26 14 0 0 1 -6 1 -12z m-57 -19 c0 -6 -4 -7 -10 -4
-5 3 -10 11 -10 16 0 6 5 7 10 4 6 -3 10 -11 10 -16z m-1128 -13 c10 -7 15
-16 12 -19 -7 -7 -44 14 -44 25 0 12 13 9 32 -6z m-586 -46 c17 0 18 -22 2
-38 -17 -17 -25 -15 -31 8 -6 25 -24 26 -30 3 -4 -17 -5 -17 -12 1 -6 13 -3
21 9 28 9 5 22 15 29 23 10 11 13 10 15 -6 2 -10 10 -19 18 -19z m514 30 c0
-5 -2 -10 -4 -10 -3 0 -8 5 -11 10 -3 6 -1 10 4 10 6 0 11 -4 11 -10z m1141
-33 c-10 -9 -11 -8 -5 6 3 10 9 15 12 12 3 -3 0 -11 -7 -18z m-107 -28 c-3 -5
3 -9 12 -9 13 0 15 -3 7 -11 -14 -14 -36 -2 -29 16 2 7 -2 16 -10 19 -8 3 -14
11 -14 17 0 7 8 5 20 -6 11 -10 17 -22 14 -26z m216 37 c0 -2 -7 -6 -15 -10
-8 -3 -15 -1 -15 4 0 6 7 10 15 10 8 0 15 -2 15 -4z m-2112 -31 c-8 -8 -48 8
-42 16 3 5 14 4 25 -2 12 -6 19 -12 17 -14z m1467 -20 c38 -4 73 -14 81 -23
14 -14 13 -17 -13 -29 -15 -7 -20 -11 -10 -8 11 3 15 1 12 -5 -4 -6 -2 -25 4
-43 12 -36 13 -47 6 -47 -3 1 -13 -6 -22 -15 -14 -14 -17 -14 -32 0 -20 17
-61 21 -61 5 0 -5 11 -10 24 -10 17 0 30 -10 44 -33 18 -31 18 -35 3 -54 -18
-22 -51 -37 -51 -23 0 5 -12 3 -26 -4 -19 -11 -32 -11 -55 -3 -16 6 -29 15
-29 19 0 4 -5 8 -11 8 -6 0 -26 15 -44 34 -26 25 -31 36 -22 45 8 8 7 11 -3
11 -11 1 -10 3 3 11 9 6 15 14 12 18 -6 10 72 24 86 16 12 -8 12 -3 -5 36 -13
30 -12 37 5 71 12 23 15 39 9 43 -6 3 -10 10 -10 16 0 5 9 0 19 -10 13 -13 41
-22 86 -26z m-1523 18 c9 -10 21 -35 26 -55 9 -32 8 -36 -6 -30 -14 5 -15 3
-4 -10 11 -14 7 -16 -38 -14 -30 0 -50 6 -50 13 0 6 -5 13 -11 15 -7 2 -7 12
2 31 8 17 15 23 19 16 6 -8 13 -8 30 1 16 9 19 15 11 23 -6 6 -11 15 -11 19 0
14 16 9 32 -9z m448 -28 c10 -12 10 -19 2 -27 -9 -9 -12 -8 -12 5 0 9 -4 17
-10 17 -5 0 -10 5 -10 10 0 15 16 12 30 -5z m-610 -3 c0 -5 -6 -17 -14 -28
-10 -13 -14 -14 -13 -4 4 26 27 54 27 32z m205 -2 c3 -5 1 -10 -4 -10 -6 0
-11 5 -11 10 0 6 2 10 4 10 3 0 8 -4 11 -10z m-389 -15 c-3 -9 0 -15 9 -15 8
0 15 -7 15 -16 0 -8 4 -13 9 -10 5 4 11 1 13 -4 6 -18 42 -18 55 -1 18 24 25
8 7 -17 -13 -18 -19 -20 -36 -11 -14 8 -23 8 -27 1 -4 -7 -16 -3 -31 10 -14
11 -19 17 -12 13 6 -3 12 -1 12 4 0 6 -9 11 -20 11 -11 0 -20 -4 -20 -10 0 -5
-4 -10 -10 -10 -17 0 -11 19 13 45 26 28 31 30 23 10z m2083 -19 c18 -14 39
-22 46 -20 7 3 23 -10 36 -28 13 -18 28 -36 34 -40 6 -5 5 -8 -3 -8 -7 0 -10
-4 -7 -10 3 -5 1 -10 -4 -10 -6 0 -11 5 -11 10 0 6 -7 10 -15 10 -19 0 -84 33
-85 43 0 11 14 8 40 -10 l25 -17 -19 22 c-12 14 -31 22 -49 22 -17 0 -28 3
-24 6 3 3 2 17 -3 30 -12 30 -2 30 39 0z m255 8 c5 -14 4 -15 -9 -4 -17 14
-19 20 -6 20 5 0 12 -7 15 -16z m-1297 -36 c-3 -8 -6 -5 -6 6 -1 11 2 17 5 13
3 -3 4 -12 1 -19z m-1067 -44 c0 -21 -17 -17 -23 5 -3 14 -1 18 9 14 8 -3 14
-11 14 -19z m328 3 c3 -14 -1 -15 -27 -6 -35 12 -34 27 1 24 13 -1 24 -9 26
-18z m1274 1 c-7 -7 -12 -8 -12 -2 0 14 12 26 19 19 2 -3 -1 -11 -7 -17z m73
-5 c6 -25 -15 -56 -23 -33 -2 6 -9 10 -16 10 -6 0 -12 10 -14 23 -1 17 4 23
22 25 18 1 26 -5 31 -25z m-1298 -19 c-7 -7 -37 7 -37 17 0 6 9 5 21 -1 11 -7
19 -14 16 -16z m1659 -38 c17 -5 24 -13 24 -32 0 -19 -3 -22 -12 -14 -7 5 -23
18 -36 28 -17 13 -21 22 -15 37 6 17 8 17 11 3 2 -9 14 -19 28 -22z m243 -10
c9 -10 7 -19 -9 -37 -16 -19 -19 -20 -13 -5 4 12 3 17 -4 13 -14 -9 -37 19
-28 33 9 14 40 12 54 -4z m-1404 -7 c12 -18 -3 -22 -20 -5 -14 14 -14 16 -1
16 8 0 18 -5 21 -11z m-725 -16 c-1 -12 -29 -59 -30 -49 0 15 -30 -16 -30 -33
-1 -15 -50 -84 -50 -69 0 8 67 125 83 146 10 13 27 16 27 5z m654 -71 c-14
-26 -52 -94 -84 -152 -74 -133 -214 -369 -235 -395 -17 -22 53 122 111 225
120 218 218 379 226 374 5 -3 -3 -27 -18 -52z m1381 8 c23 -9 26 -13 15 -20
-9 -5 -19 -5 -27 2 -7 6 -13 7 -13 2 0 -5 -5 -2 -10 6 -5 8 -15 16 -22 16 -7
1 -17 2 -22 3 -5 0 -3 8 4 16 11 14 15 14 29 1 9 -8 29 -20 46 -26z m-95 20
c0 -5 -4 -10 -9 -10 -6 0 -13 5 -16 10 -3 6 1 10 9 10 9 0 16 -4 16 -10z m-65
-35 c11 -11 30 -34 42 -52 18 -27 19 -33 7 -33 -8 0 -12 -4 -9 -10 3 -5 1 -10
-4 -10 -6 0 -11 7 -11 15 0 8 -7 15 -15 15 -16 0 -95 74 -95 88 0 16 66 6 85
-13z m205 -75 c0 -5 -2 -10 -4 -10 -3 0 -8 5 -11 10 -3 6 -1 10 4 10 6 0 11
-4 11 -10z m-969 -37 c13 -16 12 -17 -3 -4 -10 7 -18 15 -18 17 0 8 8 3 21
-13z m399 7 c12 -8 12 -10 -5 -10 -11 0 -27 5 -35 10 -12 8 -12 10 5 10 11 0
27 -5 35 -10z m460 -15 c26 -28 23 -31 -15 -13 -14 6 -25 17 -25 25 0 20 14
16 40 -12z m-400 -20 c10 -12 9 -15 -3 -15 -11 0 -14 -6 -10 -17 4 -12 -5 -8
-25 11 -18 17 -32 30 -32 30 0 1 13 2 29 3 16 1 35 -4 41 -12z m172 -10 c14
-19 8 -23 -27 -15 -20 4 -38 4 -41 -1 -3 -5 -10 -7 -15 -4 -5 4 -4 11 2 18 14
15 71 16 81 2z m-1420 -30 c12 -16 9 -25 -7 -19 -11 4 -13 2 -9 -9 3 -8 1 -18
-5 -22 -6 -3 -14 1 -17 9 -3 9 -15 16 -25 16 -10 0 -19 5 -19 10 0 6 5 10 11
10 5 0 8 4 4 10 -8 12 58 8 67 -5z m1294 -54 c15 -27 17 -38 8 -34 -8 3 -17
16 -20 29 -3 13 -12 24 -20 24 -8 0 -14 5 -14 10 0 24 27 7 46 -29z m-289 -55
c-13 -15 -27 -12 -27 5 0 6 5 7 10 4 6 -3 10 -1 10 5 0 6 4 8 10 5 6 -4 5 -11
-3 -19z m-899 -36 c-14 -40 -24 -45 -56 -24 -20 13 -23 19 -12 22 8 3 19 11
23 18 4 8 19 14 32 14 22 0 23 -2 13 -30z m-447 -3 c-10 -9 -11 -8 -5 6 3 10
9 15 12 12 3 -3 0 -11 -7 -18z m1114 3 c-3 -5 -1 -10 6 -10 7 0 10 -3 6 -6 -9
-9 -28 6 -22 17 4 5 8 9 11 9 3 0 2 -4 -1 -10z m30 -50 c4 -6 -5 -9 -19 -8
-15 1 -26 6 -26 10 0 12 38 10 45 -2z m295 -14 c0 -11 -19 -15 -25 -6 -3 5 1
10 9 10 9 0 16 -2 16 -4z m-485 -34 c-3 -3 -11 0 -18 7 -9 10 -8 11 6 5 10 -3
15 -9 12 -12z m-260 -12 c3 -6 -1 -7 -9 -4 -18 7 -21 14 -7 14 6 0 13 -4 16
-10z m175 -30 c0 -5 -2 -10 -4 -10 -3 0 -8 5 -11 10 -3 6 -1 10 4 10 6 0 11
-4 11 -10z m1413 -70 c3 -11 1 -20 -4 -20 -5 0 -9 -7 -9 -15 0 -8 -2 -15 -4
-15 -2 0 -13 -3 -23 -7 -17 -6 -17 -6 0 14 10 12 14 24 9 27 -5 3 -7 17 -4 31
3 19 8 23 17 15 7 -6 15 -20 18 -30z m427 -30 c-12 -7 -10 -11 10 -19 24 -10
24 -10 -5 -7 -16 3 -33 5 -37 5 -15 2 -8 20 10 24 30 8 38 7 22 -3z m-576 -29
c3 -5 -3 -11 -14 -14 -20 -5 -26 3 -13 16 9 10 21 9 27 -2z m235 -90 c15 -23
15 -23 -19 -17 l-35 7 38 -21 c31 -17 36 -24 27 -35 -9 -11 -17 -12 -32 -4
-21 11 -48 6 -48 -10 0 -5 8 -11 18 -13 14 -3 13 -5 -6 -10 -13 -4 -28 -1 -36
7 -7 8 -16 12 -19 9 -11 -12 -44 20 -39 38 5 19 22 25 22 7 0 -5 5 -7 10 -4 6
4 8 10 5 15 -3 4 2 10 10 14 8 3 15 1 15 -4 0 -6 4 -10 9 -10 4 0 7 12 7 28
-2 41 12 56 37 39 11 -7 27 -24 36 -36z m316 9 c-3 -5 -14 -10 -23 -9 -14 0
-13 2 3 9 27 11 27 11 20 0z m-1205 -21 c0 6 6 11 14 11 11 0 12 -5 3 -25 -18
-37 -43 -30 -60 18 -6 16 -5 16 18 1 15 -10 25 -12 25 -5z m290 11 c0 -5 -2
-10 -4 -10 -3 0 -8 5 -11 10 -3 6 -1 10 4 10 6 0 11 -4 11 -10z m423 -17 c-7
-2 -21 -2 -30 0 -10 3 -4 5 12 5 17 0 24 -2 18 -5z m277 -28 c0 -2 -9 -9 -20
-15 -16 -9 -18 -8 -14 5 5 13 34 22 34 10z m-1046 -24 c3 -4 -4 -7 -14 -8 -11
-1 -22 2 -24 6 -3 4 4 7 14 8 11 1 22 -2 24 -6z"/>
<path d="M829 2923 c-12 -16 -12 -17 2 -6 9 7 20 9 24 5 5 -4 5 -1 1 6 -9 16
-11 15 -27 -5z"/>
<path d="M1538 2913 c7 -3 16 -2 19 1 4 3 -2 6 -13 5 -11 0 -14 -3 -6 -6z"/>
<path d="M1650 2860 c0 -5 7 -10 15 -10 8 0 15 5 15 10 0 6 -7 10 -15 10 -8 0
-15 -4 -15 -10z"/>
<path d="M1210 2821 c0 -5 6 -12 13 -14 6 -3 2 -6 -10 -6 -29 -1 -55 -38 -43
-61 14 -25 77 -60 96 -53 13 5 11 10 -12 29 -31 27 -12 33 24 8 12 -8 28 -13
35 -11 7 3 6 6 -4 6 -19 1 -42 25 -33 34 4 3 13 -1 21 -9 8 -8 20 -11 26 -7 7
4 6 8 -3 11 -8 2 -21 12 -29 21 -10 12 -15 13 -18 4 -3 -7 -17 -13 -31 -12
-15 0 -21 3 -14 6 6 2 10 9 7 14 -3 5 -1 18 5 29 9 17 8 20 -10 20 -11 0 -20
-4 -20 -9z"/>
<path d="M721 2794 c-6 -15 -9 -29 -6 -32 3 -4 8 4 12 16 3 12 9 22 14 22 5 0
9 5 9 10 0 19 -17 10 -29 -16z"/>
<path d="M1047 2773 c-24 -10 -36 -21 -33 -29 3 -7 2 -15 -2 -17 -4 -2 -2 -3
3 -2 6 1 30 -9 55 -22 26 -14 35 -21 20 -18 -78 17 -80 17 -80 4 0 -8 -6 -26
-14 -40 -7 -15 -13 -39 -13 -54 0 -27 0 -27 49 -21 29 4 59 16 71 27 l22 20
-24 18 c-15 11 -20 21 -13 25 6 4 16 -2 22 -13 14 -28 73 -43 81 -22 8 21 -1
52 -13 45 -6 -4 -8 2 -3 15 5 15 -2 29 -27 54 -43 44 -56 48 -101 30z m88 -41
c-3 -3 -11 0 -18 7 -9 10 -8 11 6 5 10 -3 15 -9 12 -12z"/>
<path d="M895 2740 c-3 -5 -1 -10 4 -10 6 0 11 5 11 10 0 6 -2 10 -4 10 -3 0
-8 -4 -11 -10z"/>
<path d="M1428 2743 c6 -2 18 -2 25 0 6 3 1 5 -13 5 -14 0 -19 -2 -12 -5z"/>
<path d="M1413 2716 c3 -8 1 -17 -6 -19 -17 -6 21 -34 55 -41 32 -6 58 1 58
16 0 6 -7 4 -17 -3 -14 -12 -16 -12 -11 1 6 18 -7 31 -45 48 -36 15 -40 15
-34 -2z"/>
<path d="M1615 2690 c-3 -5 -1 -10 4 -10 6 0 11 5 11 10 0 6 -2 10 -4 10 -3 0
-8 -4 -11 -10z"/>
<path d="M830 2671 c0 -23 8 -31 25 -24 16 6 9 29 -11 37 -9 3 -14 -1 -14 -13z"/>
<path d="M1228 2623 c-10 -2 -18 -11 -18 -20 0 -9 -6 -13 -15 -9 -8 3 -15 1
-15 -4 0 -6 4 -10 9 -10 5 0 17 -3 27 -7 10 -4 15 -2 11 4 -7 11 22 11 40 0 7
-5 10 0 7 15 -2 13 -2 17 2 11 3 -7 13 -13 21 -13 11 0 8 6 -10 20 -26 20 -29
21 -59 13z"/>
<path d="M858 2583 c7 -3 16 -2 19 1 4 3 -2 6 -13 5 -11 0 -14 -3 -6 -6z"/>
<path d="M1024 2555 c-10 -8 -14 -15 -8 -15 6 0 17 7 24 15 16 19 9 19 -16 0z"/>
<path d="M1610 2559 c0 -5 5 -7 10 -4 6 3 10 8 10 11 0 2 -4 4 -10 4 -5 0 -10
-5 -10 -11z"/>
<path d="M1190 2533 c0 -15 -4 -23 -8 -18 -23 31 -65 3 -82 -55 -9 -32 -9 -32
10 -15 16 14 20 15 20 4 0 -8 9 -15 20 -16 14 -1 20 4 20 18 0 11 5 17 10 14
6 -3 10 1 10 9 0 10 6 13 16 9 8 -3 13 -12 10 -19 -8 -20 8 -17 27 4 21 23 21
32 1 32 -10 0 -14 6 -11 14 4 10 1 13 -9 9 -8 -3 -14 1 -14 10 0 9 -4 19 -10
22 -6 4 -10 -6 -10 -22z"/>
<path d="M1265 2530 c3 -5 8 -10 11 -10 2 0 4 5 4 10 0 6 -5 10 -11 10 -5 0
-7 -4 -4 -10z"/>
<path d="M815 2520 c-3 -5 -1 -10 4 -10 6 0 11 5 11 10 0 6 -2 10 -4 10 -3 0
-8 -4 -11 -10z"/>
<path d="M740 2516 c0 -2 8 -10 18 -17 15 -13 16 -12 3 4 -13 16 -21 21 -21
13z"/>
<path d="M1013 2506 c-12 -14 -8 -26 8 -26 5 0 13 9 19 20 13 24 -7 28 -27 6z"/>
<path d="M1030 2463 c0 -6 12 -25 26 -42 14 -17 21 -31 15 -31 -6 0 -11 -5
-11 -11 0 -7 12 -8 33 -4 45 10 55 22 34 42 -12 13 -17 14 -17 4 0 -11 -3 -11
-15 -1 -8 7 -15 19 -15 27 0 10 -6 13 -17 9 -9 -4 -20 -1 -25 6 -5 9 -8 9 -8
1z"/>
<path d="M880 2450 c8 -5 20 -10 25 -10 6 0 3 5 -5 10 -8 5 -19 10 -25 10 -5
0 -3 -5 5 -10z"/>
<path d="M2785 2790 c3 -5 8 -10 11 -10 2 0 4 5 4 10 0 6 -5 10 -11 10 -5 0
-7 -4 -4 -10z"/>
<path d="M2860 2789 c0 -5 5 -7 10 -4 6 3 10 8 10 11 0 2 -4 4 -10 4 -5 0 -10
-5 -10 -11z"/>
<path d="M2820 2782 c0 -12 19 -26 26 -19 2 2 -2 10 -11 17 -9 8 -15 8 -15 2z"/>
<path d="M2925 2690 c3 -5 8 -10 11 -10 2 0 4 5 4 10 0 6 -5 10 -11 10 -5 0
-7 -4 -4 -10z"/>
<path d="M3550 2663 c1 -14 28 -44 32 -36 3 4 -3 16 -14 26 -10 9 -18 14 -18
10z"/>
<path d="M3156 2417 c3 -10 9 -15 12 -12 3 3 0 11 -7 18 -10 9 -11 8 -5 -6z"/>
<path d="M3220 2362 c0 -12 19 -26 26 -19 2 2 -2 10 -11 17 -9 8 -15 8 -15 2z"/>
<path d="M3247 2301 c3 -9 10 -21 15 -28 6 -7 7 -16 4 -22 -3 -5 3 -7 14 -4
12 3 18 11 15 17 -3 6 -8 18 -11 28 -3 9 -14 18 -24 21 -14 4 -17 1 -13 -12z"/>
<path d="M3210 2286 c0 -2 7 -9 15 -16 13 -11 14 -10 9 4 -5 14 -24 23 -24 12z"/>
<path d="M3896 2267 c-22 -12 -41 -26 -43 -32 -4 -14 14 -41 23 -32 4 3 1 13
-6 22 -10 12 -10 15 3 15 8 0 18 6 21 13 3 6 4 0 1 -15 -3 -17 -1 -28 6 -28 6
0 9 -7 6 -15 -13 -31 11 -22 26 10 9 19 13 34 9 34 -18 -3 -21 3 -12 26 5 14
8 25 7 25 -1 0 -20 -10 -41 -23z"/>
<path d="M3910 2140 c0 -5 5 -10 10 -10 6 0 10 5 10 10 0 6 -4 10 -10 10 -5 0
-10 -4 -10 -10z"/>
<path d="M3070 2230 c8 -5 20 -10 25 -10 6 0 3 5 -5 10 -8 5 -19 10 -25 10 -5
0 -3 -5 5 -10z"/>
<path d="M3034 2125 c22 -19 46 -35 55 -34 10 0 12 2 4 6 -7 2 -13 11 -13 19
0 9 -4 13 -8 10 -5 -3 -16 4 -25 15 -9 10 -25 19 -34 19 -13 -1 -7 -10 21 -35z"/>
<path d="M1970 2083 c0 -6 8 -17 18 -24 16 -13 16 -13 2 6 -8 11 -16 22 -17
24 -2 2 -3 0 -3 -6z"/>
<path d="M3874 1993 c-4 -10 -6 -21 -6 -25 1 -5 -3 -8 -9 -8 -6 0 -1 -8 12
-19 13 -10 30 -16 38 -13 12 4 12 7 -1 16 -8 6 -14 23 -14 39 2 31 -8 36 -20
10z"/>
<path d="M4051 1894 c0 -11 3 -14 6 -6 3 7 2 16 -1 19 -3 4 -6 -2 -5 -13z"/>
<path d="M2860 1920 c-11 -7 -6 -10 20 -10 26 0 31 3 20 10 -8 5 -17 10 -20
10 -3 0 -12 -5 -20 -10z"/>
<path d="M1700 1945 c7 -9 15 -13 17 -11 7 7 -7 26 -19 26 -6 0 -6 -6 2 -15z"/>
<path d="M2750 1830 c0 -5 5 -10 11 -10 5 0 7 5 4 10 -3 6 -8 10 -11 10 -2 0
-4 -4 -4 -10z"/>
<path d="M2730 1756 c0 -2 7 -7 16 -10 8 -3 12 -2 9 4 -6 10 -25 14 -25 6z"/>
<path d="M2350 1590 c0 -5 5 -10 10 -10 6 0 10 5 10 10 0 6 -4 10 -10 10 -5 0
-10 -4 -10 -10z"/>
<path d="M587 1689 c-4 -16 -11 -19 -26 -14 -12 4 -21 2 -21 -4 0 -6 -7 -11
-15 -11 -8 0 -15 -6 -15 -14 0 -17 62 -143 84 -171 15 -19 15 -18 5 13 -6 18
-8 40 -4 50 7 14 9 13 15 -8 5 -20 8 -12 14 35 17 146 17 145 -9 145 -15 0
-25 -7 -28 -21z m3 -85 c0 -8 -5 -12 -10 -9 -6 4 -8 11 -5 16 9 14 15 11 15
-7z"/>
<path d="M650 1675 c0 -8 2 -15 4 -15 2 0 6 7 10 15 3 8 1 15 -4 15 -6 0 -10
-7 -10 -15z"/>
<path d="M676 1682 c-3 -5 -7 -26 -9 -48 -3 -21 -2 -29 0 -16 2 12 11 22 19
22 8 0 13 -4 10 -9 -9 -14 20 -21 34 -8 18 17 2 -12 -21 -38 -21 -24 -44 -79
-29 -70 6 3 10 11 10 16 0 5 16 32 35 60 19 28 35 63 35 78 -1 22 -3 24 -13
11 -13 -16 -42 -26 -33 -11 3 5 -1 12 -10 15 -20 8 -22 8 -28 -2z"/>
<path d="M438 1629 c-5 -16 -13 -29 -18 -29 -4 0 -10 -9 -13 -21 -4 -15 -2
-19 9 -15 9 3 12 1 9 -4 -3 -6 -12 -10 -18 -10 -17 -1 -63 -37 -56 -44 6 -7
109 -36 149 -43 21 -3 19 -1 -10 16 -36 20 -37 19 16 36 9 3 25 -2 35 -11 11
-10 19 -12 19 -6 0 6 -6 15 -13 19 -7 4 -19 27 -26 50 -8 23 -18 40 -24 36 -5
-3 -6 3 -3 15 7 20 -5 34 -32 38 -8 2 -18 -11 -24 -27z m72 -105 c0 -2 -7 -4
-15 -4 -8 0 -15 4 -15 10 0 5 7 7 15 4 8 -4 15 -8 15 -10z m-90 -4 c0 -5 -4
-10 -9 -10 -6 0 -13 5 -16 10 -3 6 1 10 9 10 9 0 16 -4 16 -10z"/>
<path d="M808 1646 c-26 -26 -22 -53 11 -69 34 -17 61 -6 61 25 0 21 0 21 -15
2 -14 -19 -14 -18 -15 4 0 12 -4 22 -9 22 -5 0 -11 8 -13 17 -3 15 -4 15 -20
-1z m22 -42 c0 -8 -7 -14 -15 -14 -8 0 -15 9 -15 20 0 13 5 18 15 14 8 -4 15
-12 15 -20z"/>
<path d="M641 1524 c0 -11 3 -14 6 -6 3 7 2 16 -1 19 -3 4 -6 -2 -5 -13z"/>
<path d="M874 1492 c3 -6 -3 -27 -15 -46 l-21 -36 26 0 c18 0 24 4 20 15 -4
10 0 15 11 15 24 0 16 54 -9 58 -10 2 -16 0 -12 -6z"/>
<path d="M301 1454 c0 -11 3 -14 6 -6 3 7 2 16 -1 19 -3 4 -6 -2 -5 -13z"/>
<path d="M353 1429 c-35 -13 -28 -29 10 -22 40 7 40 8 25 20 -8 7 -22 7 -35 2z"/>
<path d="M378 1383 c7 -3 16 -2 19 1 4 3 -2 6 -13 5 -11 0 -14 -3 -6 -6z"/>
<path d="M870 1365 c0 -8 5 -15 10 -15 6 0 10 7 10 15 0 8 -4 15 -10 15 -5 0
-10 -7 -10 -15z"/>
<path d="M814 1314 c-5 -19 -9 -22 -15 -12 -5 7 -9 8 -9 3 0 -6 6 -17 13 -24
8 -10 8 -12 0 -7 -6 3 -14 2 -17 -3 -3 -5 0 -11 8 -14 16 -7 86 49 86 69 0 17
-16 19 -24 2 -5 -10 -7 -10 -12 0 -9 20 -23 14 -30 -14z m26 -13 c0 -6 -4 -13
-10 -16 -5 -3 -10 1 -10 9 0 9 5 16 10 16 6 0 10 -4 10 -9z"/>
<path d="M736 1285 c4 -8 13 -15 21 -15 13 0 13 3 3 15 -7 8 -16 15 -21 15 -5
0 -6 -7 -3 -15z"/>
<path d="M300 1280 c0 -5 5 -10 11 -10 5 0 7 5 4 10 -3 6 -8 10 -11 10 -2 0
-4 -4 -4 -10z"/>
<path d="M710 1251 c0 -6 -6 -11 -14 -11 -25 0 -65 -46 -59 -69 7 -27 36 -27
76 1 34 22 77 64 77 72 0 3 -10 5 -22 5 -13 -1 -31 2 -40 6 -11 4 -18 3 -18
-4z"/>
<path d="M355 1242 c-6 -4 -17 -20 -25 -35 -12 -24 -12 -29 0 -37 8 -5 17 -7
19 -4 3 3 0 9 -7 13 -9 5 -2 14 23 27 39 21 43 29 19 38 -19 7 -17 7 -29 -2z"/>
<path d="M562 1202 c-9 -12 -11 -12 -7 -2 4 8 -1 6 -9 -4 -9 -11 -16 -16 -16
-10 0 5 -5 2 -10 -6 -8 -13 -10 -12 -10 4 0 18 -1 18 -20 1 -11 -10 -17 -22
-14 -26 3 -5 -2 -6 -10 -3 -18 7 -20 -4 -6 -26 14 -23 112 -20 139 4 12 11 21
26 20 35 0 12 -3 11 -9 -4 l-9 -20 -1 20 c0 11 -6 28 -13 37 -12 15 -14 15
-25 0z"/>
<path d="M384 1199 c-5 -8 -3 -9 6 -4 9 5 11 4 6 -4 -6 -9 -11 -9 -24 1 -14
11 -15 10 -9 -5 4 -10 7 -23 7 -28 0 -5 8 -9 18 -9 14 0 15 2 2 10 -8 5 -10
10 -4 10 5 0 15 -5 22 -12 8 -8 15 -8 21 -2 6 5 1 17 -14 32 -17 16 -26 19
-31 11z"/>
<path d="M4495 1349 c-4 -6 -5 -12 -2 -15 2 -3 7 2 10 11 7 17 1 20 -8 4z"/>
<path d="M3885 950 c-3 -5 -1 -10 4 -10 6 0 11 5 11 10 0 6 -2 10 -4 10 -3 0
-8 -4 -11 -10z"/>
<path d="M2360 1054 c0 -7 5 -16 12 -20 7 -4 8 -3 4 4 -11 18 5 14 26 -5 18
-16 18 -16 10 8 -10 25 -52 37 -52 13z"/>
<path d="M3608 3593 c6 -2 18 -2 25 0 6 3 1 5 -13 5 -14 0 -19 -2 -12 -5z"/>
<path d="M3913 3593 c9 -2 25 -2 35 0 9 3 1 5 -18 5 -19 0 -27 -2 -17 -5z"/>
<path d="M4117 3581 c3 -13 17 -21 41 -26 33 -6 35 -8 19 -20 -21 -15 -22 -25
-3 -25 8 0 18 -5 22 -11 5 -8 -1 -10 -20 -7 -39 8 -45 -17 -12 -47 21 -20 31
-23 46 -15 10 5 28 10 39 10 11 0 33 11 48 24 27 24 27 25 9 39 -18 13 -18 14
4 20 15 4 21 11 17 21 -8 20 10 30 20 12 10 -17 23 -10 41 22 l12 22 -144 0
c-137 0 -144 -1 -139 -19z"/>
<path d="M4452 3590 c10 -6 25 -7 40 -1 20 9 18 10 -17 10 -31 0 -36 -2 -23
-9z"/>
<path d="M4779 3586 c8 -10 9 -16 1 -21 -5 -3 -10 -1 -10 6 0 8 -7 7 -22 -3
-34 -23 -31 -74 7 -112 17 -16 29 -33 28 -38 -5 -16 28 -8 49 12 25 23 34 20
19 -8 -12 -23 -6 -32 22 -32 15 0 17 -3 8 -13 -14 -17 -4 -28 17 -20 32 12 45
53 17 53 -23 0 -18 17 8 24 l22 7 -22 9 c-28 12 -29 26 -3 33 16 4 22 -1 28
-26 4 -17 14 -33 21 -35 10 -3 11 0 1 18 -8 15 -8 26 -2 32 11 11 -3 75 -19
92 -5 5 -1 14 9 22 13 10 -3 12 -87 13 -89 1 -102 -1 -92 -13z m6 -116 c-3 -5
-10 -10 -16 -10 -5 0 -9 5 -9 10 0 6 7 10 16 10 8 0 12 -4 9 -10z"/>
<path d="M5018 3593 c-30 -5 -33 -10 -19 -31 7 -11 9 -11 14 2 4 9 10 16 14
15 21 -4 43 2 43 11 0 10 -3 10 -52 3z"/>
<path d="M5090 3574 c0 -9 9 -18 20 -21 11 -3 17 -9 14 -14 -8 -14 19 -10 40
6 16 12 17 17 6 30 -14 17 -40 20 -40 5 0 -7 -6 -7 -20 0 -16 9 -20 8 -20 -6z"/>
<path d="M3670 3570 c0 -5 5 -10 10 -10 6 0 10 5 10 10 0 6 -4 10 -10 10 -5 0
-10 -4 -10 -10z"/>
<path d="M3956 3571 c-4 -7 -5 -15 -2 -18 9 -9 19 4 14 18 -4 11 -6 11 -12 0z"/>
<path d="M4660 3526 c0 -29 26 -54 41 -39 8 8 7 13 0 17 -6 4 -11 16 -11 27 0
10 -7 19 -15 19 -9 0 -15 -9 -15 -24z"/>
<path d="M4558 3493 c7 -3 16 -2 19 1 4 3 -2 6 -13 5 -11 0 -14 -3 -6 -6z"/>
<path d="M5367 3473 c-4 -3 -7 -11 -7 -17 0 -6 5 -5 12 2 6 6 9 14 7 17 -3 3
-9 2 -12 -2z"/>
<path d="M4315 3440 c3 -5 8 -10 11 -10 2 0 4 5 4 10 0 6 -5 10 -11 10 -5 0
-7 -4 -4 -10z"/>
<path d="M4355 3440 c3 -5 16 -10 28 -9 21 0 21 1 2 9 -28 12 -37 12 -30 0z"/>
<path d="M4250 3400 c0 -5 5 -10 10 -10 6 0 10 5 10 10 0 6 -4 10 -10 10 -5 0
-10 -4 -10 -10z"/>
<path d="M4956 3391 c-3 -5 1 -14 9 -21 12 -10 15 -10 15 3 0 19 -16 31 -24
18z"/>
<path d="M4156 3364 c-5 -12 -2 -15 10 -10 8 3 18 6 20 6 2 0 4 5 4 10 0 16
-27 11 -34 -6z"/>
<path d="M4783 3368 c-29 -14 -29 -29 2 -51 27 -20 48 -15 38 8 -3 9 1 15 10
15 21 0 29 27 11 34 -21 8 -35 7 -61 -6z"/>
<path d="M4022 3260 c-7 -29 -7 -40 2 -40 24 0 37 18 34 45 -5 43 -24 41 -36
-5z"/>
<path d="M4430 3292 c0 -13 24 -39 43 -45 24 -9 21 5 -6 31 -24 23 -37 28 -37
14z"/>
<path d="M4140 3246 c0 -8 -12 -19 -27 -24 -43 -15 -4 -26 45 -13 33 9 39 15
35 31 -6 23 -53 28 -53 6z"/>
<path d="M4410 3225 c0 -8 4 -15 10 -15 5 0 7 7 4 15 -4 8 -8 15 -10 15 -2 0
-4 -7 -4 -15z"/>
<path d="M4452 3231 c2 -7 7 -12 11 -12 12 1 9 15 -3 20 -7 2 -11 -2 -8 -8z"/>
<path d="M4280 3165 c0 -10 -7 -15 -17 -13 -11 2 -17 -2 -15 -11 2 -8 -3 -18
-10 -22 -7 -4 -9 -11 -6 -15 4 -3 14 1 23 10 19 19 35 21 35 5 0 -8 6 -7 17 2
9 8 14 9 10 3 -4 -7 0 -14 8 -18 8 -3 15 -13 15 -22 0 -16 -1 -16 -18 -1 -24
22 -32 21 -33 0 0 -11 -3 -13 -6 -5 -6 14 -33 16 -33 2 0 -21 -3 -26 -41 -71
-36 -43 -52 -78 -29 -64 11 7 46 -43 37 -52 -7 -7 22 -32 37 -33 6 0 1 7 -10
15 -18 15 -18 15 9 9 22 -5 27 -3 28 12 0 15 2 16 7 4 16 -35 142 -11 189 36
17 17 8 35 -13 27 -14 -5 -14 -3 -2 16 9 15 19 20 33 17 11 -3 28 -6 38 -6 10
0 15 -5 12 -10 -4 -6 -10 -8 -15 -5 -5 3 -11 1 -15 -5 -4 -6 4 -9 19 -8 32 3
36 37 6 56 -26 16 -26 36 0 29 11 -3 23 -1 26 4 10 17 21 0 16 -26 -2 -14 0
-25 5 -25 14 0 32 21 29 34 -2 6 -1 8 1 4 8 -14 22 -8 28 11 4 14 14 19 32 18
14 -1 28 4 31 12 3 8 0 11 -7 7 -6 -4 -21 2 -33 13 -12 12 -35 21 -51 21 -25
0 -28 3 -22 23 6 22 6 22 -10 2 -9 -11 -23 -19 -31 -17 -8 2 -14 -2 -14 -7 0
-13 36 -24 52 -16 7 4 4 -1 -6 -9 -15 -12 -16 -16 -5 -17 15 -1 -27 -16 -51
-18 -11 -1 -11 2 3 16 15 16 15 18 0 35 -13 14 -13 18 -2 18 12 0 11 2 -1 10
-8 5 -11 12 -7 16 3 4 13 1 21 -5 14 -12 32 0 19 13 -13 13 -51 5 -58 -11 -7
-17 -8 -16 -15 2 -8 18 -9 18 -9 2 -1 -15 -6 -17 -31 -12 -20 4 -37 2 -47 -7
-14 -11 -16 -11 -8 1 7 11 1 13 -28 8 -25 -4 -37 -2 -41 9 -3 8 0 14 6 14 6 0
8 3 5 6 -4 4 -13 1 -22 -6 -10 -8 -15 -9 -15 -1 0 6 -4 11 -10 11 -5 0 -10 -7
-10 -15z m175 -35 c4 -6 -5 -10 -20 -10 -15 0 -24 4 -20 10 3 6 12 10 20 10 8
0 17 -4 20 -10z m-67 -38 c2 -7 -2 -10 -12 -6 -9 3 -16 11 -16 16 0 13 23 5
28 -10z m34 -14 c-9 -9 -12 -7 -12 12 0 19 3 21 12 12 9 -9 9 -15 0 -24z m-6
-85 c-10 -10 -19 5 -10 18 6 11 8 11 12 0 2 -7 1 -15 -2 -18z m44 11 c0 -17
-22 -14 -28 4 -2 7 3 12 12 12 9 0 16 -7 16 -16z m-245 -24 c3 -5 1 -10 -4
-10 -6 0 -11 5 -11 10 0 6 2 10 4 10 3 0 8 -4 11 -10z"/>
<path d="M4680 3140 c0 -5 5 -10 11 -10 5 0 7 5 4 10 -3 6 -8 10 -11 10 -2 0
-4 -4 -4 -10z"/>
<path d="M3840 3116 c0 -8 -7 -22 -16 -30 -14 -15 -14 -19 5 -45 26 -36 80
-84 133 -117 53 -34 58 -25 8 15 -35 28 -88 107 -78 117 2 2 16 -3 31 -11 32
-16 34 -6 10 38 -10 18 -18 33 -18 33 0 1 -17 4 -37 8 -30 5 -38 4 -38 -8z"/>
<path d="M3960 3032 c0 -30 220 -165 239 -147 10 11 -38 44 -81 55 -21 6 -56
26 -76 44 -42 37 -82 61 -82 48z"/>
<path d="M4720 3008 c0 -9 -6 -19 -12 -21 -10 -4 -10 -6 0 -6 14 -1 28 26 18
36 -3 4 -6 -1 -6 -9z"/>
<path d="M4795 3010 c3 -5 8 -10 11 -10 2 0 4 5 4 10 0 6 -5 10 -11 10 -5 0
-7 -4 -4 -10z"/>
<path d="M4514 2895 c-4 -8 -12 -15 -20 -15 -18 0 -19 -49 -1 -54 37 -12 71
-16 58 -7 -12 8 -12 12 -2 24 15 19 4 67 -15 67 -8 0 -17 -7 -20 -15z"/>
<path d="M4067 2875 c77 -38 243 -70 243 -47 0 5 -21 8 -47 9 -40 0 -112 19
-228 57 -11 3 3 -5 32 -19z"/>
<path d="M4570 2826 c0 -24 27 -38 60 -31 49 11 35 39 -22 42 -27 2 -38 -1
-38 -11z"/>
<path d="M4778 2475 c-3 -4 -36 -7 -72 -7 -42 -1 -70 -6 -77 -15 -6 -7 -17
-13 -24 -13 -8 0 -15 -5 -17 -12 -3 -7 -10 -8 -17 -4 -11 7 -11 10 0 17 19 11
-15 24 -38 13 -10 -4 -21 -6 -25 -6 -12 3 -10 -16 2 -23 19 -11 10 -26 -11
-20 -17 6 -20 3 -17 -12 2 -11 13 -19 31 -21 31 -4 34 -14 11 -33 -15 -12 -14
-15 6 -31 12 -10 33 -18 46 -18 14 0 27 -7 30 -15 9 -23 54 -18 80 10 16 18
19 25 9 25 -8 0 -15 -4 -15 -10 0 -5 -4 -10 -10 -10 -5 0 -10 7 -10 15 0 8 5
15 11 15 5 0 7 5 4 10 -3 6 -2 10 4 10 5 0 11 -6 14 -12 3 -9 12 -5 28 11 13
13 19 21 12 17 -6 -3 -15 -1 -19 5 -5 8 2 10 24 7 17 -2 30 0 29 6 -1 5 8 15
21 21 13 7 23 16 22 20 -1 4 4 12 12 16 11 8 11 10 0 18 -8 4 -13 12 -12 17 1
11 -23 17 -32 9z m-128 -51 c0 -8 -4 -12 -10 -9 -5 3 -10 10 -10 16 0 5 5 9
10 9 6 0 10 -7 10 -16z m106 -30 c-9 -25 -24 -7 -18 22 4 23 6 24 14 10 5 -10
7 -24 4 -32z m-66 32 c0 -3 -4 -8 -10 -11 -5 -3 -10 -1 -10 4 0 6 5 11 10 11
6 0 10 -2 10 -4z m-55 -146 c3 -5 2 -10 -4 -10 -5 0 -13 5 -16 10 -3 6 -2 10
4 10 5 0 13 -4 16 -10z"/>
<path d="M4440 2330 c0 -5 5 -10 11 -10 5 0 7 5 4 10 -3 6 -8 10 -11 10 -2 0
-4 -4 -4 -10z"/>
<path d="M4260 1501 c0 -10 20 -37 20 -27 0 5 6 4 13 -2 14 -12 57 -5 57 9 0
5 -3 9 -7 9 -5 0 -25 4 -45 9 -21 5 -38 6 -38 2z"/>
<path d="M4860 1372 c0 -5 7 -15 15 -22 8 -7 15 -9 15 -6 0 4 -7 14 -15 22 -8
9 -15 11 -15 6z"/>
<path d="M4810 1335 c7 -9 15 -13 17 -11 7 7 -7 26 -19 26 -6 0 -6 -6 2 -15z"/>
<path d="M4730 1320 c0 -5 5 -10 10 -10 6 0 10 5 10 10 0 6 -4 10 -10 10 -5 0
-10 -4 -10 -10z"/>
<path d="M4943 1279 c-18 -12 -30 -25 -27 -30 7 -12 -8 -11 -40 1 -25 9 -37
-2 -16 -15 6 -3 10 -12 10 -18 -1 -7 -9 -2 -19 11 -25 29 -33 28 -25 -4 5 -19
4 -25 -5 -20 -6 4 -12 1 -12 -6 -1 -7 -2 -19 -3 -26 0 -7 -7 -16 -14 -21 -7
-4 -10 -15 -6 -25 5 -14 9 -15 15 -5 4 8 11 11 14 7 8 -8 -26 -48 -40 -48 -5
0 -4 4 4 9 11 7 12 11 0 23 -13 14 -59 13 -59 -2 0 -5 9 -6 20 -3 25 7 25 -2
0 -30 -12 -12 -16 -23 -10 -25 5 -2 10 -11 10 -21 0 -22 61 -44 100 -36 17 4
30 10 30 15 0 4 9 6 20 3 11 -3 20 -9 20 -14 0 -5 7 -6 15 -3 8 4 15 2 15 -4
0 -6 9 -8 20 -5 11 3 20 0 20 -6 0 -18 29 -12 40 8 13 25 13 34 0 26 -5 -3
-10 -2 -10 4 0 5 7 14 15 19 14 7 13 12 -5 35 -12 15 -29 27 -38 27 -15 0 -15
-2 -2 -10 8 -5 11 -10 5 -10 -5 0 -16 4 -23 9 -10 6 -10 10 2 20 8 7 21 9 27
5 9 -5 10 -2 6 9 -5 14 -3 15 13 5 14 -9 16 -15 7 -21 -8 -6 -4 -7 11 -4 18 4
22 2 17 -11 -3 -11 3 -22 15 -29 16 -11 21 -10 29 5 8 14 11 14 12 2 1 -8 1
-18 0 -22 0 -4 5 -5 13 -2 7 3 18 -2 25 -10 14 -17 34 -12 78 20 17 13 36 24
42 24 6 0 11 4 11 8 0 5 9 18 21 30 l20 23 -27 -7 c-19 -5 -25 -4 -20 5 4 7 0
11 -12 11 -14 0 -20 7 -19 23 0 12 -3 29 -7 38 -6 13 1 18 31 24 30 5 34 9 20
16 -11 7 -26 5 -47 -6 -34 -17 -37 -31 -14 -56 14 -15 13 -17 -16 -15 -17 1
-35 8 -40 16 -9 13 -11 13 -20 0 -5 -8 -18 -16 -30 -16 -16 -1 -18 2 -9 12 6
7 8 17 5 22 -3 6 6 13 20 16 l25 7 -30 28 c-23 22 -36 27 -63 23 -18 -2 -39
-9 -46 -15 -7 -5 -16 -6 -20 -2 -4 4 -1 10 6 12 14 6 6 23 -11 23 -7 0 -27
-10 -44 -21z m-28 -69 c3 -5 -1 -10 -9 -10 -9 0 -16 5 -16 10 0 6 4 10 9 10 6
0 13 -4 16 -10z m65 -10 c0 -5 -4 -10 -9 -10 -6 0 -13 5 -16 10 -3 6 1 10 9
10 9 0 16 -4 16 -10z m-97 -20 c3 -11 2 -20 -3 -20 -4 0 -10 9 -13 20 -3 11
-2 20 3 20 4 0 10 -9 13 -20z m60 -47 c4 -2 7 -9 7 -16 0 -8 -3 -8 -12 1 -7 7
-25 12 -41 12 -16 0 -26 4 -22 10 5 9 47 5 68 -7z m177 -14 c0 -18 -2 -19 -15
-9 -8 7 -15 16 -15 21 0 5 7 9 15 9 9 0 15 -9 15 -21z m88 -14 c-3 -3 -9 2
-12 12 -6 14 -5 15 5 6 7 -7 10 -15 7 -18z m48 -8 c4 -4 -2 -7 -14 -7 -12 0
-22 4 -22 9 0 10 26 9 36 -2z"/>
<path d="M4863 1275 c5 -14 39 -13 44 1 2 7 -6 11 -22 10 -14 0 -23 -5 -22
-11z"/>
<path d="M5347 1143 c-11 -10 13 -33 34 -33 17 0 18 3 7 20 -13 20 -29 26 -41
13z"/>
<path d="M5255 1060 c-3 -5 1 -10 10 -10 9 0 13 5 10 10 -3 6 -8 10 -10 10 -2
0 -7 -4 -10 -10z"/>
<path d="M4666 995 c-9 -14 -12 -25 -6 -25 5 0 10 -8 10 -18 0 -13 8 -17 33
-16 60 2 59 2 45 27 -7 12 -12 25 -13 29 -1 30 -50 32 -69 3z"/>
<path d="M5285 1010 c3 -5 8 -10 11 -10 2 0 4 5 4 10 0 6 -5 10 -11 10 -5 0
-7 -4 -4 -10z"/>
<path d="M5031 954 c0 -11 3 -14 6 -6 3 7 2 16 -1 19 -3 4 -6 -2 -5 -13z"/>
<path d="M4636 945 c-3 -8 -1 -15 4 -15 13 0 22 18 11 24 -5 3 -11 -1 -15 -9z"/>
<path d="M5040 925 c0 -8 24 -48 38 -63 10 -11 12 -9 12 10 1 20 2 21 11 5 5
-9 7 -22 3 -29 -4 -7 -3 -8 4 -4 8 5 12 -1 12 -14 0 -13 4 -19 11 -14 8 4 8 0
0 -15 -7 -11 -8 -21 -4 -21 4 0 1 -4 -7 -10 -12 -8 -12 -11 1 -27 9 -10 19
-25 23 -33 4 -8 -6 1 -22 20 -16 19 -28 39 -25 45 2 7 -3 18 -12 25 -9 7 -15
9 -14 4 3 -20 -2 -23 -26 -14 -14 5 -25 6 -25 2 0 -4 -10 -8 -21 -9 -17 -2
-19 1 -10 10 15 15 14 28 -3 21 -7 -3 -16 3 -20 12 -9 23 0 30 19 14 9 -7 18
-10 22 -7 3 4 -7 12 -23 19 -16 7 -31 16 -34 20 -3 4 -5 -22 -5 -58 0 -44 4
-63 12 -60 6 3 13 -4 16 -15 3 -10 10 -19 17 -19 6 0 8 5 4 13 -10 15 26 -12
43 -33 17 -21 16 -35 -2 -20 -11 10 -17 9 -29 -3 -8 -8 -12 -18 -8 -21 3 -4
-1 -4 -11 0 -18 7 -23 -6 -8 -21 5 -6 11 -21 13 -35 2 -15 11 -26 22 -28 29
-6 97 29 107 55 5 13 12 23 17 23 4 0 30 -23 57 -51 27 -28 51 -46 53 -40 4
11 -26 55 -67 98 -24 26 -19 49 13 57 18 4 22 13 23 43 1 48 -4 57 -25 41 -15
-11 -15 -11 -4 3 15 20 0 69 -22 69 -7 0 -17 7 -20 16 -4 9 -13 14 -21 10 -8
-3 -15 -1 -15 5 0 7 -10 9 -25 5 -18 -5 -25 -2 -25 9 0 8 -4 15 -10 15 -5 0
-10 -2 -10 -5z m140 -166 c0 -6 -4 -7 -10 -4 -5 3 -10 11 -10 16 0 6 5 7 10 4
6 -3 10 -11 10 -16z"/>
<path d="M4725 911 c-3 -5 -2 -12 3 -15 5 -3 9 1 9 9 0 17 -3 19 -12 6z"/>
<path d="M4796 911 c-4 -7 -5 -15 -2 -18 9 -9 19 4 14 18 -4 11 -6 11 -12 0z"/>
<path d="M5017 883 c4 -11 3 -14 -5 -9 -20 12 -13 -3 13 -32 14 -15 25 -21 25
-15 0 7 -4 15 -10 18 -5 3 -10 17 -10 31 0 13 -4 24 -10 24 -5 0 -6 -7 -3 -17z"/>
<path d="M4875 871 c-3 -6 -3 -15 0 -21 4 -6 -1 -7 -11 -3 -13 5 -15 2 -9 -16
3 -12 3 -21 -2 -20 -22 4 -24 -3 -8 -21 10 -11 23 -20 28 -20 6 0 21 -10 34
-22 l24 -23 -5 27 c-2 14 -11 37 -20 50 -12 19 -12 26 -2 40 7 10 17 14 21 10
4 -4 6 0 3 8 -5 18 -43 26 -53 11z"/>
<path d="M4670 856 c0 -8 4 -17 8 -20 5 -3 7 -19 6 -35 -1 -17 3 -34 9 -38 6
-4 7 -1 2 7 -6 10 -4 12 8 7 10 -4 24 -10 32 -13 10 -4 15 0 15 11 0 9 -4 13
-10 10 -5 -3 -10 -1 -10 4 0 6 -8 11 -17 11 -15 0 -15 2 -4 9 12 8 12 12 2 24
-10 12 -9 16 1 20 7 2 2 2 -10 0 -15 -2 -21 0 -17 7 3 5 1 10 -4 10 -6 0 -11
-6 -11 -14z"/>
<path d="M4775 860 c-3 -5 -1 -10 4 -10 6 0 11 5 11 10 0 6 -2 10 -4 10 -3 0
-8 -4 -11 -10z"/>
<path d="M4746 799 c15 -17 16 -23 5 -41 -11 -17 -10 -23 3 -36 12 -13 18 -14
28 -4 10 10 18 1 38 -40 21 -42 32 -54 54 -56 15 -2 30 -10 33 -18 6 -17 59
-19 69 -2 4 6 -1 17 -10 23 -9 7 -16 17 -14 21 6 19 -28 73 -55 89 -16 10 -45
34 -63 53 -32 34 -34 35 -52 18 -17 -15 -20 -15 -25 -1 -4 8 -12 15 -18 15 -7
0 -4 -8 7 -21z m64 -13 c0 -3 -4 -8 -10 -11 -5 -3 -10 -1 -10 4 0 6 5 11 10
11 6 0 10 -2 10 -4z m85 -66 c-3 -5 -18 -10 -33 -9 l-27 1 25 8 c35 11 42 11
35 0z"/>
<path d="M4770 586 c0 -2 7 -9 15 -16 9 -7 15 -8 15 -2 0 5 -7 12 -15 16 -8 3
-15 4 -15 2z"/>
<path d="M5113 494 c0 -17 2 -22 7 -13 5 6 6 18 3 26 -8 19 -10 16 -10 -13z"/>
<path d="M5210 360 c-13 -8 -12 -10 3 -10 9 0 17 5 17 10 0 12 -1 12 -20 0z"/>
<path d="M3976 317 c3 -10 9 -15 12 -12 3 3 0 11 -7 18 -10 9 -11 8 -5 -6z"/>
<path d="M4516 254 c-10 -25 23 -43 77 -44 l48 0 -21 22 c-11 12 -20 26 -20
30 0 5 -13 2 -30 -7 -26 -13 -29 -14 -24 0 4 9 0 15 -9 15 -8 0 -18 -7 -21
-16z"/>
<path d="M4760 240 c-9 -6 -10 -10 -3 -10 6 0 15 5 18 10 8 12 4 12 -15 0z"/>
<path d="M4545 190 c3 -5 11 -10 16 -10 6 0 7 5 4 10 -3 6 -11 10 -16 10 -6 0
-7 -4 -4 -10z"/>
<path d="M3680 170 c0 -5 5 -10 10 -10 6 0 10 5 10 10 0 6 -4 10 -10 10 -5 0
-10 -4 -10 -10z"/>
<path d="M5250 161 c0 -5 7 -11 15 -15 21 -8 19 -27 -2 -20 -15 5 -16 4 -3 -5
22 -16 30 -13 30 9 0 10 -9 24 -20 30 -11 6 -20 7 -20 1z"/>
<path d="M3351 51 c-8 -5 -9 -11 -3 -15 5 -3 12 1 16 9 6 17 6 18 -13 6z"/>
<path d="M4865 10 c-3 -5 -1 -10 4 -10 6 0 11 5 11 10 0 6 -2 10 -4 10 -3 0
-8 -4 -11 -10z"/>
</g>
</svg>
